<?xml version="1.0" encoding="UTF-8"?>
<svg id="Layer_1" xmlns="http://www.w3.org/2000/svg" viewBox="0 0 4.7 4.5">
  <defs>
    <style>
      .cls-1 {
        fill: #e94d2a;
      }
    </style>
  </defs>
  <path class="cls-1" d="M4.4,2.4c-.4,0-.9,0-1.3-.1.2-.2.4-.4.5-.6.3-.3.6-.6.8-.8.1-.1.1-.3,0-.4s-.3-.1-.4,0c-.2.2-.5.5-.8.9-.1.1-.3.3-.4.4,0-.5.1-1.1.2-1.5,0-.2-.1-.3-.2-.3-.2,0-.3.1-.3.2-.1.4-.1.9-.2,1.4-.4-.2-.6-.5-.9-.8-.1-.1-.3-.1-.4,0-.1.1-.1.3,0,.4.3.4.7.8,1,1.2-.6,0-1.2-.1-1.6-.2-.2,0-.3,0-.4.2,0,.2,0,.3.2.4.4.1.9.2,1.5.2-.3.3-.6.5-.9.6-.1,0-.2.1-.1.3,0,.1.2.2.3.2h.1c.3-.1.7-.4,1-.7v.8c0,.2.1.3.3.3h0c.2,0,.3-.1.3-.3v-1c.2.2.3.3.5.5q.1.1.2.1c.1,0,.2,0,.2-.1.1-.1.1-.3,0-.4q-.1-.1-.2-.2h1c.2,0,.3-.1.3-.3,0-.2-.1-.4-.3-.4"/>
</svg>