<?xml version="1.0" encoding="UTF-8"?>
<svg id="Calque_8" xmlns="http://www.w3.org/2000/svg" viewBox="0 0 1247.89 826.71">
  <defs>
    <style>
      .cls-1 {
        fill: #036;
      }

      .cls-2 {
        fill: #e94d2a;
      }
    </style>
  </defs>
  <path class="cls-2" d="M1078.28,295.91c.28,3.63-.14,7.3.06,10.94.2,3.71-1.04,5.23-5.01,5.17-14.03-.2-28.07-.12-42.11-.1-22.32.03-44.64.13-66.96.12-10.25,0-20.49-.24-30.73-.27-3.21-.02-4.96-1.02-4.69-4.63.4-5.42-.09-10.99.94-16.28,1.24-6.39,4.49-8.48,11-8.86,5.01-.3,10.02-.5,15.24-.75.64,3.36,1,6.41,1.83,9.33,1.73,6.04,5.46,8.61,11.09,7.99,5.28-.58,8.87-4.44,9.34-10.21.16-1.93.03-3.89.03-6.42h51.27c0,2.08-.03,4.41.01,6.75.08,5.54,3.6,10.47,7.87,11.08,5.61.8,11.18-2.48,12.9-7.95,1-3.17,1.42-6.52,2.2-10.26,4.17,0,8.4-.38,12.55.07,8.16.89,12.53,5.74,13.17,14.28Z"/>
  <path class="cls-2" d="M688.72,289.1c.85.08,1.53,1.91,2.23,2.88-.59,1.63-.82,2.92-1.46,3.95-1.61,2.63-3.19,5.32-5.16,7.68-13.19,15.81-26.45,31.56-39.75,47.27-1.99,2.34-4.39,4.33-6.5,6.57-2.16,2.28-4.21,1.85-6.16-.12-7.38-7.48-14.81-14.9-21.97-22.59-1.22-1.31-2.23-4.44-1.51-5.58,1.64-2.6,4.49-1.16,6.23.35,4.53,3.95,8.98,8.04,13.05,12.45,3.81,4.14,5.21,4.56,9.08.44,12.69-13.49,25.33-27.01,37.85-40.65,3.31-3.6,5.95-7.82,9.25-11.42.97-1.06,3.23-1.39,4.82-1.23Z"/>
  <path class="cls-1" d="M1220.72,470.88c.08,20.74.15,41.48.09,62.22-.04,14.82-.36,29.65-.45,44.48-.17,27.36-.4,54.71-.35,82.07.03,17.93.63,35.86.72,53.8.08,13.46-.65,26.94-.25,40.4.27,9.31.44,18.36-2.77,27.34-3.98,11.16-11.47,18.29-22.9,20.65-7.37,1.51-14.97,2.14-22.5,2.52-12.31.61-24.64.94-36.97.94-24.95.02-49.91-.41-74.86-.38-14.15.01-28.3.72-42.45.83-13.33.09-26.67-.29-40-.29-35.31.02-70.63.22-105.94.19-21.33-.02-42.65-.41-63.98-.49-22.94-.08-45.88.06-68.82.01-17.21-.03-34.42-.25-51.63-.3-29.31-.09-58.61-.21-87.91-.11-14.3.05-28.59.77-42.89.76-14.87,0-29.73-.79-44.6-.76-33.12.07-66.25.5-99.38.65-11.06.04-22.11-.51-33.17-.51-17.91,0-35.82.32-53.74.35-28.9.05-57.81.02-86.71-.06-8.98-.03-17.95-.55-26.92-.45-24.65.27-49.31.94-73.96,1.09-16.81.1-33.62-.07-50.41-.76-7.65-.31-15.29-1.9-22.83-3.41-9.27-1.87-13.82-8.71-17.01-17.01-3.99-10.39-5.2-21.06-5.08-32.13.16-14.87-.58-29.74-.61-44.6-.02-13.89.52-27.77.57-41.66.09-32.4.06-64.81.03-97.21-.03-20.63-.21-41.27-.24-61.91-.04-26.05.08-52.1,0-78.15-.1-30.03-.45-60.06-.49-90.08-.03-17.4.55-34.8.45-52.2-.14-23.73-.87-47.45-.98-71.18-.09-20.77.29-41.54.56-62.31.14-11.22.16-22.46.81-33.65.56-9.72,4.22-18.59,10.14-26.29,1.87-2.44,4.76-4.34,7.55-5.79,9.45-4.9,19.48-5.96,30.16-5.37,12.58.7,25.24-.29,37.88-.33,32.03-.11,64.06-.13,96.1-.13,11.19,0,22.39.19,33.59.23,11.48.04,22.96.01,34.36.01,1.22-9.09,1.68-17.56,3.62-25.68,2.72-11.43,9.53-18.43,21.61-22.53,16.21-5.5,32.78-5.61,49.23-7.03,16.42-1.4,33.03-.85,49.56-.71,13.83.12,27.65,1.07,41.48,1.3,8.97.15,17.95-.54,26.93-.49,20.77.1,41.53.5,62.3.61,13.75.07,27.49-.35,41.23-.21,19.32.2,38.64.91,57.95,1.05,17.12.13,34.25-.28,51.37-.36,23.43-.1,46.87-.14,70.3-.18,18.76-.03,37.51.07,56.27-.05,11.65-.08,23.29-.67,34.94-.65,10.36.02,20.82-.19,31.07,1.07,9.9,1.22,20.13,1.72,29.38,6.39,6.43,3.24,10.21,8.64,12.61,15.12,3.26,8.81,3.71,18.06,3.72,27.35v4.41c7.66.48,15.13,1.28,22.61,1.33,15.85.09,31.71-.25,47.57-.35,32.91-.2,65.82-.51,98.74-.51,23.85,0,47.7.59,71.56.6,7.51,0,14.69,1.26,21.54,4.01,13.12,5.26,19.92,15.72,20.44,29.31.87,22.85.57,45.75.83,68.62.27,24.29.75,48.57.89,72.85.08,13.75-.51,27.5-.5,41.26.02,17.53.44,35.07.5,52.6.03,10.78-.42,21.55-.39,32.33.07,29.17.31,58.35.43,87.52ZM1216.19,455.95c.03-26.22-.31-52.44-.4-78.66-.06-18.81-.01-37.62.05-56.42.08-22.01.28-44.02.31-66.03.05-31.59.1-63.18-.08-94.77-.08-14.17-.4-28.35-1.21-42.5-.39-6.96-1.91-14-7.05-19.34-5.31-5.53-11.48-8.75-19.46-10.25-7.98-1.51-15.8-1.83-23.73-1.91-17.1-.19-34.2-.14-51.3-.08-19.19.08-38.38.36-57.56.41-35.7.09-71.4.09-107.1.06-3.86-.01-7.73-.52-12.04-.83,0,2.42.19,4.38-.04,6.29-.78,6.78-1.15,13.68-2.71,20.29-2.1,8.96-7.23,15.83-15.97,19.93-9.93,4.66-20.54,5.95-31.15,6.07-27.92.33-55.86-.08-83.79-.08-31.47,0-62.95.08-94.43.2-11.63.04-23.26.43-34.89.41-17.26-.04-34.51-.53-51.76-.39-17.38.14-34.76,1.11-52.14,1.19-19.2.09-38.4-.53-57.61-.65-25.52-.17-51.05-.11-76.58-.24-27.75-.15-55.5-.36-83.25-.62-11.03-.1-21.94.41-32.73-3.78-13.01-5.06-23.79-17.59-24.98-31.52-.45-5.3-.84-10.6-1.31-16.44-4.77,0-9.37.01-13.96,0-18.64-.05-37.27-.1-55.91-.18-27.39-.11-54.77-.28-82.16-.38-17.11-.06-34.22-.17-51.33.05-5.7.07-11.51.56-17.06,1.8-9,2-16.68,6.31-21.01,15.11-4.28,8.68-4.87,18.06-5.17,27.44-.25,7.41.29,14.85.25,22.28-.08,13.57-.53,27.15-.48,40.72.11,29.19.52,58.38.64,87.57.08,21.34-.1,42.67-.18,64.01-.1,25.67-.31,51.35-.29,77.02.02,28.55.32,57.1.37,85.64.09,51.54.15,103.08.11,154.61-.02,18.09-.49,36.18-.51,54.26-.01,13.19.64,26.38.48,39.57-.12,9.29,1.83,17.97,4.81,26.7,2.95,8.67,8.84,13.69,17.35,15.28,8.9,1.65,17.98,2.77,27.02,3.22,10.77.54,21.59.16,32.38.09,26.09-.17,52.18-.46,78.27-.55,11.36-.04,22.73.41,34.09.48,14.44.1,28.88.11,43.32.04,17.96-.1,35.92-.44,53.87-.45,19.77-.02,39.53.26,59.29.33,18.19.07,36.38.04,54.58.06,26.92.02,53.84.05,80.76.09,31.79.04,63.57.13,95.36.1,9.95-.01,19.91-.46,29.86-.5,11.23-.04,22.45.19,33.68.22,19.17.06,38.34,0,57.51.1,15.57.08,31.15.43,46.72.44,13.62.01,27.24-.42,40.87-.41,11.48,0,22.97.54,34.46.48,19.07-.09,38.14-.58,57.22-.69,20.05-.12,40.1.01,60.15.05,28.07.05,56.15.29,84.23.14,37.06-.2,74.13,1.22,111.18-1.43,14.76-1.05,25.6-8.49,30.25-22.37,3.03-9.06,1.77-18.22,1.75-27.39-.07-33.43.04-66.85-.03-100.27-.09-40.02-.41-80.03-.41-120.04,0-24.53.55-49.06.58-73.58ZM930.54,111.1c4.37-19.98,3.8-39.97-1.98-59.72-2.42-8.24-8.13-13.17-16.04-15.13-7.95-1.97-16.13-3.86-24.27-4.12-23.95-.79-47.94-.83-71.91-.99-9.09-.06-18.19.49-27.28.54-28.03.15-56.06.15-84.1.31-18.28.11-36.56.63-54.84.55-26.65-.11-53.3-.64-79.95-.9-25.96-.24-51.91-.41-77.87-.52-9.39-.04-18.79.43-28.17.27-12.34-.2-24.66-1.03-37-1.19-16.84-.21-33.69-.05-50.54-.05v1.18c-5.88,0-11.81-.49-17.63.1-13.72,1.4-27.79,1.13-40.76,6.73-4.28,1.84-9.33,3.84-11.86,7.34-3.4,4.69-5.57,10.73-6.75,16.5-2.8,13.71-2.23,27.61-.43,41.46,1.39,10.68,6.98,18.63,16.17,23.68,9.77,5.36,20.51,6.93,31.7,6.87,26.74-.14,53.5.27,80.25.3,32.44.04,64.88-.22,97.32-.07,14.99.07,29.98,1.1,44.97,1.13,11.92.02,23.84-1.06,35.77-1.2,15.58-.18,31.16.14,46.74.12,20.75-.02,41.5-.3,62.24-.23,42.42.13,84.84.47,127.26.59,13.88.04,27.77-.06,41.64-.64,8.08-.33,16.32-.92,24.14-2.84,10.82-2.66,20.55-8.06,23.18-20.07Z"/>
  <path class="cls-1" d="M1166.07,688.31c.13,10.37,1.1,20.76.66,31.1-.45,10.45-.93,21.19-3.67,31.18-3.55,12.95-13.73,20.06-26.85,22.6-19.61,3.8-39.4,2.52-59.17,2.18-14.13-.24-28.27.31-42.41.28-21.03-.05-42.07-.41-63.1-.43-13.31-.01-26.62.48-39.93.53-15.71.06-31.43.13-47.13-.27-9.78-.25-19.43-1.24-28.84-4.85-11.36-4.36-17.77-12.36-19.19-23.89-1.2-9.83-1.1-19.84-1.19-29.78-.17-18.6-.07-37.21-.06-55.81,0-18.19.02-36.38.05-54.57.04-17.92.2-35.85.12-53.77-.08-18.37-.55-36.74-.55-55.11,0-25.94.35-51.89.38-77.84.01-13.18-.55-26.36-.51-39.53.08-25.78.5-51.55.58-77.33.05-16.93-.56-33.86-.3-50.78.17-11.15-.01-22.35,3.07-33.34,3.77-13.42,12.91-20.27,25.9-23.25,13.78-3.16,27.77-3.39,41.78-3.54,20.27-.22,40.55-.53,60.82-.61,10.25-.04,20.49.52,30.73.51,9.38-.02,18.76-.71,28.13-.61,19.48.19,38.96.74,58.45,1.08,13.85.24,27.74-.1,41.56.74,7.44.45,15.1,1.96,22.05,4.59,7.33,2.77,12.16,8.47,14.59,16.69,5.29,17.88,3.8,36.09,4.14,54.24.08,4.49.01,8.98.01,13.47h-.12c0,17.54.09,35.09-.03,52.64-.16,24.78-.6,49.56-.69,74.34-.05,13.74.49,27.49.53,41.23.05,11.57-.35,23.15-.35,34.72,0,22.71.16,45.43.22,68.14.08,33.11.15,66.22.22,99.32.03,11.91-.06,23.82.1,35.73ZM1162.07,712.17c.12-17.82-.55-35.65-.57-53.47-.04-28.35.27-56.69.28-85.03.02-28.87-.18-57.73-.21-86.59-.01-13.71.27-27.41.21-41.12-.08-20.75-.45-41.51-.51-62.27-.07-22.59.04-45.18.16-67.77.09-16.38.61-32.75.43-49.12-.16-14.43-.43-28.9-1.81-43.24-.75-7.91-3.65-16.08-11.68-19.89-5.98-2.84-12.56-5.64-19.03-6.05-17.49-1.09-35.05-1.01-52.59-1.16-28.15-.24-56.3-.32-84.46-.4-24.46-.06-48.92-.01-73.39-.01v.03c-1.12,0-2.24.01-3.36,0-16.7-.16-33.39.1-49.82,3.6-9.98,2.12-18.44,6.74-22.1,16.76-2.17,5.95-3.75,12.44-3.91,18.73-.52,21.69-.3,43.4-.35,65.11-.03,17.79.06,35.59-.06,53.38-.1,13.6-.67,27.2-.65,40.8.04,32.13.36,64.26.46,96.39.04,13.33-.33,26.66-.3,40,.03,11.75.52,23.49.52,35.24,0,14.99-.41,29.98-.42,44.97-.01,15.11.26,30.22.41,45.33.3,28.84.46,57.68,1.01,86.52.18,9.18,3.86,16.52,12.72,21.14,10.08,5.26,20.88,6.58,31.74,6.75,27.48.42,54.97.01,82.45.13,28.02.12,56.04.5,84.06.69,12.33.09,24.67.19,36.99-.09,13.87-.3,27.82-.22,41.57-1.76,19.77-2.21,26.16-9.7,30.19-27.02,2.28-9.83,1.96-20.36,2.02-30.57Z"/>
  <path class="cls-1" d="M1097.1,522.56c.41,4.38-1.71,7.15-5.66,8.72-.88.34-1.72.77-4.29,1.94,3.2,2.59,5.97,4.53,8.3,6.89.92.93.86,2.82,1.24,4.27-1.47-.27-3.36-.07-4.35-.91-2.32-1.99-4-4.74-6.34-6.69-1.9-1.58-4.39-2.45-6.62-3.63-.42.36-.84.73-1.26,1.09,0,2.59.28,5.23-.11,7.76-.22,1.47-1.51,2.77-2.32,4.15-.83-1.22-2.36-2.43-2.38-3.66-.1-7.84.03-15.69.32-23.54.1-2.94,1.57-5.02,5.05-4.83,3.75.2,7.56-.12,11.24.46,4.67.73,6.74,3.39,7.18,7.98ZM1090.34,526.51c1.19-.48,2.41-3.06,2.14-4.38-.26-1.28-2.33-2.89-3.77-3.09-3.35-.45-6.81-.14-10.37-.14-.24,3.76-.43,6.65-.72,11.24,4.93-1.34,8.97-2.12,12.72-3.63Z"/>
  <path class="cls-1" d="M1082.27,296.44c.54,12.05.03,24.14.01,36.22-.02,13.46-.2,26.92.07,40.37.21,10.43-3.92,18.3-13.63,21.81-5.32,1.93-11.51,1.89-17.32,1.96-19.84.26-39.68.26-59.52.18-10.24-.05-20.48-.42-30.72-.75-6.7-.22-13.42-.44-20.1-.99-9.54-.77-17.32-8.84-17.5-18.64-.17-9.82.46-19.64.59-29.47.22-16.65.29-33.3.52-49.96.04-2.35.37-4.79,1.06-7.03,2.92-9.48,7.42-12.64,17.32-12.6,3.08.02,6.17-.21,9.25-.15,2.85.06,3.93-1.09,3.98-4,.05-2.76.56-5.57,1.28-8.25,1.42-5.38,6.71-8.59,12.35-7.8,5.21.74,8.08,4.46,8.1,10.53v9.67c9.52,0,18.72.03,27.92-.01,6.47-.02,12.93-.3,19.39-.14,3.24.08,4.24-.75,4.43-4.2.2-3.76,1.05-7.87,2.91-11.08,4.25-7.33,13.9-6.51,17.62,1.27.99,2.08,1.36,4.53,1.65,6.85.27,2.17.06,4.4.06,7.25,3.88,0,7.22.15,10.54-.03,13.04-.7,19.24,7.49,19.74,18.99ZM1078.4,321.38c.06-3.87-1.15-5.38-4.93-5.34-8.41.1-16.83.02-25.24.06-25.94.11-51.87.27-77.81.36-13.71.05-27.43.01-41.56.01-.22,2.04-.72,4.51-.73,6.99-.08,17.23-.1,34.46-.05,51.69.02,8.23,5.73,14.93,13.69,16.1,3.32.49,6.69.82,10.03.84,15.97.09,31.93.06,47.9.06,20.07,0,40.14.03,60.22-.09,2.57-.02,5.34-.44,7.67-1.46,7.92-3.49,10.66-10.13,10.64-18.41-.05-16.94-.08-33.88.17-50.81ZM1078.34,306.85c-.2-3.64.22-7.31-.06-10.94-.64-8.54-5.01-13.39-13.17-14.28-4.15-.45-8.38-.07-12.55-.07-.78,3.74-1.2,7.09-2.2,10.26-1.72,5.47-7.29,8.75-12.9,7.95-4.27-.61-7.79-5.54-7.87-11.08-.04-2.34-.01-4.67-.01-6.75h-51.27c0,2.53.13,4.49-.03,6.42-.47,5.77-4.06,9.63-9.34,10.21-5.63.62-9.36-1.95-11.09-7.99-.83-2.92-1.19-5.97-1.83-9.33-5.22.25-10.23.45-15.24.75-6.51.38-9.76,2.47-11,8.86-1.03,5.29-.54,10.86-.94,16.28-.27,3.61,1.48,4.61,4.69,4.63,10.24.03,20.48.27,30.73.27,22.32.01,44.64-.09,66.96-.12,14.04-.02,28.08-.1,42.11.1,3.97.06,5.21-1.46,5.01-5.17ZM1046.26,289.53c.72-7.43,1.12-14.95.7-22.38-.12-2.11-3.17-5.01-5.48-5.82-3.32-1.16-5.19,2.08-6.4,4.78-.83,1.86-1.3,4.01-1.39,6.05-.2,4.59-.06,9.2-.06,13.8h-.15c0,.56-.03,1.12.01,1.68.3,4.09,2.79,7.3,6.05,7.5,3.91.24,6.4-2.26,6.72-5.61ZM973.89,268.45c.87-5.2-5.1-7.77-8.81-4.81-1.7,1.37-3.67,3.65-3.74,5.59-.25,6.78.07,13.61.59,20.39.26,3.43,2.43,5.64,6.25,5.26,3.99-.39,5.66-2.42,5.69-6.81.03-5.42,0-10.84,0-16.26,0-1.12-.16-2.27.02-3.36Z"/>
  <path class="cls-1" d="M1063.39,530.31c0,4.2.17,8.4-.11,12.58-.07,1.14-1.5,2.19-2.31,3.28-.9-1.06-2.57-2.12-2.57-3.19,0-8.67.24-17.34.64-26,.04-.94,1.53-1.81,2.34-2.7.66,1,1.83,1.98,1.88,3.02.22,4.33.09,8.67.09,13.01h.04Z"/>
  <path class="cls-1" d="M1057.52,348.36c1.27.1,2.48,1.09,3.72,1.68-1.29.75-2.57,2.11-3.89,2.16-6.14.23-12.29.1-18.62.1,0,5.98-.01,11.69,0,17.4,0,.98.42,2.12.04,2.91-.69,1.45-1.83,2.7-2.78,4.03-.74-1.41-2.07-2.79-2.12-4.23-.23-6.54-.11-13.1-.11-19.97h-28.34c0,6.08.1,12.04-.06,18.01-.05,2.16,2.21,5.83-1.77,6.08-3.78.24-2.63-3.59-2.69-5.85-.17-5.88-.06-11.77-.06-18.15h-30.72c0,6.56.12,13.27-.1,19.96-.05,1.42-1.36,2.8-2.09,4.19-.66-1.46-1.85-2.9-1.9-4.38-.21-6.53-.09-13.08-.09-20.13-4.9,0-9.22.17-13.52-.1-1.3-.08-2.54-1.35-3.8-2.08,1.23-.59,2.44-1.6,3.72-1.69,3.21-.22,6.47-.21,9.68.07,3.26.27,4.2-1.22,4.17-4.16-.04-4.06-.03-8.14.26-12.2.07-1.08,1.25-2.08,1.92-3.12.6,1.08,1.65,2.13,1.72,3.25.24,3.92.27,7.86.13,11.79-.1,2.58.74,4.03,3.43,4.06,8.15.1,16.29.17,24.43.27,2.19.03,2.86-1.06,2.82-3.16-.09-4.35-.07-8.71.18-13.05.06-1.06,1.18-2.06,1.82-3.09.74,1.06,2.06,2.08,2.13,3.18.27,4.19.19,8.41.13,12.61-.03,2.19.5,3.34,3.07,3.3,8.37-.14,16.75-.05,26.22-.05,0-5.63-.15-10.66.11-15.66.06-1.16,1.48-2.26,2.28-3.38.57,1.2,1.59,2.38,1.64,3.6.2,4.75.08,9.51.08,14.85,6.48.3,12.73.51,18.96.95Z"/>
  <path class="cls-1" d="M1049.41,536.25c0,.84.31,1.76.06,2.51-.73,2.23-1.67,4.39-2.52,6.58-1.82-1.27-4.07-2.19-5.37-3.86-4.29-5.5-8.24-11.26-13.16-16.71v9.81c0,3.08.18,6.18-.11,9.24-.08.89-1.51,1.64-2.33,2.46-.75-.83-2.16-1.66-2.17-2.5-.11-8.67-.06-17.35.17-26.03.03-1.09,1.37-3.01,2.13-3.02,1.21-.03,2.82.95,3.6,2,4.92,6.59,9.67,13.32,15,20.73,0-7.1-.06-13.22.04-19.34.03-1.77-.71-4.57,2.29-4.3.91.08,2.18,2.83,2.25,4.4.27,6,.11,12.02.12,18.03Z"/>
  <path class="cls-1" d="M1012.98,514.3c2.92-.02,3.61,1.52,2.56,4.46h-16.15v9.17c2.86,0,5.94-.3,8.92.13,1.45.2,2.71,1.75,4.05,2.69-1.33.71-2.61,1.89-3.99,2.03-3.18.3-6.41.09-9.87.09-1.08,8.42-.86,8.7,6.98,8.45,2.51-.08,5.04-.71,7.52-.56,1.21.08,2.34,1.4,3.5,2.16-1.02.92-1.98,2.55-3.07,2.64-5.43.45-10.89.57-16.35.64-2.62.03-3.7-1.66-3.58-4.15.35-7.7.53-15.41,1.25-23.08.14-1.57,2.18-4.07,3.58-4.24,4.82-.6,9.76-.39,14.65-.43Z"/>
  <path class="cls-1" d="M989.01,516.52c.18.71-.26,1.64-.59,2.41-3.5,8.08-6.98,16.18-10.62,24.2-.57,1.25-2.13,3.11-2.94,2.97-1.56-.27-3.63-1.45-4.23-2.8-3.61-8.18-6.96-16.49-10.15-24.84-.41-1.06.58-2.65.92-3.99,1.27.79,3.2,1.3,3.69,2.42,2.22,5.14,4,10.46,6.01,15.68.84,2.21,1.85,4.34,3.17,7.39,3.09-7.53,5.78-14.12,8.48-20.71.59-1.42,1.02-2.97,1.91-4.18.52-.7,2-1.35,2.71-1.1.78.28,1.4,1.58,1.64,2.55Z"/>
  <path class="cls-1" d="M941.78,540.94c.17.38.31.77.89,2.24-.31.12-1.06.69-1.8.68-1.13-.03-3.13-.26-3.25-.75-1.64-7.18-7.12-5.71-12.22-6.06-4.81-.34-6.92,1.39-7.92,5.88-.31,1.41-2.27,2.46-3.47,3.68-.29-1.7-1.28-3.67-.76-5.07,3.18-8.52,6.59-16.96,10.26-25.28.42-.95,3.14-1.62,4.46-1.25,1.39.38,2.8,1.98,3.48,3.4,3.57,7.45,6.91,15.01,10.33,22.53ZM921.74,532.01h10.58c-1.65-4.11-3.13-7.8-4.61-11.5-.43.06-.85.12-1.28.17-1.52,3.67-3.04,7.34-4.69,11.33Z"/>
  <path class="cls-1" d="M921.78,500.17c2.91-.46,8.37,4.64,8.59,9.06-3.69-1.85-6.94-3.37-10.03-5.15-.52-.3-.67-1.81-.45-2.6.17-.59,1.18-1.19,1.89-1.31Z"/>
  <path class="cls-1" d="M861.93,80.57c8.34,2.19,11.72,5.82,10.96,11.91-.71,5.74-6.92,10.44-16.04,10.55-2.28-.79-6.63-1.94-10.59-3.88-1.27-.62-2.52-3.74-2.02-5,1.13-2.82,3.03-.45,4.77.11,4.2,1.34,8.46,2.82,12.79,3.27,3.02.31,5.91-1.73,6.15-5.17.23-3.3-1.94-5.48-5.07-6.43-3.48-1.05-7.12-1.65-10.5-2.95-3.44-1.32-6.71-3.23-6.7-7.7,0-3.57,4.19-9.14,7.78-10.25,5.17-1.6,9.98-.79,14.32,2.48.66.51,1.6,1.14,1.69,1.8.18,1.43-.1,2.91-.19,4.37-1.26-.22-2.91-.02-3.72-.75-3.06-2.76-6.42-4.27-10.35-2.59-1.56.67-3.58,2.4-3.67,3.75-.08,1.33,1.76,3.28,3.23,4.1,2.17,1.2,4.73,1.74,7.16,2.38Z"/>
  <path class="cls-1" d="M832.16,69.04c.38,9.26.49,18.53.49,27.8,0,1.12-1.15,3.15-1.83,3.18-1.45.06-3.44-.5-4.34-1.55-5.86-6.81-11.48-13.83-17.17-20.78-.35-.43-.69-.87-1.89-2.39v12.51c-.01,3.37.15,6.76-.1,10.11-.1,1.3-1.16,2.52-1.78,3.77-1.01-1.3-2.86-2.59-2.88-3.92-.17-8.27.07-16.54.18-24.82.01-.41.1-.84.24-1.23.71-1.97,1.45-3.92,2.19-5.88,1.68,1.36,3.66,2.48,4.98,4.13,5.71,7.11,11.23,14.37,16.81,21.58.28-.06.57-.12.85-.19,0-7.38-.09-14.77.08-22.15.03-1.45,1.04-2.87,1.6-4.3.89,1.38,2.51,2.72,2.57,4.13Z"/>
  <path class="cls-1" d="M793.95,217.29c3.94,14.85,3.55,30.01,3.22,45.18-.32,14.55-.53,29.1-.61,43.65-.14,24.01-.22,48.01-.15,72.02.03,13.99.53,27.99.59,41.99.07,15.67-.13,31.35-.18,47.02-.04,9.11-.01,18.23-.01,27.34h-.21c0,13.88-.07,27.77.01,41.66.16,26.66.54,53.32.57,79.97.03,21.99-.43,43.99-.45,65.98-.01,14.84.6,29.69.5,44.54-.08,12.9-1.65,25.68-10.93,35.67-6.46,6.96-14.88,11.04-24.41,11.77-11.17.87-22.4,1.31-33.61,1.51-14.01.24-28.04.1-42.06.02-15.4-.08-30.79-.41-46.19-.4-13.34.01-26.68.48-40.02.52-20.76.06-41.53.19-62.29-.2-13.15-.26-26.35-.86-39.42-2.31-15.45-1.72-24.02-14.8-25.44-28.95-1.61-16.08-1.43-32.36-1.61-48.56-.29-27.23-.33-54.45-.31-81.68.01-16.95.48-33.91.46-50.87-.03-26.2-.41-52.41-.44-78.61-.02-16.97.47-33.94.45-50.91-.02-25.82-.3-51.63-.43-77.44-.09-18.39-.05-36.77-.18-55.16-.13-17.53-.57-35.06-.54-52.6.01-7.69.47-15.43,1.39-23.06,1.91-15.92,11.67-26.29,28.49-28.99,24.21-3.88,48.62-3.25,72.99-3.45,20.61-.16,41.22-.24,61.83-.42,20.18-.18,40.35-.58,60.52-.62,16.8-.04,33.63-.17,50.4.63,9.43.45,18.84,2.34,28.12,4.26,11.04,2.29,17.15,9.96,19.95,20.5ZM792.71,656.43c.02-25.51.33-51.03.29-76.55-.03-17.23-.61-34.45-.63-51.68-.04-32.51.21-65.03.22-97.55.02-21.31-.22-42.61-.25-63.92-.03-17.41.45-34.84.02-52.24-.71-28.71,2.13-57.44-.79-86.12-.87-8.49-2.01-16.94-9.49-22.53-7.66-5.73-16.8-7.99-26.02-8.59-16.77-1.09-33.61-1.58-50.43-1.71-18.34-.14-36.69.42-55.03.68-20.75.28-41.5.65-62.24.82-16.19.13-32.38.02-51.59.02-3.58.19-10.19.34-16.75.95-6.53.6-13.06,1.5-19.54,2.57-12.51,2.06-24.42,12.81-24.85,25.42-.39,11.2-1.31,22.38-1.42,33.57-.12,11.5.58,23.01.7,34.52.17,17.7.15,35.39.22,53.08.11,26.37.3,52.73.32,79.1.01,15.42-.38,30.83-.34,46.25.02,12.16.53,24.31.61,36.47.1,16.37-.03,32.74-.03,49.11-.02,29.75.04,59.49-.05,89.24-.04,12.33-.67,24.66-.5,36.98.27,19.07-.08,38.24,1.84,57.16,1.88,18.47,7.32,25.15,26.6,27.78,8.86,1.2,17.9,1.19,26.87,1.41,11.04.28,22.08.35,33.12.3,7.01-.04,14.02-.77,21.02-.66,8.1.13,16.18,1.13,24.27,1.22,10.77.12,21.54-.39,32.31-.44,8.55-.04,17.09.28,25.63.29,16.82.03,33.64,0,50.46-.09,13.6-.07,27.21-.06,40.81-.49,8.97-.27,17.24-3.86,23.68-9.68,7.17-6.46,10.19-15.73,10.81-25.29.61-9.35.43-18.75.41-28.13-.02-17.09-.28-34.18-.26-51.27Z"/>
  <path class="cls-1" d="M793.71,82.56c.27,12.48-6.65,18.11-18.99,19.3-11.76-.15-20.01-8.54-15.49-21.41,2.57-7.32,6.79-13.57,14.68-15.43,11.24-2.65,19.54,5.81,19.8,17.54ZM788.02,88.97c2.67-4.38.72-11.74-3.93-16.38-4.09-4.07-7.24-4.6-12.76-1.16-2.25,1.4-4.31,3.75-5.44,6.15-5.25,11.1-2.82,19.58,8.69,19.33,6.67.28,10.56-3.21,13.44-7.94Z"/>
  <path class="cls-1" d="M747.8,69.04c.24,4.61.1,9.23.1,13.85h-.23c0,4.77.17,9.55-.11,14.3-.07,1.28-1.48,2.48-2.28,3.72-.87-1.27-2.45-2.53-2.48-3.81-.19-9.38-.18-18.77.07-28.15.03-1.12,1.86-2.19,2.85-3.28.73,1.12,2.02,2.21,2.08,3.37Z"/>
  <path class="cls-1" d="M733.89,542.13c.13.67-.63,2.03-1.28,2.26-1.95.66-4.03,1.25-6.07,1.25-4.18.01-8.36-.3-12.53-.64-2.84-.23-4.23-1.97-4.16-4.81.2-7.56.22-15.14.81-22.67.11-1.43,2.43-3.67,3.89-3.8,4.42-.4,8.94-.15,13.37.3,1.26.12,2.37,1.79,3.55,2.75-1.22.63-2.41,1.74-3.65,1.8-4.18.23-8.37.09-12.64.09-.29.6-.38.72-.4.84-.99,7.33-.67,7.69,6.6,7.59,1.54-.02,3.13-.28,4.6.03.86.18,1.54,1.26,2.3,1.93-.77.68-1.49,1.83-2.34,1.94-2.63.36-5.32.36-7.99.44-1.8.04-3.95-.43-3.85,2.43.08,2.5-.97,5.83,2.98,6.29,3.61.41,7.27.3,10.91.41,1.27.03,2.57-.18,3.78.07.82.17,1.99.86,2.12,1.5Z"/>
  <path class="cls-1" d="M729.61,65.7c1.05.06,2,1.61,3,2.48-1.01.79-1.93,2.1-3.05,2.28-3.81.62-9.22-.52-11.11,1.6-1.95,2.19-.57,7.41-.55,11.31.02,4.06.33,8.12.15,12.17-.06,1.26-1.31,2.46-2.02,3.69-.93-1.29-2.61-2.54-2.68-3.88-.34-6-.22-12.04-.26-18.06q-.05-6.76-6.98-6.66c-.98.01-2.08.39-2.9.06-1.08-.45-1.94-1.43-2.89-2.19.94-.92,1.84-2.57,2.85-2.64,4.32-.3,8.68-.13,13.02-.13v-.15c4.48,0,8.96-.16,13.42.12Z"/>
  <path class="cls-1" d="M722.38,501.21c.48.17,1.02,1.82.75,2.13-2.18,2.52-4.55,4.88-6.85,7.28l-1.38-.45c-.26-.99-1.06-2.34-.69-2.9,1.46-2.18,3.17-4.25,5.07-6.06.56-.54,2.15-.34,3.1,0Z"/>
  <path class="cls-1" d="M700.31,513.14c.85,1.49,2.44,2.99,2.43,4.49-.04,7.14-.38,14.29-.93,21.41-.14,1.9-1.38,3.71-2.12,5.56-1.63-.91-3.71-1.45-4.8-2.8-3.06-3.81-5.69-7.96-8.52-11.96-1.21-1.71-2.51-3.37-4.29-5.73,0,5.23,0,9.71.01,14.18,0,.27.18.56.15.82-.26,2.34.84,6.03-2.75,5.92-3.29-.11-2.01-3.58-2.06-5.79-.15-6.68-.42-13.37-.34-20.06.02-1.69,1.17-3.37,1.8-5.05,1.46,1.01,3.31,1.73,4.33,3.08,4.68,6.24,9.13,12.65,13.67,19,.36-.13.72-.27,1.08-.41,0-6.15-.15-12.31.1-18.45.06-1.43,1.46-2.81,2.24-4.21Z"/>
  <path class="cls-1" d="M697,97.59c.47,1.2-.27,2.88-.45,4.33-1.32-.75-3.48-1.22-3.82-2.29-1.89-5.86-5.38-8.24-11.45-6.41-.63.19-1.4-.05-2.1-.09-8.1-.5-8.01-.47-10.46,7.1-.34,1.06-2.09,2.3-3.19,2.3-.99,0-1.98-1.59-2.77-2.3,1.6-4.94,2.86-9.09,4.29-13.17,2.44-7,4.92-13.98,7.52-20.92,1.28-3.39,4.28-4.2,6.42-1.23,3.14,4.38,5.62,9.3,7.97,14.18,2.93,6.05,5.55,12.26,8.04,18.5ZM672.02,87.56h15.18c-2.85-6.14-5.36-11.54-7.87-16.95-.43.05-.86.09-1.28.14-1.96,5.46-3.91,10.92-6.03,16.81Z"/>
  <path class="cls-2" d="M687.94,284.03c4.1.1,7.11,3.09,7.05,8.57-.54,1.42-1.04,4.35-2.58,6.54-3.78,5.36-8.05,10.37-12.08,15.54-.7.89-1.38,1.79-2.07,2.69-3.72,4.9-7.31,9.89-11.34,14.52-8.55,9.82-17.46,19.33-26.2,28.98-3.4,3.75-7.92,2.98-10.91.13-8.42-8.01-16.66-16.24-24.66-24.67-3.34-3.52-3.4-7.45-.98-10.29,2.89-3.39,6.27-3.22,10.26-1.63,6.59,2.63,11.07,7.55,15.13,12.93,2.07,2.73,3.68,2.97,5.93.47,8.35-9.27,16.82-18.44,25.09-27.77,4.18-4.71,8.23-9.54,12.31-14.33,1.9-2.25,3.81-4.48,5.74-6.7,2.43-2.8,5.22-5.08,9.31-4.98ZM690.95,291.98c-.7-.97-1.38-2.8-2.23-2.88-1.59-.16-3.85.17-4.82,1.23-3.3,3.6-5.94,7.82-9.25,11.42-12.52,13.64-25.16,27.16-37.85,40.65-3.87,4.12-5.27,3.7-9.08-.44-4.07-4.41-8.52-8.5-13.05-12.45-1.74-1.51-4.59-2.95-6.23-.35-.72,1.14.29,4.27,1.51,5.58,7.16,7.69,14.59,15.11,21.97,22.59,1.95,1.97,4,2.4,6.16.12,2.11-2.24,4.51-4.23,6.5-6.57,13.3-15.71,26.56-31.46,39.75-47.27,1.97-2.36,3.55-5.05,5.16-7.68.64-1.03.87-2.32,1.46-3.95Z"/>
  <path class="cls-1" d="M681.25,316.12c0,11.41.13,22.56-.05,33.7-.08,4.97-.61,9.94-1.23,14.87-1,7.98-5.42,12.2-13.26,14.14-10.76,2.65-21.66,1.91-32.53,1.82-10.07-.08-20.17-1.1-30.21-.64-10.63.48-20.94-10.01-20.8-20.01.26-18.35.51-36.7,1.09-55.04.41-12.93,11.66-20.97,22.65-20.75,17.22.33,34.45.37,51.67.92,3.91.13,8.03,1.29,11.61,2.95,4.39,2.04,4.76,3.53,1.95,6.99-.28.33-.58.69-.91,1.06-2.16-4.49-5.83-6.14-10.35-6.22-14.01-.28-28.02-.77-42.03-.66-6.76.05-13.75.41-20.22,2.16-6.3,1.71-9.4,7.43-9.69,13.89-.37,8.54-.06,17.11-.2,25.67-.14,8.4-.58,16.81-.71,25.21-.12,7.89,2.63,14.41,10.18,17.82,2.46,1.11,5.44,1.46,8.19,1.5,15.41.25,30.82.45,46.23.3,4.68-.05,9.38-1.11,14-2.04,6.6-1.33,9.1-6.24,9.37-12.31.54-11.92.92-23.86.98-35.79.01-2.99.75-5.36,2.36-7.48.53-.71,1.17-1.39,1.91-2.06Z"/>
  <path class="cls-1" d="M667.59,516.96c.21,4.04.09,8.1.09,12.15h-.48c0,4.19.13,8.39-.09,12.57-.06,1.08-1.25,2.09-1.92,3.13-.77-.99-2.17-1.97-2.21-2.98-.21-6.11-.13-12.22-.08-18.33.02-2.24-.01-4.51.42-6.67.19-.92,1.48-1.62,2.28-2.42.69.85,1.94,1.67,1.99,2.55Z"/>
  <path class="cls-1" d="M652.89,519.03c.47,7.25.75,14.52.76,21.79,0,1.38-1.5,2.77-2.32,4.16-.77-1.35-2.16-2.68-2.21-4.06-.24-6.49-.11-12.99-.11-19.49l-1.05-.3c-2.26,2.59-4.45,5.24-6.78,7.78-2.88,3.14-4.7,3.01-7.48-.33-1.57-1.9-3.16-3.78-5.4-6.46,0,6.57,0,12.09,0,17.61,0,.7.36,1.52.1,2.07-.57,1.26-1.42,2.38-2.16,3.56-.85-.98-2.25-1.86-2.44-2.96-.55-3.16-.93-6.42-.81-9.61.19-4.88.74-9.76,1.38-14.61.16-1.2,1.07-2.91,2.02-3.23.92-.31,2.66.56,3.49,1.44,2.67,2.84,5.1,5.93,7.83,9.17,2.71-3.11,5.2-6.34,8.1-9.12,1.22-1.16,3.48-2.1,4.97-1.79,1,.22,2.01,2.8,2.11,4.38Z"/>
  <path class="cls-1" d="M652.44,90.33c.03,2.79.49,5.62.2,8.37-.15,1.33-1.58,2.53-2.42,3.8-.99-1.3-2.76-2.56-2.84-3.91-.34-6.3-.21-12.62-.25-18.93,0-2.04,0-4.07,0-6.98-4.5,4.86-8.57,9.02-12.35,13.43-2.51,2.93-4.52,2.8-6.7-.18-2.59-3.56-5.22-7.08-7.84-10.62-.48.12-.97.24-1.46.36,0,7.63.12,15.26-.1,22.88-.04,1.63-1.29,4.61-2,4.62-2.85.01-3.3-2.39-3.19-4.83.39-8.69.58-17.39,1.28-26.05.17-1.99,2.08-3.84,3.18-5.75,1.85,1.43,4.04,2.59,5.48,4.35,2.82,3.44,5.23,7.21,8.06,11.2,4.35-4.66,8.43-9.03,12.52-13.4.77-.82,1.44-1.85,2.39-2.36,1.28-.68,3.04-1.61,4.12-1.2.95.36,1.71,2.42,1.74,3.75.2,7.14.11,14.3.18,21.45Z"/>
  <path class="cls-1" d="M613.51,514.38c4.89,2.55,5.71,7.87,1.95,11.92-1.74,1.89-4,3.3-6.09,4.98,1.71,4.57,7.4,7.23,7.82,13.58-5.65-1.17-7.86-5.36-10.49-8.77-2.26-2.93-4.69-4.16-8.71-2.94,0,2.68.26,5.23-.11,7.69-.21,1.42-1.45,2.69-2.22,4.02-.8-1.23-2.25-2.45-2.28-3.7-.21-7.85-.24-15.71,0-23.56.05-1.47,1.38-3.92,2.48-4.15,5.9-1.19,12.01-2.01,17.65.93ZM610.85,524.16c2.75-1.46,2.66-4.75.16-5.62-4.12-1.45-8.46-2.72-12.75-.63v10.89c4.75-1.69,8.92-2.69,12.59-4.64Z"/>
  <path class="cls-1" d="M603.16,101.26c-.28.36-.55.72-.83,1.08-1.82-1.04-3.86-1.83-5.4-3.18-2.62-2.3-5.51-4.62-7.25-7.54-2.72-4.6-6.63-4.66-10.86-3.96-1,.17-2.34,1.78-2.48,2.86-.36,2.76.07,5.61-.22,8.39-.13,1.26-1.19,2.42-1.83,3.63-.91-1.19-2.48-2.32-2.61-3.59-.39-4.02-.34-8.11-.29-12.17.06-6.01.27-12.02.42-18.04.06-2.71,1.47-4.17,4.18-4.18,6.41-.02,12.83-.18,19.23.1,4.29.19,6.36,3.18,6.92,7.21.62,4.48.4,8.79-3.93,11.53-1.86,1.18-4.01,1.93-6.2,2.95,2.87,5.82,9.42,8.66,11.15,14.91ZM597.34,74.21c.41-2.72-1.84-4.16-4.47-4.52-2.07-.28-4.2-.76-6.24-.54-12.65,1.36-10.08-1.72-10.42,10.29-.02.82.09,1.64.2,3.67,6.21-1.19,12.01-1.94,17.54-3.57,1.57-.46,3.09-3.36,3.39-5.33Z"/>
  <path class="cls-1" d="M588.05,542.35c-.94.82-1.83,2.29-2.82,2.36-5.56.39-11.16.65-16.72.44-1.08-.04-2.92-2.34-2.96-3.65-.26-8-.15-16.01-.06-24.01.03-3.33,2.06-5.26,5.2-5.48,4.06-.28,8.17-.33,12.21.06,1.4.13,2.65,1.87,3.97,2.88-1.31.61-2.6,1.68-3.95,1.75-4.04.24-8.11.09-12.41.09-.18.77-.29,1.04-.29,1.32-.21,7.37-.2,7.16,7.15,7.52,2.17.1,6.18,2.3,6.09,2.63-.95,3.39-3.96,2.55-6.53,2.4-2.08-.11-4.16-.33-6.68-.54v10.14c3.93,0,7.9.01,11.86-.01.96-.01,2.04-.47,2.83-.14,1.15.47,2.08,1.46,3.11,2.24Z"/>
  <path class="cls-1" d="M543.95,64.61c10.8-.37,19.06,5.04,17.72,17.9-.78,7.48-3.03,13.13-8.9,17.43-6.11,4.47-12.54,3.11-18.7.29-5.73-2.62-7.32-7.66-6.75-13.64.58-6.12,2.43-11.67,6.34-16.55,3.02-3.76,6.51-6.15,10.29-5.43ZM536.46,95.8c10.63,6.26,21.73-3.41,20.53-12.79,0-1.12.09-2.25-.01-3.36-.44-4.69-4.44-9.71-8.89-10.59s-8.08.44-10.89,4.43c-3.46,4.92-5.16,10.34-4.79,16.12.15,2.18,2.09,5.04,4.05,6.19Z"/>
  <path class="cls-1" d="M558.01,512.03c.91,0,1.83,1.54,2.74,2.36-.97.79-1.89,2.17-2.92,2.27-3.19.3-6.42.11-10.25.11,0,5.88.05,11.43-.01,16.97-.04,3.08-.04,6.19-.51,9.21-.15.98-1.77,1.72-2.71,2.57-.76-.88-2.05-1.71-2.15-2.67-.22-2.03.29-4.13.31-6.21.06-6.31.02-12.62.02-19.77-3.55.18-6.6.6-9.61.37-1.48-.11-2.87-1.44-4.29-2.22,1.25-.84,2.48-2.37,3.77-2.43,8.53-.4,17.07-.56,25.61-.56Z"/>
  <path class="cls-1" d="M518.57,63.36c1.22.04,2.38,1.58,3.58,2.42-1.23.81-2.41,2.25-3.68,2.33-5.16.31-10.34.12-15.5.36-.83.04-2.21,1.28-2.28,2.06-.27,3.02-.11,6.08-.11,9.41,4.06,0,7.7-.29,11.27.14,1.52.18,2.86,1.85,4.28,2.84-1.5.65-3.02,1.91-4.5,1.86-11.2-.43-11.19-.51-10.53,10.74.1,1.82.41,3.71.03,5.44-.23,1.05-1.6,1.85-2.46,2.76-.77-.84-1.76-1.56-2.23-2.54-.4-.82-.2-1.93-.23-2.91-.34-9.92-.58-19.84-1.06-29.76-.17-3.46,1.39-5.07,4.55-5.14,6.29-.16,12.59-.23,18.87-.01Z"/>
  <path class="cls-1" d="M441.81,79.04c7.6,1.67,11.82,6.31,11.2,12.36-.62,6.08-6.27,10.53-13.54,10.65-.42.01-.84.01-1.53.01-4.91.77-8.73-1.89-11.88-5.38-.98-1.07-.58-3.39-.81-5.14,1.52.42,3.43.4,4.49,1.35,4.03,3.58,8.51,5.27,13.48,2.96,1.91-.88,3.98-3.45,4.16-5.42.14-1.68-1.95-4.21-3.71-5.25-2.45-1.45-5.48-2.02-8.33-2.68-6.42-1.5-9.51-4.49-9.07-9.07.54-5.6,5.99-10.43,11.97-10.27,4.52.12,8.6,1.58,10.93,5.82.48.89-.01,2.3-.05,3.47-1.02-.12-2.18.02-3.04-.43-1.6-.84-2.89-2.53-4.54-2.92-2.04-.49-4.54-.58-6.39.21-1.47.62-3.05,2.78-3.13,4.33-.06,1.21,1.88,2.98,3.32,3.7,1.96.97,4.29,1.22,6.47,1.7Z"/>
  <path class="cls-1" d="M433.92,382.97c.02,16.42.53,32.83.49,49.25-.06,19.76-.61,39.52-.69,59.28-.06,13.31.45,26.63.46,39.94.03,27.78-.07,55.57-.17,83.35-.09,26.32-.33,52.65-.33,78.98,0,14.3.91,28.61.44,42.89-.38,11.36-4.38,22.14-13.43,29.31-4.89,3.87-11.87,6.24-18.17,6.98-13.33,1.57-26.83,1.98-40.27,2.21-24.11.42-48.23.45-72.34.46-16.3.02-32.59-.37-48.88-.4-11.36-.02-22.72.38-34.07.39-13.04.01-26.07-.11-39.1-.37-12.45-.24-24.9-.61-37.34-1.12-18.13-.74-26.78-11.31-30.6-27.3-2.11-8.85-1.63-18.32-2.25-27.52-.15-2.38-.02-4.77-.02-7.15.27,0,.54,0,.81,0,0-12.62-.1-25.23,0-37.84.27-29.89.83-59.78.9-89.66.05-21.73-.61-43.45-.73-65.17-.14-25.12-.04-50.25-.04-75.37,0-26.77.08-53.55-.02-80.32-.12-34.4-.55-68.8-.5-103.2.02-11.61.77-23.26,1.78-34.84.79-9.11,5.01-17.57,11.59-23.22,5.05-4.34,12.72-6.76,19.54-7.67,13.15-1.77,26.52-2.18,39.82-2.61,16.97-.54,33.97-.83,50.95-.7,24.7.18,49.39,1.02,74.08,1.23,16.39.14,32.79-.53,49.18-.47,18.39.06,36.78.79,55.17.76,20.2-.04,30.48,15.78,31.7,29.83,1.33,15.45,1.48,31.02,1.76,46.55.42,23.85.63,47.71.71,71.57.06,13.98-.46,27.96-.44,41.94ZM430.09,735.15c.93-22.26-.35-44.62-.38-66.93-.02-21.72.41-43.44.48-65.16.04-14.17-.25-28.34-.3-42.51-.05-18.94,0-37.87-.02-56.8-.03-23.71-.12-47.42-.12-71.12.01-20.16.1-40.31.17-60.46.04-12.6.12-25.21.14-37.81.04-22.87.21-45.75,0-68.62-.12-13.17-.16-26.41-1.57-39.48-1.19-10.96-5.26-21.34-16.7-25.87-4.83-1.91-10.3-2.79-15.52-2.97-17.68-.62-35.38-.83-53.08-.97-22.02-.18-44.05-.14-66.08-.17-27.36-.04-54.72-.38-82.08.04-20.82.32-41.65,1.35-62.44,2.65-6.75.43-13.93,1.84-18.76,7.31-6.98,7.91-10.75,17.31-10.97,27.99-.33,16.94-.99,33.87-.95,50.81.07,29.32.69,58.63.86,87.95.14,23.46-.08,46.91-.03,70.37.03,11.07.53,22.14.45,33.2-.1,14.58-.86,29.16-.82,43.73.06,22.58.65,45.15.83,67.73.14,17.26.17,34.52-.06,51.78-.31,23.56-.92,47.12-1.4,70.69h.26c0,7.59-.43,15.21.14,22.75.46,6.06,1.4,12.29,3.46,17.96,2.66,7.31,6.96,14.19,15.31,16.05,7.76,1.73,15.74,3.07,23.66,3.35,19.07.68,38.16.8,57.24.81,11.35.02,22.71-.89,34.06-.84,16.39.07,32.77.94,49.15.9,14.14-.04,28.32-1.71,42.43-1.18,23.22.88,46.45,1.59,69.55-.49,20.64-1.85,32.16-12.43,33.09-34.69Z"/>
  <path class="cls-1" d="M415.9,98.6c-1.58,1.02-3.11,2.81-4.76,2.91-5.31.34-10.66.15-16,.01-3.7-.1-5.52-1.92-5.41-5.88.23-8.42.32-16.86.19-25.28-.06-3.72,1.48-5.62,5.02-5.82,4.33-.25,8.68-.45,13.01-.24,1.06.05,2.05,1.76,3.07,2.7-.99.83-1.88,2.21-2.97,2.39-3.03.5-6.16.82-9.22.63-3.44-.22-4.55,1.05-4.16,4.32.21,1.78.03,3.6.03,5.61,4.3,0,7.95-.27,11.54.13,1.58.17,3.02,1.72,4.52,2.64-1.29.76-2.5,1.94-3.89,2.21-3.83.73-7.74,1.09-12.35,1.69-.11,2.4-.52,5.16-.22,7.84.1.87,2.04,2.17,3.15,2.18,4.48.05,8.98-.58,13.45-.43,1.69.05,3.34,1.55,5,2.39Z"/>
  <path class="cls-1" d="M399.99,675.35c.32,11.74.76,23.51.33,35.24-.28,7.89-1.36,15.89-3.25,23.56-1.7,6.91-8.11,10.08-14.1,12.93-10.33,4.9-21.59,4.43-32.61,5.03-6.02.33-12.07.06-18.1.06,0,.2,0,.4-.01.6-10.37,0-20.75.12-31.13-.03-18.5-.26-36.99-.84-55.49-.99-14.83-.11-29.66.36-44.48.33-12.33-.03-24.8.68-36.95-.88-20.26-2.59-33.41-13.26-33.23-35.94.13-16.51.91-33.03,1.78-49.52.54-10.24,2.93-20.26,13.12-25.13,5.63-2.69,12.26-4.29,18.5-4.51,22.95-.8,45.93-.82,68.89-1.11,15.7-.2,31.39-.42,47.09-.51,26.36-.14,52.73-.38,79.09-.14,7.5.06,15.07,1.18,22.46,2.61,5.63,1.1,10.02,4.49,12.95,9.85,4.92,9.01,4.87,18.8,5.14,28.55ZM395.15,694.52c.45-.01.91-.03,1.37-.05-.79-11.72-1.2-23.49-2.52-35.15-.79-6.91-3.31-13.95-10.62-16.48-6.4-2.21-13.31-3.84-20.04-4.02-16.38-.44-32.78.24-49.17.22-19.21-.01-38.42-.35-57.63-.4-11.9-.03-23.8.19-35.7.33-21.43.25-42.9-.94-64.23,2.62-10.28,1.71-18.21,8.11-18.96,18.36-1.33,18.01-2.08,36.09-2.36,54.15-.14,9.33,1.19,19.03,9.92,24.72,5.37,3.5,11.58,6.26,17.8,7.76,5.86,1.41,12.22.89,18.36.91,29.73.12,59.46.15,89.19.17,28.19.02,56.38.24,84.55-.19,8.03-.12,16.23-1.48,23.99-3.59,8.93-2.42,15.51-8.29,15.95-18.31.44-10.33.1-20.7.1-31.05Z"/>
  <path class="cls-2" d="M377.37,457.19c12.53.17,21.11,7.25,19.89,20.19-.54,5.72-2.92,11.1-8.6,13.45-4.59,1.9-9.62,3.66-14.5,3.81-18.91.6-37.84.55-56.76.7-8.39.06-16.77.01-25.16.01v.94c-21.18,0-42.36.06-63.54-.02-18.89-.07-37.78-.24-56.67-.49-6.29-.08-12.81.47-18.8-1-9.84-2.42-16.02-7.6-17.59-15.91-1.92-10.16,6.19-18.63,14.37-19.95,7.93-1.28,16.13-1.12,24.22-1.26,15.02-.26,30.04-.39,45.05-.38,25.33,0,50.67.25,76,.21,27.36-.05,54.73-.68,82.09-.3ZM393.18,477.79c.07-6.1-2.05-11.48-8.45-13.6-3.94-1.3-8.11-2.67-12.17-2.68-27.24-.05-54.47.28-81.7.44-17.52.1-35.04.14-52.57.2-1.12,0-2.24-.23-3.36-.23-.97.01-1.94.19-4.13.41,6.48,1.83,10.98,4.04,12.06,10.04,1.63,9.05-3.05,14.79-9.25,18.51,23.98,0,48.83-.07,73.68.02,17.39.06,34.79.7,52.17.33,8.31-.17,16.71-1.56,24.83-3.43,4.61-1.07,8.83-4.46,8.89-10.01ZM206.08,462.55c-4.23-1.5-6.58-.42-7.04,4.57,2.8-1.81,4.92-3.19,7.04-4.57ZM163.69,491.41l9.66-10.02c-.34-.33-.68-.66-1.02-.98-3.19,3.36-6.38,6.73-9.57,10.1l.93.9ZM152.96,472.01c2.92-3.2,5.85-6.41,8.77-9.61-.46-.4-.91-.81-1.36-1.22-2.75,3.37-5.5,6.74-8.25,10.1.28.24.56.49.84.73Z"/>
  <path class="cls-1" d="M379.56,97.29c.03,1.48-1.43,2.99-2.21,4.48-.87-1.33-2.35-2.6-2.5-4.01-.93-8.59-1.57-17.21-2.35-26.42-3.22,4.55-6.08,8.69-9.05,12.75-3.21,4.39-5.17,4.4-8.31.02-2.27-3.17-4.36-6.46-7.49-9.64-.6,7.67-1.21,15.34-1.8,23.01-.03.42.22.93.06,1.25-.69,1.28-1.49,2.5-2.25,3.75-.89-1.21-2.55-2.42-2.54-3.62.07-6.02.43-12.05.99-18.05.43-4.6,1.13-9.19,2.11-13.69.33-1.51,1.91-2.75,2.91-4.12,1.2,1.05,2.73,1.89,3.53,3.18,2.99,4.86,5.74,9.88,9.09,15.72,3.41-5.79,6.06-10.69,9.15-15.31,1-1.49,3.36-3.3,4.68-3.01,1.46.31,3,2.7,3.49,4.47.86,3.07,1.07,6.35,1.32,9.56.51,6.55,1.02,13.12,1.17,19.68Z"/>
  <path class="cls-2" d="M379.09,391.02c.25.9-.57,2.09-.9,3.15-.84-.53-2.03-.86-2.47-1.63-7.47-12.99-14.6-26.2-22.39-39.01-3.54-5.83-8.41-10.85-12.55-16.33-2.76-3.66-4.87-7.65-9.37-9.9-7.43-3.71-11.95-3.23-17.48,3.08-2.87,3.28-5.3,6.96-8.38,10-2.51,2.5-1.96,4.4-.26,6.86,7.77,11.18,15.45,22.42,23.17,33.63,1.51,2.19,3.18,4.29,4.58,6.56,3.41,5.52,2.61,9.05-3.38,11.14-4.12,1.44-8.74,1.93-13.15,1.96-17.95.14-35.9-.06-53.85-.12-25.96-.08-51.91-.15-77.87-.19-7.02-.01-14.04.24-21.06.1-7.07-.15-11.31-6.24-8.03-12.47,4.75-9.03,10.07-17.83,15.78-26.3,13.34-19.76,26.99-39.33,40.68-58.86,4.51-6.41,9-12.98,14.45-18.56,11.75-12.05,26.1-9.5,35.83,3.78,8.69,11.86,17.15,23.89,25.96,35.66,3.84,5.13,8.31,9.8,12.65,14.86,2.8-3.3,5.59-6.43,8.2-9.71,10.69-13.42,24.25-7.46,31.88,1.47,8.02,9.4,15.04,19.49,20.88,30.44,4.54,8.53,9.77,16.69,14.64,25.05.98,1.7,1.94,3.48,2.44,5.34ZM327.16,394.52c4.31-1.21,4.42-2.11,1.88-5.74-6.66-9.53-13.26-19.1-19.99-28.58-9.73-13.71-19.46-27.41-29.36-41-7.68-10.53-15.45-21.01-23.48-31.27-6.37-8.14-14.63-9.62-22.86-3.24-5.4,4.19-9.91,9.82-13.95,15.43-14.55,20.25-28.82,40.71-43.01,61.22-5.66,8.18-10.98,16.6-16.17,25.09-3.07,5.01-1.28,8.57,4.25,9.36,2.08.3,4.18.59,6.28.59,24.28.04,48.57.03,72.85.03v-.04c24.14,0,48.29.07,72.44-.08,3.72-.03,7.53-.76,11.12-1.77Z"/>
  <path class="cls-1" d="M365.1,590.3c2.61,1.79,5.18,4.19,4.21,7.99-1.06,4.15-3.89,6.93-8.01,7.77-4.75.97-9.27-.34-13.02-3.34-.88-.71-.64-2.81-.91-4.27,1.33.11,2.71.04,3.98.37,2.87.74,5.66,2.07,8.55,2.34,1.31.13,3.83-1.59,3.96-2.7.18-1.53-.96-3.82-2.27-4.78-1.82-1.35-4.37-1.69-6.54-2.61-3-1.28-5.98-2.62-6.02-6.66-.04-4.42,2.73-6.96,6.15-8.79,3.21-1.73,6.59-1.3,9.42,1.03,2.08,1.71,3.08,3.85,1.22,6.09-2.61-1-4.76-2.44-6.91-2.45-1.67-.01-3.35,1.77-5.03,2.76,1.09,1.25,1.96,2.89,3.32,3.66,2.5,1.43,5.55,1.97,7.9,3.59Z"/>
  <path class="cls-1" d="M368.96,681.48c-.91,1.25-1.67,3.39-2.77,3.58-3.23.55-6.73.95-9.87.26-3.86-.85-6.66-3.75-7.27-7.87-.7-4.69,1.74-9.06,5.62-10.76,3.79-1.67,7.77-2.55,10.82,1.01,1.37,1.59,2.33,4.3,2.03,6.3-.18,1.21-3,2.58-4.81,2.89-2.85.48-5.85.12-9.2.12,2.3,5.18,5.59,5.91,15.45,4.47ZM354.65,672.78h9.55c-3.05-4.84-6.43-4.72-9.55,0Z"/>
  <path class="cls-2" d="M355.46,275.86c.55,12.93-12.93,26-26.08,25.7-17.44-.4-27.98-10.2-28.38-25.24-.42-15.91,12.28-30.91,26.94-29.22,18.44-1.01,26.86,13.13,27.52,28.76ZM351.18,275.27c.31-13.05-9.16-23.9-20.77-24.12-14.59-.28-26.06,10.75-25.66,25.48.25,8.87,8.61,20.37,24.72,20.56,12.09,1.34,21.5-12.87,21.71-21.92Z"/>
  <path class="cls-1" d="M344.85,666.67c-.49,1.01-.92,2.05-1.49,3.01-.18.3-.72.41-1.12.54-4.68,1.5-7.3,4.32-6.54,9.6.26,1.79.17,3.66-.06,5.46-.09.74-1.15,2.01-1.49,1.92-.9-.22-2.33-1.04-2.34-1.65-.17-6.18-.15-12.36,0-18.53.02-.56,1.72-1.68,1.92-1.54,1.07.77,1.91,1.86,2.91,2.91,1.5-.81,3.14-1.98,4.96-2.56.9-.29,2.15.53,3.25.84Z"/>
  <path class="cls-1" d="M341.15,721.83c0,1.95.22,3.95-.09,5.85-.15.95-1.28,1.73-1.96,2.59-.77-.82-2.12-1.58-2.2-2.45-.27-3.34-.23-6.72-.13-10.08.07-2.44-.15-4.63-3.12-4.96-2.91-.33-6.87,2.76-6.93,5.33-.07,3.08.2,6.17-.03,9.22-.07,1-1.28,1.9-1.96,2.85-.76-.95-2.16-1.9-2.16-2.85.03-5.02.2-10.06.75-15.05.23-2.13.64-5.78,4.37-2.3.28.25,1.42-.36,2.13-.64,6.82-2.67,10.83.03,11.03,7.44.05,1.68.01,3.36.01,5.04.1,0,.19,0,.29,0Z"/>
  <path class="cls-1" d="M339.87,600.84c.91,1.23.93,3.11,1.36,4.7-1.51-.48-3.38-.55-4.46-1.5-2.3-2.03-4.38-4.36-6.18-6.84-1.82-2.51-3.87-3.45-7.35-2.15,0,2.61.17,5.13-.09,7.6-.1.99-1.16,1.89-1.79,2.83-.83-.9-2.34-1.76-2.4-2.71-.53-7.8-.93-15.61-.96-23.41-.01-1.17,1.97-3.2,3.21-3.35,3.58-.45,7.27-.3,10.9-.08,5.22.32,7.32,2.17,8.23,6.74.76,3.79-1.04,6.99-5.11,9.09-.6.3-1.21.58-2.38,1.14,2.52,2.8,4.99,5.2,7.02,7.94ZM333.56,587.46c1.19-.53,2.39-3.05,2.09-4.32-.28-1.25-2.36-2.66-3.84-2.92-2.67-.47-5.48-.14-8.47-.14v10.32c3.81-1.03,7.2-1.58,10.22-2.94Z"/>
  <path class="cls-1" d="M324.81,656.48c.13,9.26.1,18.53-.02,27.8-.01.88-.95,1.74-1.46,2.62-1.08-.66-2.15-1.31-3.45-2.11-5.42,2.48-9.59,2.12-12.62-1.3-3.13-3.55-3.86-9.15-1.68-12.93,2.71-4.69,6.89-5.91,15.05-4.04,0-3.61-.18-6.84.11-10.02.09-1,1.44-1.88,2.21-2.81.65.93,1.85,1.85,1.86,2.79ZM313.71,681.64c4.28-.16,7-2.51,6.98-6.01-.02-3.15-2.72-5.96-5.69-5.93-3.28.03-6.64,2.9-6.72,5.72-.09,3.19,2.64,6.32,5.43,6.22Z"/>
  <path class="cls-1" d="M308.74,708.45c5.5.19,8.81,4.49,8.62,11.23-.16,6.29-3.76,10.4-9.07,10.36-6.44-.04-10.52-4.26-10.33-10.68.2-6.49,4.77-11.11,10.78-10.91ZM313.92,719.42c.02-3.38-2.77-6.85-5.52-6.87-2.78-.02-6.18,3.71-6.26,6.87-.1,3.45,2.25,5.77,5.76,5.69,3.45-.08,6.01-2.5,6.02-5.69Z"/>
  <path class="cls-1" d="M305.82,530.49c4.06.02,7.15,3.59,7.11,8.23-.04,4.38-2.72,6.74-7.71,6.8-3.93.04-6.46-2.59-6.4-6.66.07-4.82,3.05-8.39,7-8.37ZM309.16,538.29c-1.39-1.24-2.33-2.08-3.26-2.91-.78.96-2.14,1.89-2.18,2.88-.04.94,1.28,1.95,2.01,2.93.97-.82,1.95-1.65,3.43-2.9Z"/>
  <path class="cls-1" d="M310.39,579.84c.16,5.87.32,11.79-.3,17.62-.58,5.5-4.82,8.74-10.07,8.79-6.52.06-10.1-2.28-10.75-8.59-.67-6.56-.15-13.24-.15-19.87.48-.21.95-.42,1.42-.63.72,1.52,1.88,2.98,2.07,4.56.53,4.44.66,8.91.96,13.37.28,4.06,2.47,6.41,6.19,6.16,3.58-.24,5.51-2.53,5.71-6.07.28-5.02.34-10.05.69-15.05.08-1.11,1.02-2.15,1.56-3.22.93.98,2.65,1.93,2.67,2.93Z"/>
  <path class="cls-1" d="M305.92,516.43c-.33.38-.65.76-.98,1.14-.3.77-.5,1.61-.92,2.31-4.64,7.65-9.18,15.37-14.08,22.85-.87,1.33-3.24,1.68-4.91,2.48.17-1.79-.2-3.89.62-5.3,4.37-7.48,8.96-14.82,13.68-22.08.77-1.17,2.47-1.92,3.9-2.39.71-.23,1.78.62,2.69.99Z"/>
  <path class="cls-1" d="M299.95,683.47c.02.93-1.57,1.89-2.41,2.83-.72-.97-1.96-1.9-2.06-2.93-.31-3.2,0-6.45-.3-9.65-.18-1.91.02-4.52-3.17-4.49-2.86.02-6.84,3.04-6.91,5.33-.07,2.38.34,4.82-.08,7.13-.27,1.45-1.67,2.7-2.55,4.04-.59-1.35-1.63-2.69-1.67-4.06-.13-4.46.01-8.92.26-13.38.07-1.21.89-2.38,1.37-3.58,1.19.66,2.38,1.31,3.69,2.04,1.82-.63,3.6-1.52,5.47-1.84,4.49-.75,6.59.63,7.3,5.22.69,4.4.97,8.89,1.06,13.34Z"/>
  <path class="cls-1" d="M294.06,725.53c.18.94-2.83,2.54-4.45,3.75-.39.29-1.05.22-1.62.33-.24,2.4-.13,4.45-.75,6.23-.34.95-1.95,1.46-2.99,2.17-.4-1.11-1.4-2.4-1.12-3.27,1.08-3.28.41-5.33-2.63-7.33-4.35-2.87-4.88-8.8-1.87-13.94,2.75-4.71,7.52-6.25,12.63-3.8,1.2.58,1.96,2.05,2.91,3.11-1.46.42-3.13,1.51-4.35,1.13-3.52-1.1-6.04-.3-7.86,2.81-2.49,4.29-.73,7.82,4.2,8.35.94.1,1.92-.32,2.88-.28,1.77.07,4.35-2.81,5.02.74Z"/>
  <path class="cls-1" d="M290.46,522.12c.12,4.28-3.21,7.34-7.94,7.3-3.69-.04-6.49-2.93-6.52-6.74-.03-3.91,3.87-8.11,7.54-8.13,3.58-.02,6.81,3.51,6.92,7.57ZM285.49,522.08c.19-.77-1.1-1.91-2.22-3.63-1.08,1.83-2.06,2.87-2.25,4.04-.1.6,1.59,2.15,1.81,2.03,1.06-.57,2.41-1.43,2.66-2.44Z"/>
  <path class="cls-1" d="M269.98,576.78c8.78.1,12.72,4.67,12.64,14.63-.08,9.18-5.39,14.93-13.64,14.75-7.25-.15-12.57-6.21-12.43-14.14.13-7.56,6.97-15.32,13.43-15.24ZM272.92,600.71c3.86-1.41,5.35-4.68,4.84-10.33-.37-2.26.71-6.89-4.54-8.51-4.42-1.37-8.56.74-10.9,5.5-2.05,4.15-1.55,9.34,1.21,12.13,2.79,2.84,6.25,2.36,9.39,1.21Z"/>
  <path class="cls-1" d="M272.81,668.67c3.04,4.14,1.48,7.84-3.59,8.23-3.19.25-6.41.05-10.14.05,2.3,4.55,5.55,5.54,10.7,4.26,1.33-.33,2.86.1,4.3.18-1.08,1.28-1.9,3.19-3.26,3.73-8.57,3.35-16.71-2.46-15.89-11.13.38-4.03,3.27-7.29,7.72-8.4,3.94-.98,7.56-.47,10.16,3.08ZM260.15,672.5h10.49c-3.13-5.03-7.46-4.82-10.49,0Z"/>
  <path class="cls-1" d="M266.93,709.15c3.54.96,5.72,3.16,5.43,6.93-.31,3.97-3.82,3.99-6.59,4.5-2.28.42-4.66.31-7.11.44,1.84,4.07,4.43,5.14,8.56,4.23,1.57-.35,3.32.05,4.98.11-1.24,1.27-2.26,3.04-3.77,3.7-4.54,2-9.22.54-12.36-3.4-3.19-3.99-3.34-8.91-.4-13.22,2.38-3.48,6.31-4.62,11.26-3.29ZM268.74,715.82c-3.58-4.45-7.1-4.1-11,1.28,3.93-.46,7.2-.84,11-1.28Z"/>
  <path class="cls-1" d="M266.63,533.52c.83,6.69-3.37,12.87-9.49,12.77-3.56-.06-7.14-1.78-10.58-3.09-.64-.24-.68-2.05-.99-3.13,1.06-.24,2.2-.85,3.16-.64,1.47.31,2.83,1.73,4.22,1.7,2.62-.06,5.86-.06,7.64-1.54,1.27-1.05,1.57-5.26.49-6.64-1.27-1.61-4.57-2.48-6.87-2.28-5.99.51-7.18-.31-6.91-6.42.09-1.82.28-3.66.07-5.46-.49-4.25,1.66-5.44,5.45-5.32,2.65.09,5.35-.53,7.94-.17,1.5.2,2.81,1.72,4.21,2.65-1.4,1.05-2.73,2.2-4.23,3.09-.45.27-1.33-.24-2.03-.34-6.3-.92-7.74.62-6.58,7.41,1.22,0,2.21.11,3.16-.02,6.56-.85,10.64,1.81,11.34,7.43Z"/>
  <path class="cls-1" d="M252.43,578.77c.63.83.9,2.46.48,3.35-.28.61-1.99.59-3.08.78-.22.04-.5-.22-.76-.34-5.66-2.65-8.73-2.52-11.01.45-3.41,4.44-4.02,12.81-.85,16.17,3,3.17,6.81,2.38,10.61,1.55,1.61-.35,3.39,0,5.09.05-1.51,1.56-2.77,4.03-4.58,4.55-10.89,3.1-17.32-2.12-17.32-13.63-.01-11.65,7.86-18.06,18.2-14.75,1.17.37,2.53.91,3.22,1.82Z"/>
  <path class="cls-1" d="M252.9,666.52c-.43.64-.74,1.71-1.3,1.86-6.97,1.9-8.74,6.69-7.71,13.23.19,1.2-.09,2.48-.16,3.72-3.36.93-3.91-1.19-3.96-3.39-.09-4.72-.02-9.46.13-14.18.03-.81.91-2.31,1.24-2.27,1.15.16,2.23.84,3.5,1.39,1.43-.61,3.28-1.7,5.26-2.09.85-.17,1.99,1.11,3,1.73Z"/>
  <path class="cls-1" d="M247.45,701.8c.31,8.05.46,16.11.43,24.16,0,1.13-1.34,2.24-2.06,3.36-.91-1.1-2.53-2.14-2.62-3.31-.32-4.16-.12-8.37-.12-12.56h-.04c0-3.91-.2-7.83.11-11.72.1-1.2,1.58-2.29,2.43-3.43.65,1.17,1.82,2.31,1.87,3.5Z"/>
  <path class="cls-1" d="M240.34,536.97c-1.42,1.33-2.85,2.67-4.07,3.81-.88,2.11-1.75,4.18-2.61,6.25-1.29-2.16-2.58-4.33-3.87-6.5.27-.41.53-.83.8-1.24-4.83,0-9.67.08-14.51-.06-1.1-.03-3.01-.66-3.11-1.25-.21-1.34.02-3.19.84-4.21,5.1-6.3,10.38-12.46,15.71-18.58.59-.67,2.33-1.3,2.74-.97.98.79,1.95,2.11,2.08,3.31.58,5.13.86,10.29,1.18,14.47,2.16,2.22,3.49,3.59,4.82,4.97ZM219.39,534.46h11.65c-.26-4.52-.49-8.49-.77-13.38-3.93,4.83-7.26,8.93-10.88,13.38Z"/>
  <path class="cls-1" d="M224.84,664.6c6.14-.04,11.42,5.35,11.14,11.26-.28,5.94-5.98,11.09-11.88,10.72-1.23-.08-2.45-.23-4.04-.38,0,3.09.2,5.63-.09,8.11-.12.97-1.33,1.81-2.04,2.71-.64-.95-1.81-1.89-1.82-2.86-.18-8.96-.2-17.93-.1-26.9.01-.76,1.1-2.04,1.85-2.17,2.29-.41,4.65-.47,6.98-.49ZM231.24,676c.09-3.48-2.7-6.41-6.19-6.5-4.61-.12-4.83.15-5,6.46.32,2.46-1.71,6.39,3.67,6.4,3.85.01,7.42-2.9,7.52-6.36Z"/>
  <path class="cls-1" d="M223.28,725.3c.82.95,1.69,1.85,2.53,2.77-1.06.74-2.59,2.35-3.11,2.07-4.64-2.49-9.4-.06-14.03-.69-3.08-.42-4.49-2.27-4.73-5.42-.25-3.37,1.06-5.48,4.22-6.25,2.68-.65,5.45-.93,8.77-1.48-1.2-4.08-3.59-4.25-6.66-3.66-1.35.25-2.86-.36-4.29-.58,1.14-.97,2.14-2.46,3.45-2.82,7.24-1.96,10.95.82,11.42,8.3.1,1.68-.14,3.42.27,5.02.26,1.03,1.38,1.86,2.16,2.74ZM216.84,721.28c-.34-.31-.69-.62-1.03-.94-2.26.51-4.61.82-6.73,1.68-.5.21-.23,2.3-.31,3.53,2.25-.32,4.59-.39,6.71-1.09.73-.24.92-2.07,1.36-3.18Z"/>
  <path class="cls-1" d="M212.18,579.08c.09,7.55-.03,15.1-.27,22.64-.04,1.21-1.04,2.38-1.6,3.56-1.44-.69-3.34-1.01-4.24-2.13-3.06-3.82-5.74-7.92-8.61-11.89-.87-1.21-1.88-2.32-3.69-4.51-.35,6.99-.64,12.76-.93,18.48-3.08.94-4.4-.45-4.33-3.01.23-7.68.61-15.35,1.09-23.02.06-.88,1.11-2.36,1.75-2.39.99-.04,2.35.69,2.98,1.52,3.74,4.91,7.31,9.95,10.96,14.93.62.85,1.35,1.62,2.61,3.11,0-6.31-.11-11.73.09-17.13.04-1.09,1.26-2.13,1.93-3.2.79,1.01,2.24,2.02,2.26,3.04Z"/>
  <path class="cls-1" d="M209.77,671.09c.03,3.1-2.36,4.69-5.2,5.16-3.25.54-6.55.76-10.2,1.16,3.48,8.1,9.52,5.62,16.29,3.65-.88,1.99-1.07,3.43-1.9,4.12-3.75,3.15-10.87,2.74-14.84-.64-4.16-3.54-5.08-9.55-2.23-14.56,2.81-4.93,7.61-6.9,12.84-5.26,3.13.98,5.2,3.14,5.24,6.37ZM206.65,672.14c-3.84-4.98-7.44-4.61-11.52.96,4.18-.35,7.47-.62,11.52-.96Z"/>
  <path class="cls-1" d="M196.46,702.37c.18,4.04.08,8.1.08,12.16h-.02c0,3.91.11,7.83-.09,11.74-.04.94-1.14,1.83-1.75,2.74-.91-.84-2.61-1.69-2.61-2.53-.02-8.21.18-16.41.54-24.61.04-.84,1.51-1.61,2.31-2.42.54.97,1.5,1.92,1.54,2.92Z"/>
  <path class="cls-1" d="M186.36,661.05c.88,5-1.22,8.7-6.02,10.6-.51.2-.98.47-1.84.88,1.43,2.11,2.83,4.01,4.04,6.01.85,1.42,1.68,2.93,2.08,4.52.24.9-.4,2.03-.64,3.06-1.01-.52-2.32-.8-2.95-1.61-2.08-2.64-3.75-5.61-5.89-8.19-1.17-1.39-2.99-2.24-4.51-3.34-.36.28-.72.56-1.07.84,0,3.32.15,6.64-.09,9.94-.08,1.16-1.12,2.24-1.73,3.36-.88-1.04-2.48-2.04-2.52-3.11-.28-6.98-.42-13.98-.22-20.96.26-8.79.42-8.79,9.53-8.68.98.01,1.96-.01,2.95.02,5.06.13,8.14,2.45,8.88,6.66ZM178.99,667.4c1.34-.59,2.55-3.06,2.53-4.66-.02-1.12-2.11-2.9-3.5-3.15-2.75-.5-5.65-.15-8.47-.15v10.01c3.59-.71,6.74-.87,9.44-2.05Z"/>
  <path class="cls-1" d="M181.99,603.83c-.85.74-1.69,2.09-2.56,2.12-5.18.15-10.4.2-15.56-.24-1.04-.09-2.69-2.4-2.71-3.71-.15-7.13.09-14.27.26-21.41.07-2.84.96-4.79,4.47-4.66,4.06.15,8.15-.33,12.2-.14,1.11.06,2.15,1.52,3.22,2.34-1.06.66-2.09,1.81-3.18,1.87-3.92.23-7.86.09-12.14.09v8.48c3.08,0,6-.23,8.87.1,1.34.15,2.56,1.36,3.84,2.09-1.38.65-2.7,1.7-4.13,1.86-2.62.31-5.29.09-8.18.09-.17.92-.41,1.69-.44,2.47-.25,6.6.37,7.16,6.97,6.65,2.1-.17,4.24-.4,6.29-.12,1,.14,1.86,1.38,2.78,2.12Z"/>
</svg>