<?xml version="1.0" encoding="UTF-8"?>
<svg id="Calque_1" xmlns="http://www.w3.org/2000/svg" viewBox="0 0 1118 688">
  <defs>
    <style>
      .cls-1 {
        fill: #fff;
      }

      .cls-2 {
        fill: #036;
      }

      .cls-3 {
        fill: #e94d2a;
      }
    </style>
  </defs>
  <path class="cls-3" d="M641.9,510.75c-.25,38.61-31.7,67.69-62.19,86.85-50.81,31.3-110.09,46.33-168.94,52.98-94.03,9.51-196.92-1.66-282.87-42.42-38.26-19.1-82.44-50.44-83.59-97.41.33-47.64,43.89-79.89,82.56-99.49,86.06-41.65,189.76-50.7,283.94-40.76,58.85,6.91,118.1,22.05,168.93,53.34,30.5,19.16,61.96,48.29,62.15,86.91h0ZM641.1,510.75c-.06-30.2-21.08-55.4-44.4-72.4-73-52.08-186.79-65.38-274.72-62.69-77.96,3.35-164.84,18.13-229.4,64.37-25.65,18.83-48.56,47.79-43.12,81.41,7.15,40.64,44.95,67.03,79.51,84.53,89.62,43.42,205.4,47.85,302.9,34.78,61.41-9.15,135.9-27.71,181.63-71.83,15.66-15.28,27.63-35.79,27.59-58.17h0Z"/>
  <path class="cls-3" d="M1113.29,313.15c-.23,36.29-29.79,63.65-58.43,81.7-41.7,25.85-89.8,39.81-138,47.24-93.54,13.65-200.81,3.49-286.71-37.32-35.99-17.97-77.56-47.43-78.66-91.61.49-58.08,68.63-93.34,116.51-109.92,73.04-24.81,151.71-30.33,228.12-22.14,55.33,6.51,111.03,20.83,158.79,50.3,28.66,18.05,58.21,45.45,58.39,81.76h0ZM1112.49,313.15c-.06-28.37-19.82-52.05-41.75-67.99-68.48-48.79-175.68-61.25-258.15-58.72-73.3,3.16-154.76,16.96-215.5,60.4-24.06,17.62-45.61,44.84-40.52,76.34,6.74,38.23,42.14,62.92,74.64,79.4,84.21,40.82,193.02,44.78,284.62,32.54,57.65-8.57,127.77-25.94,170.71-67.34,14.73-14.35,25.97-33.62,25.94-54.64h0Z"/>
  <g>
    <path class="cls-1" d="M572.3,290.31c1.74,3.87.93,7.29-1.87,9.66-3.6,3.05-9.93,2.79-15.82-1.14,5.91-.52,9.45-7.74,16.35-3.59.35-1.28.78-2.85,1.34-4.93Z"/>
    <path class="cls-1" d="M169.58,506.41c.76.96,1.37,2.04,1.5,3.89-.9-.36-2.12-.46-2.65-1.12-11.64-14.45-23.2-28.97-34.78-43.48-7.21-8.76-14.42-17.51-21.62-26.27-5.89-7.18-11.86-14.29-17.61-21.57-1.72-2.17-2.83-4.81-4.22-7.23.46-.31.93-.61,1.39-.91,2.6,3.09,5.25,6.13,7.8,9.27,11.05,13.62,22.08,27.26,33.09,40.91.48.59.77,1.33,1.14,2,4.77,5.75,9.62,11.43,14.3,17.25,7.28,9.03,14.46,18.15,21.66,27.26Z"/>
    <path class="cls-1" d="M324.83,647.11l.99,2.33c-.18.06-.37.11-.55.17-5.2,2.29-10.33,4.71-15.59,6.84-16.65,6.75-33.34,13.39-50.02,20.06-8.69,3.47-16.44,1.59-22.69-5-17.35-18.27-34.52-36.7-51.63-55.19-14.47-15.64-28.8-31.41-43.13-47.18-4-4.39-7.76-8.99-11.63-13.49-4.15-3.8-8.31-7.59-9.87-13.22.29-.25.59-.49.88-.73,3.48,4.18,6.96,8.37,10.44,12.56,6.23,6.7,12.52,13.35,18.69,20.11,11.56,12.68,22.93,25.54,34.6,38.11,16.87,18.15,34.01,36.04,50.87,54.19,7.29,7.84,15.45,9.33,25.24,5.34,19.48-7.93,39.08-15.59,58.64-23.34,1.43-.57,2.94-.94,4.41-1.41.12-.05.23-.1.35-.15Z"/>
    <path class="cls-2" d="M1113.94,35.31c.33.17.65.35.97.52-2.88,5.51-5.76,11.03-8.66,16.59.77-.29,1.64-.6,2.51-.92.35.4.7.79,1.05,1.19-.89.42-1.82.76-2.64,1.29-8.28,5.27-16.55,10.57-24.81,15.87-16.86,10.82-33.73,21.61-50.56,32.47-21.83,14.08-43.78,27.98-65.39,42.4-15.35,10.25-30.19,21.28-45.35,31.84-3.05,2.12-6.34,4.25-9.85,5.24-3.16.89-7,1.05-10.11.1-10.47-3.18-18.35-10.4-25.53-18.27-5.59-6.13-10.25-6.81-17.7-2.86-14.51,7.7-26.89,18.27-39.62,28.41-20.83,16.6-44.17,27.6-70.84,30.89-9.99,1.23-19.96,3-29.99,3.4-8.72.34-17.52-.71-26.24-1.55-4.57-.45-8.5.01-12.49,2.63-5.82,3.82-12.06,6.99-18.11,10.47-.96.55-1.83,1.25-2.96,2.03,10.06,1.97,18.39,6.04,24.07,14.51,3.19,4.78,4.36,9.83,1.15,14.9-3.52,5.56-8.52,8.96-15.47,8.59-1.24-.07-2.48-.26-4.67-.49,1.15,1.79,1.71,3.06,2.61,3.98,11.05,11.23,22.11,22.45,33.24,33.61,5.11,5.12,10.35,10.11,15.55,15.15,19.19,18.64,38.48,37.18,57.53,55.97,6.2,6.12,12.64,7.7,21.07,4.99,28.53-9.19,57.23-17.9,85.86-26.79,12.96-4.02,25.96-7.93,38.85-12.15,2.08-.68,5.19-2.71,5.22-4.17.05-2.22-1.67-5.09-3.52-6.64-22.03-18.57-44.26-36.9-66.37-55.37-15.67-13.09-31.22-26.32-46.89-39.42-3.42-2.86-7.3-3.95-11.91-2.79-24.82,6.22-49.68,12.3-74.53,18.39-9.29,2.27-18.59,4.5-27.92,6.58-1.24.28-2.71-.39-4.07-.62,1.14-.99,2.14-2.54,3.46-2.89,8.87-2.33,17.8-4.42,26.72-6.58,24.48-5.94,49-11.73,73.42-17.91,7.63-1.93,13.52-.48,19.53,4.77,16.53,14.45,33.48,28.43,50.37,42.48,20.45,17.02,41.03,33.91,61.52,50.88,5.75,4.76,6.96,14.75,2.32,20.64-1.17,1.49-3.25,2.5-5.11,3.18-3.88,1.42-7.86,2.6-11.86,3.64-3.07.79-4.49,2.3-4.45,5.69.04,2.91-.14,6.22-1.48,8.65-1.23,2.22-3.9,4.23-6.37,5.1-26.81,9.46-53.74,18.58-80.56,28.01-21.83,7.67-43.5,15.78-65.36,23.33-5.26,1.81-11.08,3.18-16.53,2.85-4.26-.26-8.93-2.73-12.41-5.49-10.93-8.67-21.39-17.93-32.03-26.97-.14-.11-.28-.24-.4-.38-20.39-16.91-40.79-33.8-61.16-50.73-7.85-6.52-15.64-13.11-23.44-19.69-5.05-4.26-6.44-14.14-2.53-19.44,1-1.35,2.69-2.53,4.3-3.04,15.77-4.99,31.59-9.85,47.41-14.67,2.75-.84,5.62-1.28,8.86-2-.75-1.24-.98-2.06-1.52-2.46-5.11-3.81-5.19-8.78-3.56-14.28,1.53-5.12,1.38-4.97-3.47-6.81-8.94-3.39-17.77-7.06-26.7-10.49-1.42-.55-3.1-.43-4.66-.62-.19.48-.37.95-.55,1.43,2.51,2.1,4.99,4.24,7.54,6.29,6.73,5.4,10.68,11.83,8.41,20.89-2.01,7.97-9.75,11.65-17.18,8.14-9.91-4.67-19.92-9.14-29.8-13.89-3.55-1.71-5.85.35-8.48,1.96-2.69,1.65-4.65,3.1-4.25,7.13.88,8.77-5.84,14.95-14.7,14.27-1.41-.1-3.14,0-4.14-.76-7.96-6.04-17.64-5.12-26.64-6.99-2.79-.58-3.97.11-4.82,2.7-5.84,17.8-11.73,35.58-17.72,53.33-1.61,4.77-3.37,9.52-5.53,14.05-3.84,8.06-9.68,10.27-18.17,7.65-34.2-10.56-68.39-21.18-102.66-31.51-18.18-5.48-36.53-10.41-54.79-15.64-2.98-.85-5.97-1.77-8.79-3.04-5.34-2.4-7.98-7.13-6.34-12.62,4.15-13.85,8.63-27.6,13.14-41.33.49-1.49.99-2.98,1.5-4.47,2.5-7.32,5.18-14.58,7.53-21.93.37-1.15-.68-3.16-1.65-4.27-7.96-9.16-16.01-18.26-24.15-27.27-15.49-17.16-31.13-34.19-46.57-51.4-4.05-4.51-8.74-5.52-14.35-4.26-29.37,6.61-58.76,13.16-88.13,19.77-15.64,3.51-31.27,7.04-46.87,10.69-6.75,1.58-7.74,4.7-3.45,10.05,24.75,30.83,49.49,61.67,74.28,92.48,2.18,2.71,4.56,5.28,7.02,7.76,3.09,3.11,7.01,2.33,10.61,1.49,5.53-1.29,10.95-3.04,16.41-4.63,33.26-9.66,66.52-19.32,99.78-28.98.87-.25,1.75-.63,2.63-.64,1.52-.02,3.04.21,4.57.33-1.27,1.18-2.35,3-3.83,3.43-25.31,7.39-50.67,14.57-76,21.86-13.91,4-27.82,7.99-41.67,12.19-6.85,2.08-12.61,1.41-17.39-4.49-8.94-11.03-18.01-21.97-27.13-32.85-2.45-2.93-5.28-5.53-7.93-8.28-1.82-2.57-3.63-5.13-5.45-7.69-.47-.77-.87-1.6-1.42-2.3-9.66-12.28-19.33-24.55-29.01-36.8-2.98-3.77-6-7.49-9.01-11.23-.39.22-.77.45-1.16.67.88,1.86,1.46,3.95,2.7,5.53,6.98,8.96,14.05,17.85,21.22,26.66,5.2,6.4,10.6,12.65,15.91,18.96,1.81,2.28,3.62,4.55,5.43,6.83.02.02.04.05.06.07,5.28,6.68,10.51,13.4,15.86,20.02,6.58,8.14,13.3,16.16,19.89,24.29,4.34,5.33,9.78,6.25,16.04,4.33,14.46-4.43,28.88-8.96,43.38-13.26,23.91-7.09,47.86-14.04,71.8-21.03,1.08-.31,2.22-.43,3.36-.65,1.46,2.82-.18,3.67-2.2,4.27-8.05,2.41-16.06,4.92-24.16,7.15-2.92.8-4.63,2.06-4.26,5.28.06.51-.08,1.03-.1,1.55-.23,7.06-3.14,11.36-10.47,13.71-28.3,9.07-56.38,18.84-84.59,28.2-19.86,6.59-39.86,12.78-59.69,19.48-7.77,2.62-14.26.72-19.45-4.79-7.86-8.36-15.34-17.12-22.61-26.01-19.45-23.81-38.58-47.88-58.12-71.61-4.87-5.91-5.11-11.85-2.66-18.41,1.33-3.56,4.39-5.25,7.87-6.3,18.42-5.58,36.84-11.17,55.26-16.76,2.19-.67,4.35-1.41,5.54-2.66.7-4.37,1.18-8.79,2.15-13.1.97-4.3,3.92-6.67,8.31-7.65,21.81-4.9,43.59-9.95,65.39-14.88,23.95-5.41,47.91-10.71,71.85-16.13,6.42-1.45,11.75.17,16.13,4.99,16.6,18.25,33.19,36.52,49.79,54.77,6.51,7.17,13.04,14.33,19.54,21.51,1.03,1.13,1.95,2.36,3.16,3.84,1.99-5.61,4.04-11.22,5.97-16.87,3.37-9.9,6.58-19.87,10-29.76,3.92-11.33,8.82-14.12,20.36-11.08,20.09,5.3,40.16,10.69,60.22,16.09,9.88,2.66,19.77,5.31,29.65,7.96,3.48.93,6.98,1.76,10.74,2.71-2.18-5.41-4.25-10.55-6.31-15.68.67-.33,1.35-.67,2.02-1,2.46,4,4.92,8.01,7.21,11.75.69-1.18,1.71-2.91,2.73-4.64.61-.59,1.23-1.18,1.84-1.76,6.41-6.74,5.27-15.59,6.65-23.73.33-1.99.57-4,1.37-5.96,2.17,5.06.25,10.09.01,15.12.35.1.71.19,1.07.28.97-3.96,2.04-7.9,2.88-11.89.6-2.85.39-5.62,1.67-8.64,1.2-2.84-.83-7.45-2.32-10.9-1.47-3.38-4.07-6.26-6.12-9.4-.65-1-1.13-2.12-1.23-3.5,6.6,3.42,10.95,8.78,13.68,15.97,1.82-3.66,3.4-6.86,4.99-10.05.3.14.61.28.91.42-.98,3.54-2.08,7.07-2.88,10.65-.23,1.03.41,2.24.65,3.37.91-.75,2.16-1.32,2.66-2.28,2.57-4.98,4.95-10.06,7.39-15.11.35.12.7.24,1.04.36-1.55,5.03-3.1,10.06-4.75,15.43,3.87-.27,6.67-1.2,7.72-5.23,1.43-5.49,3.15-10.9,4.75-16.34.34-1.18.73-2.34,1.09-3.5.46.11.92.22,1.38.32-1.52,7.03-3.04,14.05-4.54,20.92,3.43-.53,4.94-1.63,5.75-4.92,2.18-8.89,4.24-17.81,6.39-26.7.22-.92.69-1.77,1.33-2.57.99,10.32-2.82,19.72-5.75,29.9,3.79-1.98,6.36-4.26,7.32-7.93,2.19-8.34,4.27-16.71,6.41-25.06.24-.95.56-1.88,1.12-2.74,2.06,10.14-3,18.98-5.27,28.88,3.75-2.16,6.3-4.83,7.22-8.54,2.44-9.85,6.86-19.29,6.22-29.81-.06-.95,1.06-1.98,1.63-2.97.57.9,1.52,1.74,1.65,2.7.88,6.39,1.58,12.8,2.35,19.2.13,1.15.18,2.33.49,3.44.72,2.61,2.31,3.02,4.04.99.73-.86,1.22-1.99,1.6-3.07,3.67-10.34,7.29-20.7,10.93-31.06.33-.93.69-1.85,1.6-2.61-1.94,12.18-5.42,23.91-11.05,36.07,5.35-1.96,9.94-2.61,11.49-8.4,2.3-8.6,5.18-17.05,7.83-25.55.21-.68.57-1.31.85-1.96.46.14.91.28,1.37.42-2.72,9.98-5.43,19.96-8.15,29.94.19.29.38.58.57.86,1.98-1.67,4.87-2.96,5.78-5.09,3.46-8.2,6.48-16.61,9.24-25.08.84-2.6.22-5.64.42-8.48.1-1.55.5-3.08.77-4.62.54-.04,1.07-.07,1.6-.11.58,3.28,1.34,6.54,1.7,9.84,1.12,10.32,3.43,20.14,10.99,27.91.68.69,1.49,1.26,2.69,2.26.58-2.61,1.04-4.66,1.69-7.59,2.45,4.64-1.42,10.22,3.99,13.3.88-3.58,1.71-6.99,2.55-10.39,2.5,5.11-2.48,11.43,3.42,16.6,1.87-6.01,3.55-11.37,5.21-16.73,1.61-5.17-2.51-10.69.5-15.78.45-.06.9-.11,1.35-.17,3.41,17.15,6.82,34.3,10.3,51.78,3.47-14.58.51-29.7,4.81-44.01,2.27,13.34.65,26.67,1.14,40.47,5.82-10.95,11.63-21.89,17.45-32.84.54.26,1.08.51,1.63.76-1.86,4.98-3.61,10.01-5.6,14.93-7.63,18.83-21.15,32.86-36.99,44.95-21.67,16.53-43.54,32.83-65,49.62-12.41,9.71-23.95,20.41-34.54,32.2-3.32,3.7-5.02,8.47-5.33,13.4-.67,10.52,4.98,21.76,14.75,24.74,4.3,1.3,8.54,1.93,12.71,1.73,4.62-.21,9.15-1.43,13.55-3.81,11.13-6.04,22.26-12.09,33.16-18.55,15.76-9.34,28.88-21.31,36.36-38.55.58-1.33,1.53-2.51,2.66-3.54-3.29,10.76-8.82,20.17-16.87,28.06,5.56-1.72,9.24-4.77,16.43-15.1,4.39-6.31,8.08-13.11,12.36-19.54-2.44,8.88-7.21,16.52-12.55,23.94,3.91-1.92,7.38-3.9,9.67-8.12,4.49-8.27,9.71-16.15,14.66-24.17.3-.51.79-.91,1.43-1.19-2.18,9.76-8.73,17.2-13.26,25.76,11.63-7.88,17.12-20.5,24.37-31.81-2.12,9.03-7.4,16.4-12.5,23.87.3.28.6.55.9.83,2.38-2.01,5.37-3.61,7.04-6.09,5.84-8.67,11.21-17.64,16.77-26.49.46-.73.97-1.43,1.46-2.14.36.19.71.38,1.07.58-4.44,8.54-8.88,17.08-13.31,25.63.1.19.2.39.31.59,2.42-2.1,5.37-3.83,7.18-6.37,5.48-7.67,10.51-15.65,15.74-23.5.4-.61.96-1.11,1.45-1.67.3.17.6.35.9.52-2.11,3.97-4.06,8.03-6.36,11.89-2.3,3.85-4.95,7.5-7.6,11.47,13.89-5.82,18.37-19.52,25.87-30.59.44.3.88.59,1.31.89-4.3,7.64-8.6,15.27-13.23,23.5,11.29-4.83,15.88-15.35,22.39-23.98.32.22.63.44.95.66-2.47,4.43-4.93,8.85-7.23,12.97,9.07.42,10.95-8.35,15.99-13.32-3.92,12.28-12.89,20.49-22.8,28.44,3.5,1.62,5.99,1.71,8.59-1.12,6.55-7.1,13.42-13.89,20.02-20.94,1.53-1.64,2.48-3.83,3.69-5.76.36.19.73.39,1.09.58-1.98,3.55-3.67,7.32-6.04,10.59-2.48,3.43-5.51,6.5-8.52,9.5-2.98,2.95-6.23,5.63-9.75,8.79,6.1,1.79,9.93-1.39,13.1-4.75,6.82-7.22,13.18-14.89,19.73-22.37.83-.94,1.65-1.88,2.47-2.83.39.31.78.63,1.18.94-7.58,9.51-15.15,19.02-22.93,28.79,4.04-.28,7.78-.49,10.6-4.01,6.36-7.93,12.89-15.74,19.36-23.58.29-.35.7-.58,1.83-1.49-3.97,11.71-11.99,19.15-19.97,26.63.21.42.41.83.62,1.24,2.74-1.12,5.73-1.85,8.16-3.43,9.27-6.02,15.7-14.47,20.11-24.53.33-.74,1.03-1.31,1.88-1.72-3.57,11.4-9.33,21.27-19.58,28.13,2.87-.64,5.77-1.19,8.61-1.97.89-.24,1.89-.9,2.38-1.67,6.58-10.17,13.07-20.4,19.59-30.6.38-.59.93-1.07,1.78-1.36-4.21,11.41-10.18,21.8-17.85,31.28,4.42.14,5.96-.51,8.5-3.74,7.8-9.87,14.83-20.21,19.56-31.95.4-1.01,1-1.94,1.9-2.69-2.91,13.47-11.02,24.24-18.22,35.55,13.54-12.08,23.32-26.81,30.11-43.68-3.6,15.73-12.14,28.6-23.32,41.16,4.94-1.58,8.41-3.24,11.15-6.62,10.15-12.55,18.67-26.02,24.48-41.14.38-.97,1.07-1.83,1.98-2.53-3.4,13.79-10.56,25.74-19.15,37.98,4.89.01,7.02-2.5,8.84-4.97,2.14-2.89,3.94-6.07,5.63-9.27,3.99-7.53,7.96-15.08,11.65-22.76,1.4-2.91,2.01-6.2,3.43-9.15-1.49,14.62-10.45,26.2-15.95,39.2.26.25.51.5.77.75,2.63-2.94,5.99-5.51,7.77-8.9,5.2-9.94,9.76-20.2,14.59-30.33.69-1.45,1.48-2.85,2.23-4.27.34.15.68.3,1.03.45-3.65,9.46-7.29,18.93-10.93,28.39.39.2.78.41,1.17.61,5.45-4.46,6.96-11.58,10.49-17.3,3.56-5.77,6.28-12.06,9.73-17.95-2.26,10.17-8.41,18.65-12.52,28.02.31.28.62.55.93.83,2.25-2.4,4.99-4.51,6.66-7.27,5.37-8.82,10.34-17.88,15.48-26.84.23-.41.58-.77.87-1.15.39.21.79.42,1.18.63-4.86,9.32-9.73,18.64-14.59,27.97.19.22.37.44.56.67,2.7-2.53,6.09-4.63,7.98-7.67,7.1-11.4,13.7-23.1,20.5-34.69.37-.62.85-1.18,1.64-1.56-4.4,13.16-12.63,24.31-19.23,37.24,1.82-1.08,3.61-1.54,4.43-2.7,7.9-11.18,15.66-22.46,23.38-33.77,1.48-2.16,2.59-4.57,4.37-6.57-5.28,14.81-15.64,26.58-24.05,39.52.31.33.61.66.92.99,2.02-1.72,4.3-3.22,6.03-5.2,11.14-12.7,19.11-27.53,27.99-41.76,1.47-2.35,1.63-4.35.64-6.87-6.51-16.53-15.94-31.22-27.4-44.74-8.2-9.67-17.63-17.74-28.56-24.16-4.1-2.41-7.8-3.32-12.69-1.45-14.36,5.47-28.76,11.05-43.55,15.1-10.23,2.8-21.09,3.81-31.75,4.47-29.1,1.8-58.07-.24-86.91-4.36-24.55-3.51-49.1-6.98-73.6-10.82-9.33-1.46-17.22.4-24.49,6.5-19.5,16.35-38.64,33.22-59,48.44-14.94,11.17-31.46,20.29-47.55,29.86-5.74,3.41-9.54,7.84-11.43,13.97-6.42,20.73-12.69,41.51-19.02,62.28-.19.61-.26,1.41-.68,1.79-.99.87-2.16,1.53-3.25,2.28-.28-1.2-1.07-2.57-.75-3.59,5.31-17.02,10.74-34,16.17-50.98,1.84-5.78,3.5-11.63,5.66-17.29,2.17-5.7,6.97-9.03,11.98-12.2,17.02-10.78,34.55-20.88,50.66-32.88,18.52-13.8,35.77-29.3,53.49-44.17,9.38-7.86,19.97-9.98,31.9-8.16,24,3.67,48,7.53,72.11,10.26,20.38,2.3,40.91,3.54,61.41,4.5,25.23,1.18,50.05-1.51,73.87-10.66,4.07-1.56,6.79-3.84,9.24-7.9,10.13-16.78,22.27-19.73,40.22-8.32,32.14,20.44,51.96,50.33,63.7,86.08,4.72,14.38,6.44,29.2,7.42,45.17,2.66-14.55,5.16-28.2,7.66-41.86.52.08,1.03.15,1.55.22-1.08,6.53-2.19,13.06-3.22,19.59-1.05,6.63-1.79,13.31-3.08,19.89-1.31,6.66-3.13,13.22-4.42,20.2.69-1,1.65-1.91,2.03-3.01.08-.24.16-.48.25-.72l1.36.47c5.67-1.74,7.55-5.54,9.02-10.47,4.9-16.45,10.47-32.71,15.51-49.12,1.66-5.42,2.47-11.09,3.73-16.63.37-1.59.96-3.12,1.44-4.68.39.08.78.17,1.18.26-1.16,6.14-2.12,12.34-3.51,18.43-1.47,6.42-3.3,12.76-5.06,19.11-1.73,6.22-3.35,12.49-5.41,18.6-2.03,6.06-4.55,11.95-6.53,18.05,3.9-2.2,6.66-4.75,7.93-9.4,1.82-6.69,5.35-12.9,7.48-19.52,5.38-16.72,10.38-33.56,15.57-50.34.54-1.74,1.36-3.38,2.56-4.86-6.87,25.9-12.05,52.28-24.45,77.3,3.85-1.9,6.05-3.78,7.25-7.28,2.49-7.2,5.86-14.1,8.25-21.32,4.96-14.96,9.47-30.06,14.24-45.08,1.54-4.84,3.35-9.6,5.64-14.17-7.29,27.36-13.78,54.94-25.95,80.73.46.3.93.59,1.4.89,1.85-2.35,4.42-4.44,5.45-7.11,7.07-18.45,13.95-36.99,20.63-55.59,2.44-6.8,4.15-13.85,6.26-20.77.47-1.55,1.21-3.02,1.83-4.53.3.1.61.2.92.29-2.35,8.93-4.51,17.92-7.1,26.78-2.65,9.05-5.5,18.06-8.67,26.93-3.16,8.85-6.84,17.52-9.56,26.96,1.71-1.83,4.09-3.38,5.01-5.54,5.21-12.38,10.46-24.77,14.95-37.42,4.33-12.16,7.74-24.64,11.6-36.97.43-1.36,1.15-2.62,1.98-3.8-4.62,26.52-13.32,51.65-25.2,75.74.5.34.99.68,1.49,1.01,1.19-1.32,2.88-2.44,3.5-3.99,6.89-17.4,13.78-34.8,20.35-52.33,3.97-10.6,7.38-21.42,11.96-31.92-1.77,6.93-3.33,13.92-5.37,20.76-2.1,7.05-4.63,13.97-7.02,20.93-2.39,6.97-4.6,14.01-7.34,20.84-2.73,6.82-6.01,13.42-9.32,20.69,4.28-1.4,6.58-3.9,7.97-7.54.01-.04.03-.07.04-.11l2.22.85c.4.3.8.61,1.2.92,1.91-2.14,4.61-3.97,5.61-6.47,10.65-26.49,21.02-53.09,31.47-79.65.44-1.13.96-2.24,1.93-3.17-7.95,28.52-18.1,56.2-30.69,83.37,4.72-2.24,7.75-5.06,9.51-10.11,3.22-9.24,7.92-17.97,11.32-27.17,6.68-18.04,12.89-36.25,19.29-54.4.29-.82.58-1.65.87-2.47l1.29.36c-2.89,9.53-5.66,19.1-8.72,28.58-3.14,9.7-6.24,19.43-9.98,28.91-3.72,9.47-8.21,18.65-12.37,27.96.4.3.8.61,1.2.91,1.52-1.57,3.56-2.88,4.46-4.74,12.63-26.39,21.81-54.1,31.26-81.72,1.19-3.49,2.44-6.96,4.28-10.22-8.11,30.81-17.06,61.32-32.05,89.72.36.3.71.6,1.07.9,1.34-1.22,3.18-2.18,3.96-3.7,14.86-29.05,26.89-59.26,36.73-90.36.18-.55.56-1.03,1.17-1.39-6.94,31.38-18.63,60.95-34.43,89.36,4.85-1.05,9.23-4.73,10.71-8.37,9.37-23.1,18.78-46.18,28.13-69.28,1.55-3.83,2.87-7.76,4.34-11.62.37-.99.92-1.91,1.99-2.6-9.72,28.45-17.77,57.49-32.01,84.27,3.93-1.57,6.69-3.76,8.77-7.58,11.46-21.1,17.59-44.42,27.84-66,1.01-2.13,2.12-4.22,3.8-6.03-9.71,23.93-15.58,49.33-28.76,72.09,4.79-1.76,7.49-5.03,9.47-9.18l2.28,1.12c-.1.2-.19.39-.29.59,5.26-2.2,5.56-2.63,7.92-7.37,6.86-13.76,13.8-27.48,20.73-41.2.15-.29.52-.47,1.17-.51-3.83,15.64-12.02,29.27-19.83,42.96,5.15-1.85,6.37-3.1,8.88-7.69,5.02-9.18,10.19-18.27,15.34-27.38.39-.7,1.09-1.22,1.64-1.82.35.21.7.43,1.05.64-5.25,9.95-10.51,19.9-15.76,29.86,7.33-5.79,11.53-14.25,17.5-21.22ZM924,166.49c3.05-7.33,3.8-15.04,3.52-22.8-.71-19.57-5.11-38.31-12.96-56.29-10.37-23.75-25.06-44.18-45.26-60.55-7.39-5.98-15.25-11.13-24.64-13.43-4.71-1.15-8.85-.04-11.37,2.84,2.68,0,5.63-.74,7.98.14,6.23,2.34,12.82,4.5,18.17,8.28,23.31,16.46,39.32,38.89,50.96,64.67,7.25,16.07,10.82,33.04,12.6,50.52.81,8.02.53,15.72-2.35,23.25-3.61,9.42-10.22,12.32-19.76,9.11-9.58-3.23-17.63-8.47-23.85-16.5-.58-.76-1.85-.99-2.79-1.46-.25.36-.5.72-.74,1.07,2.19,2.07,4.58,3.96,6.54,6.24,5.5,6.4,12.29,11.02,19.83,14.58,8.01,3.78,20.69-1.45,24.12-9.67ZM922.56,353.02c-.22-.28-.44-.57-.66-.85-24.52,7.59-49.05,15.17-73.57,22.79-18.25,5.68-36.56,11.21-54.72,17.21-9.54,3.14-16.99.77-23.89-5.7-.33-.31-.65-.62-.97-.94-12.8-12.77-26.03-25.1-38.97-37.73-19.86-19.4-39.61-38.93-59.47-58.34-3.04-2.98-6.4-5.62-10.11-8.85-.85,5.26,2.22,7.37,4.67,9.71,25.05,23.88,50.13,47.74,75.22,71.59,9.27,8.82,18.57,17.62,27.84,26.44,1.49,1.41,2.98,2.82,4.47,4.24,5.19,4.93,11.29,5.99,17.98,4.11,4.97-1.4,9.89-2.99,14.8-4.58,19.43-6.27,38.82-12.65,58.27-18.84,18.22-5.81,36.5-11.39,54.72-17.2,1.62-.52,2.94-2.02,4.39-3.06ZM916.59,119.56c-1.23-4.36-2.46-8.72-3.68-13.08-.23.1-.47.2-.7.3l3.84,12.93.54-.15ZM909.57,167.84c1.76-2.5,3.52-5.01,5.29-7.52-.31-.22-.63-.44-.94-.66l-5.7,7.2c.45.33.9.66,1.35.98ZM914.35,143c-.53-.38-1.06-.75-1.59-1.12-6.26,7.25-11.72,15.14-17.79,23.8,1.86-.12,3.28.17,3.61-.3,5.29-7.43,11.15-14.51,15.77-22.38ZM906.53,135.44c4.37-1.3,5.46-3.24,5.49-10.36-2.04,3.84-3.74,7.05-5.49,10.36ZM890.78,143.24c13.76-5.66,23.66-20.54,18.88-27.94-6.26,9.27-12.59,18.63-18.88,27.94ZM907.49,114.42c2.79-3.74.69-6.84-1.02-10.08-8.98,14.53-17.8,28.8-26.97,43.63,1.85-1.06,3.98-1.62,5.05-3.01,7.77-10.08,15.32-20.33,22.94-30.54ZM914.4,148.09c-4.78,6.61-9.12,12.63-13.63,18.87,3.68.55,13.32-12.88,13.63-18.87ZM911.24,139.09c-8.68,5.97-14.42,14.79-21.59,22.26,2.8,2.55,2.89,2.61,4.68.25,5.68-7.47,11.28-15,16.91-22.51ZM900.27,144.92c-.35-.37-.71-.73-1.06-1.1-4.42,4.22-8.89,8.39-13.2,12.71-.36.35.03,1.85.51,2.47.26.32,1.82.2,2.2-.24,3.92-4.55,7.72-9.21,11.55-13.84ZM895.18,371.3c1.8-.63,4.22-.94,3.58-4.47-1.36.23-2.39.29-3.34.59-15.41,4.84-30.81,9.72-46.21,14.59-19.71,6.23-39.4,12.54-59.14,18.68-7.56,2.35-14.28.48-20.08-4.88-2.84-2.63-5.65-5.3-8.63-7.77-.98-.82-2.48-1.53-3.69-1.46-11.65.67-20.39-4.7-27.49-13.23-3.37-4.05-4-8.81-2.17-13.89.36-1.01.35-2.83-.28-3.4-7.02-6.41-12.7-14.29-21.54-18.71-5.89-2.93-10.41-7.55-13.38-13.57-.72-1.48-1.7-2.95-2.88-4.06-7.81-7.35-15.68-14.64-23.63-21.83-.77-.7-2.36-1.16-3.3-.87-18.13,5.64-36.24,11.36-54.29,17.26-1.7.55-3.56,2.24-4.17,3.85-.35.89,1.49,3,2.77,4.07,8.43,7.03,17.06,13.82,25.46,20.9,30.91,26.06,61.77,52.18,92.6,78.34,4.44,3.77,9.35,4.9,14.82,3.36,5.46-1.54,10.89-3.27,16.25-5.13,30.02-10.47,60.01-21.02,90.02-31.49,16.23-5.67,32.49-11.22,48.72-16.88ZM895.63,378.55c1.24-.45,1.99-2.25,2.98-3.42-4.51.9-8.24,2.29-12,3.62-6.07,2.14-12.16,4.25-18.24,6.37-1.51.35-3.06.58-4.52,1.08-23.44,8.13-46.87,16.27-70.28,24.45-16.71,5.83-33.38,11.8-50.11,17.57-7.16,2.48-13.96,1.97-19.98-3.28-5.26-4.58-10.61-9.05-15.96-13.53-13.45-11.29-26.93-22.55-40.4-33.83-20.39-17.08-40.78-34.18-61.18-51.25-.7-.58-1.54-.99-2.32-1.48-.35.38-.71.75-1.07,1.13,2.36,2.52,4.51,5.29,7.12,7.53,8.83,7.55,17.84,14.9,26.74,22.37,29,24.3,58,48.6,86.95,72.95,5.27,4.44,11.16,5.68,17.72,4.05,2.26-.56,4.46-1.32,6.65-2.1,36.17-12.82,72.33-25.65,108.48-38.5,5.11-1.82,10.18-3.74,15.27-5.61,8.06-2.67,16.16-5.25,24.15-8.12ZM889.19,149.66l-.75-.9c-2.23,1.65-4.45,3.31-6.68,4.97.41.49.82.98,1.22,1.47,2.07-1.84,4.14-3.69,6.21-5.54ZM732.1,368.49c2.63,6.8,14.86,13.96,23.27,13.64-7.8-7.43-15.25-14.54-22.71-21.65-.42.13-.84.25-1.26.38.2,2.56-.19,5.34.7,7.63ZM711.67,207.26c-.2-.27-.41-.54-.61-.81-2.65,1.91-5.3,3.82-7.95,5.72-2.08,1.43-4.16,2.85-6.23,4.27.38.51.77,1.02,1.16,1.53,1.69-1.42,3.38-2.83,5.07-4.25,2.86-2.15,5.71-4.3,8.56-6.46ZM678.21,266.06c2.98-3.34,3.32-8.6.26-12.5-2.05-2.62-4.41-4.81-7.04-6.59-3.01-2.05-6.36-3.57-9.96-4.63-.44-.13-.88-.25-1.32-.36-3.66-.95-6.83-.16-8.53,3.93-1.58,3.8-3.74,7.36-5.31,11.17-2.64,6.39-2.28,6.91,4.47,8.44.36.08.76,0,1.33,0,1.99-7.9,4.43-15.58,9.1-22.24.47.19.94.38,1.4.56-.64,1.72-1.26,3.45-1.93,5.16-1.79,4.55-3.9,9-5.31,13.66-1.32,4.35-.71,4.81,4.12,5.29,4.16-15.07,6.06-18.73,10.75-20.11-.57.97-1.11,1.67-1.44,2.46-2.14,5.09-4.37,10.15-6.23,15.34-.37,1.04.34,3.27,1.24,3.83,4.02,2.5,10.66.76,14.4-3.42ZM641.41,262.04c3.12-6.55,6.09-12.76,9-18.85-9.2,1.62-9.05,10.38-13.03,16.88,1.75.86,2.96,1.45,4.03,1.97ZM635.97,257.36c1.46-2.81,2.68-5.74,4.06-8.78-4.41.99-5.39,4.87-7.14,7.99-.23.41.52,1.37.81,2.08.78-.42,1.93-.64,2.27-1.29ZM634.7,142.06c-.38-3.24-.76-6.48-1.14-9.71-.34.03-.69.06-1.03.09,1.56,3.15-3.06,6.77,2.17,9.62ZM633.84,158.16c2.69-2.71,2.68-5.63-.08-8.51-4.1,6.7-8.03,13.11-11.96,19.52,4.18-3.45,8.2-7.14,12.04-11.01ZM625.7,294c4.29.08,8.09-4.85,7.87-10.23-.01-.38-.1-.77-.15-1.15-1.4-9.58-9.55-12.92-15.83-18.14-5.57,7.12-6.81,16.53-3.19,19.26,1.64-4.91,3.23-9.65,4.82-14.39.5.14,1,.27,1.5.41-.31,1.5-.64,3-.94,4.51-.65,3.26-1.64,6.5-1.86,9.79-.32,4.81,3.9,9.87,7.78,9.94ZM631.62,145.93l-1.92-.75c-6.69,10.46-13.39,20.92-20.08,31.39.5.44.99.88,1.49,1.32,1.49-1.3,3.36-2.34,4.41-3.93,5.24-7.96,10.31-16.03,15.31-24.15.65-1.05.55-2.57.79-3.88ZM629.01,137.74c4.15-7.17,2.42-14.04-.12-20.9.43,6.88-6.21,13.87.12,20.9ZM626.76,145.72c1.5-2.28,1.77-3.92-1.18-5.07-.33.27-.71.45-.9.75-6.07,9.13-12.07,18.32-18.23,27.4-.97,1.44-2.68,2.39-4.04,3.57.46-1.3.68-2.75,1.41-3.88,5.73-8.76,11.47-17.51,17.38-26.15,3.01-4.41,2.91-5.28-2.01-7.62-7.14,11.77-14.28,23.53-21.69,35.73,1.63.69,3.24,1.37,4.84,2.05,1.72,1.18,3.44,2.35,4.9,3.35,6.75-10.45,13.08-20.33,19.52-30.13ZM617.98,132.46c-1.57-1.29-2.83-2.33-4.26-3.51-.8,1.13-1.43,1.92-1.95,2.78-6.19,10.39-12.33,20.81-18.6,31.15-.69,1.13-2.16,1.79-3.26,2.66.43-1.2.69-2.5,1.33-3.58,6.3-10.49,12.63-20.96,19.02-31.39,2.18-3.58,1.92-4.47-1.86-5.72-6.42,10.19-12.7,20.36-19.21,30.39-1.38,2.13-3.56,3.73-5.37,5.58,2.2-4.05,4.24-8.21,6.64-12.14,4.7-7.72,9.66-15.28,14.37-22.99.72-1.18.71-2.8,1.03-4.22l-1.47-.51c-1.57,1.99-3.27,3.89-4.68,5.99-5.96,8.9-11.79,17.9-17.76,26.8-2.89,4.3-2.97,4.31,1.74,7.15.01,0,.03.02.04.03,2.04,1.55,4.07,3.11,6.1,4.66.01.01.02.01.03.02,5.28,3.59,5.34,3.61,8.7-1.63,3.48-5.42,6.88-10.89,10.26-16.37,3.07-4.99,6.07-10.04,9.16-15.15ZM608.99,279.31c1.07-4.49,2.05-8.64,3.19-13.44-2.96,2.31-5.64,4.22-8.05,6.42-.62.56-.88,2.6-.42,3.05,1.65,1.61,3.69,2.82,5.28,3.97ZM608.11,285.14c-2.24-2.65-5.21-4.33-7.44-6.72-3.08-3.31-5.58-2.46-8.63.35,5.59,2.21,10.83,4.29,16.07,6.37ZM607,180.81c-1.98-.91-3.32-1.53-4.83-2.24-1.67,3.51-3.16,6.63-4.64,9.75.12.13.24.26.37.39,2.93-2.54,5.85-5.08,9.1-7.9ZM598.22,117.8c.19.28.38.56.56.83-.4.4-.75.88-1.21,1.17-1.18.72-2.85,1.06-3.53,2.08-2.59,3.85-4.82,7.94-7.25,11.9-3.25,5.28-6.25,10.75-9.96,15.68-2.02,2.7-1.84,4.15,1.07,6.21,8.23-12.57,16.4-25.06,24.91-38.08-2.02.09-3.31.15-4.59.21ZM598.56,180.6c1.79-3.1.63-4.75-3.13-5.79-2.58,6.75-5.08,13.27-7.58,19.79,1.76-.32,3.22-.91,3.89-2,2.41-3.91,4.52-8.01,6.82-12ZM593.31,113.64c6.07-3.25,6.15-3.41,3.59-7.19-1.13,2.26-2.21,4.42-3.59,7.19ZM589.6,113.39c2.95-5.15,5.82-10.34,4.16-16.92-1.72,5.54-3.43,11.08-5.14,16.62.32.1.65.2.98.3ZM576.87,202.25c6.25-2.25,12.52-13.13,11.95-19.1-2.96,3.4-5.93,6.94-9.05,10.34-2.02,2.21-1.98,3.83.66,4.89-1.2,1.31-2.38,2.59-3.56,3.87ZM588.16,172.79c1.45-2.16.35-3.18-1.85-3.91-3.5,6.25-6.93,12.37-10.36,18.48.55.31,1.11.62,1.66.94,3.52-5.17,7.05-10.33,10.55-15.51ZM592.2,120.28c-3.42,1.45-7.32,2.83-9.29,5.59-4.18,5.83-7.33,12.39-10.92,18.64-1.29,2.23-1.16,4.09,1.89,5.98,6.14-10.13,12.23-20.17,18.32-30.21ZM582.64,171.65c2.68-4.44,2.74-4.62-2.45-6.77-.44.7-.97,1.4-1.35,2.18-2.98,6.12-6.02,12.23-8.85,18.43-.67,1.46-3.14,3.42-.22,4.83,2.96,1.43,3.22-1.65,4.14-3.24,2.96-5.12,5.67-10.37,8.73-15.43ZM575.86,168.77c3.47-6.33,3.63-5.15-1.54-10.13-.56-.68-1.12-1.36-2.03-2.47-11.73,15.2-19.83,32.1-27.76,49.1-.54-.26-1.08-.52-1.63-.78,3.69-8.23,7.37-16.45,11.26-25.15-1.94,1.64-3.61,2.86-5.06,4.31-3.68,3.68-6.95,7.37-6.58,13.34.16,2.46.02,4.95-.23,7.44-.22,2.25-.55,4.5-.84,6.72-.68,5.16-1.74,10.28-2.64,15.41,1.2-.38,1.66-.95,1.98-1.6,10.53-21.3,21.03-42.62,31.58-63.91.44-.89,1.26-1.59,1.9-2.37-.3,1.48-.34,3.1-.96,4.44-3.31,7.12-6.78,14.18-10.17,21.27-.57,1.19-1.02,2.44-1.53,3.7,3.33,1.42,4.56-.44,5.6-2.46,2.9-5.61,5.61-11.32,8.65-16.86ZM573.4,200.81c.45-.81.35-1.93.5-2.91-.94.49-2.32.74-2.74,1.51-2.22,4.03-4.2,8.19-6.26,12.3l.54.57c.98-1.1,2.1-2.11,2.91-3.32,1.78-2.65,3.48-5.37,5.05-8.15ZM570.43,299.97c2.8-2.37,3.61-5.79,1.87-9.66-.56,2.08-.99,3.65-1.34,4.93-6.9-4.15-10.44,3.07-16.35,3.59,5.89,3.93,12.22,4.19,15.82,1.14ZM579.99,126.24c-8.96,1.36-8.55,10.44-13.88,14.78,1.03,1.34,1.92,2.49,2.99,3.87,3.77-6.46,7.26-12.43,10.89-18.65ZM565.71,138.83l4.17-7.71c-3.06.49-5.59,1.53-7.79,3.04-.24.16,1.41,3.07,2.19,4.7.48-.01.95-.02,1.43-.03ZM569.29,197.8c.17-.72-.67-2.25-1.35-2.47-.69-.22-2.14.47-2.58,1.18-1.96,3.18-3.74,6.48-5.45,9.81-2.64,5.11-5.16,10.28-8.09,16.13,6.22-4.31,15.89-18.1,17.47-24.65ZM557.61,165.7c5.43-6.28,9.2-14.24,7.94-17.37-2.67,5.84-5.17,11.32-7.94,17.37ZM562.86,149.34c1.49-2.81,1.44-4.7-1.34-7.01-5.59,12.21-11.02,24.1-16.45,35.99.42.3.85.59,1.28.88,1.96-2.64,4.31-5.09,5.81-7.98,3.74-7.2,6.89-14.71,10.7-21.88ZM563.95,193.65c-2.33-1.09-3.99-3.17-5.64.25-4.94,10.21-9.99,20.37-14.84,30.62-.53,1.13-.07,2.72-.08,4.1,1.28-.8,3.06-1.3,3.75-2.46,2.12-3.52,3.81-7.3,5.69-10.97,3.64-7.07,7.3-14.14,11.12-21.54ZM558.58,143.86c1.63-3.34,1.32-5.51-1.34-7.71-.84-1.51-1.55-2.52-3.51-.96-3.29,2.6-6.1,5.25-7.28,9.59-1.11,4.08-3.04,7.94-4.71,11.86-2.73,6.41-5.59,12.77-8.32,19.18-.99,2.33-1.56,4.7,1.93,5.9.48-1.08.9-2,1.3-2.93,5.43-12.69,10.77-25.42,16.36-38.05.79-1.78,2.76-3.04,4.18-4.55-.25.85-.42,1.75-.77,2.56-6.26,14.31-12.57,28.61-18.76,42.95-.37.86.2,2.13.33,3.21.42-.04.83-.07,1.24-.11.55-1.01,1.15-1.99,1.63-3.03,5.88-12.65,11.58-25.38,17.72-37.91ZM548,133.13c5.58-4.48,2.98-9.83,3.12-14.62-.98,4.63-1.97,9.25-3.12,14.62ZM545.41,143.16l-.72-.51c-1.59,1.29-3.24,2.51-4.75,3.89-1.59,1.44-3.62,2.77-4.45,4.61-2.99,6.55-5.4,13.37-8.34,19.95-1.48,3.32-.82,5.33,3,7.02,5.11-11.69,10.19-23.33,15.26-34.96ZM532.17,224.64c2.42-7.18,4.85-14.37,7.27-21.55-3.48,5.72-6.21,11.66-8.78,17.67-.48,1.13-.3,2.54-.43,3.81.65.03,1.29.05,1.94.07ZM537.86,190.79c-.51-.07-1.02-.14-1.52-.2-4.33,10.19-8.01,20.7-13.53,30.29-.48-.21-.96-.43-1.43-.65,4.44-10.64,8.88-21.27,13.58-32.51-1.43-1.24-2.89-2.51-4.34-3.77-1.8-1.56-3.6-3.11-5.31-4.59-1.02-.89-2.02-1.76-2.97-2.58,3.76-8.29,7.46-16.41,11.15-24.54-.33-.24-.66-.48-.98-.73-2.56,2.43-6.2,4.39-7.51,7.37-8.23,18.62-15.94,37.47-24.02,56.75,2.1.63,4.15,1.26,6.17,1.87,3.04.93,6.01,1.83,8.96,2.71,2.13.63,4.25,1.25,6.37,1.85.81.23,1.61.46,2.42.68.86.24,2.72-.78,3.14-1.67,3.27-7.02,6.56-14.05,9.26-21.3,1-2.69.42-5.97.56-8.98ZM520.22,253.26c6.07-7.34,13.09-13.88,20.12-21.23-4.58-1.48-8.83-2.99-13.15-4.21-22.5-6.37-44.98-12.79-67.54-18.95-29.42-8.02-58.9-15.84-88.37-23.68-6.83-1.82-11,.38-13.25,6.91-7.06,20.53-14.05,41.07-21.07,61.61-6.35,18.57-12.87,37.09-18.97,55.75-2.91,8.89-.95,11.89,7.96,14.46,19.87,5.73,39.77,11.33,59.58,17.25,32.19,9.63,64.32,19.48,96.48,29.21,6.43,1.94,10.62.16,13.07-6.13,3.98-10.23,7.82-20.53,11.32-30.93,4.56-13.58,8.76-27.29,13.02-40.97.28-.9.07-2.27-.45-3.06-8.21-12.23-8.13-24.69,1.25-36.03ZM524.07,297.5c.21-.64.03-1.4.03-2.11l-1.02-.21c-8.72,25.04-17.45,50.09-26.26,75.37,3.75-1.96,5.06-5.51,6.22-9.02,7.07-21.32,14.05-42.67,21.03-64.03ZM521.57,159.51l-.6-.87c-2.13,1.55-5.43,2.68-6.18,4.73-4.56,12.45-8.63,25.09-12.62,37.74-.78,2.45-.47,5.23-.6,7.05,6.54-15.92,13.27-32.28,20-48.65ZM512.44,162.65c-8-.76-6.68,7.24-11.23,10.07,1.07-2.65,2.13-5.29,3.2-7.94-.43-.08-.87-.17-1.3-.25-4.42,8.85-1.83,18.2-1.15,27.44,3.48-9.72,6.95-19.44,10.48-29.32ZM497.81,214.86c-.43-11.13-.84-21.76-1.28-33.06-5.93,9.83-11.4,18.92-17.03,28.26,6.1,1.6,12.23,3.21,18.31,4.8ZM282.56,292.38c2.5-.83,3.92-2.29,3.69-5.48-16.76,4.98-33.09,9.86-49.43,14.68-12.39,3.66-24.78,7.35-37.21,10.86-4.97,1.41-9.51.14-13.22-3.48-3.05-2.97-6.14-5.95-8.81-9.25-23.4-28.94-46.72-57.93-69.98-86.97-1.55-1.93-2.98-2.54-5.27-1.83-6.67,2.05-13.37,3.98-20.05,6.02-13.47,4.1-26.95,8.16-40.38,12.4-5.94,1.88-6.43,3.67-2.65,8.39,18.24,22.8,36.44,45.63,54.82,68.32,8.46,10.43,17.22,20.61,26.01,30.77,4.16,4.8,9.24,6.45,15.67,4.27,15.17-5.16,30.47-9.91,45.69-14.91,17.56-5.77,35.09-11.61,52.62-17.47,16.18-5.41,32.33-10.9,48.5-16.32ZM285.47,296.95c-.21-.32-.42-.63-.63-.95-.48.09-.97.12-1.42.27-23.17,7.73-46.31,15.53-69.5,23.18-26.14,8.63-52.31,17.17-78.5,25.67-5.87,1.91-11.31.85-15.74-3.62-3.45-3.48-6.89-7-10-10.78-21.36-26.09-42.64-52.24-63.95-78.38-3.27-4.01-6.53-8.01-9.8-12.02-.37.25-.73.51-1.09.76.88,1.6,1.55,3.38,2.68,4.79,19.36,24.22,38.7,48.46,58.25,72.52,7.32,9.02,15.07,17.7,22.84,26.34,3.91,4.36,8.95,5.94,14.79,4.32,2.36-.66,4.77-1.15,7.1-1.91,18.44-5.97,36.91-11.86,55.28-18.03,28.42-9.54,56.78-19.26,85.13-29.01,1.68-.58,3.04-2.08,4.56-3.15Z"/>
    <path class="cls-2" d="M1099.78,8.53c.29-.65.76-1.22,1.52-1.65-5.31,21.98-15.96,41.7-25.71,61.57l-2.28-1.12.39-.84c8.6-19.36,17.36-38.65,26.08-57.96Z"/>
    <path class="cls-2" d="M1053.42,506.29c7.83,5.87,7.59,10.26,4.52,19.84-.73,2.28-3.62,4.38-6.01,5.53-9.32,4.46-18.85,8.5-28.28,12.72-.8.36-1.51.93-2.48,1.54.45.75.68,1.54,1.2,1.95,7.29,5.69,5.38,13.59,2.81,20.57-.61,1.64-2.8,3.03-4.59,3.84-35.89,16.28-71.82,32.49-107.77,48.65-10.02,4.5-20.12,8.83-30.21,13.15-10.84,4.65-20.35,2.81-29.38-4.98-24.27-20.92-48.82-41.51-73.3-62.18-16.39-13.83-32.89-27.53-49.27-41.37-6.59-5.56-7.88-12.53-3.59-20.04,1.01-1.75,3.01-3.25,4.89-4.12,4.56-2.1,9.33-3.76,14.42-5.76l7.93-3.33c7.4-2.68,14.71-5.6,22.49-8.61-5.38-4.65-10.71-9.07-15.83-13.72-7.24-6.57-5.01-19.64,4.15-22.98,15.41-5.62,30.96-10.88,46.49-16.19,26.91-9.19,53.98-17.92,80.69-27.64,11.37-4.13,20.42-3.33,30.06,4.56,16.2,13.23,33.34,25.32,50.09,37.88,26.98,20.23,53.98,40.46,80.97,60.69ZM1049.73,528.15c2.39-1.07,4.91-2.18,5.28-5.98-1.64.71-2.79,1.19-3.92,1.71-6.34,2.91-12.63,5.95-19.03,8.72-28.35,12.27-56.7,24.53-85.12,36.63-9.26,3.94-18.69,7.51-28.14,10.97-4.9,1.79-9.85,1.07-14-2.15-9.18-7.1-18.26-14.34-27.25-21.68-33-27-65.94-54.07-98.91-81.11-5.46-4.48-10.93-8.94-16.4-13.41-.41.35-.82.69-1.23,1.03,1.64,2.06,2.99,4.47,4.96,6.11,15.29,12.74,30.67,25.35,46.07,37.95,17.6,14.4,35.25,28.74,52.87,43.12,12.61,10.3,25.2,20.61,37.78,30.93,5.14,4.21,10.93,5.1,17.14,3.24,3.09-.92,6.11-2.12,9.07-3.39,28.13-12.12,56.26-24.23,84.36-36.43,12.2-5.31,24.33-10.8,36.47-16.26ZM1050.09,519.86c6.4-2.84,6.58-5.78,1.1-10.35-.7-.58-1.44-1.1-2.16-1.64-14.67-11.03-29.33-22.06-43.99-33.09-29.74-22.36-59.44-44.78-89.29-67-2.98-2.23-6.86-3.24-10.32-4.81-.13.23-.26.47-.39.71-1.27.22-2.59.29-3.8.69-7.22,2.44-14.4,4.98-21.62,7.44-36.81,12.54-73.63,25.06-110.45,37.58-2.85.96-6.52,1.84-6.39,5.22.08,2.11,2.55,4.51,4.49,6.13,12.1,10.09,24.38,19.98,36.57,29.97,32.77,26.85,65.65,53.58,98.22,80.69,7.02,5.83,13.72,6.57,21.76,3.09,15.41-6.67,31-12.92,46.41-19.6,26.67-11.56,53.28-23.26,79.86-35.03ZM1019.67,560.71c2.26-1.02,4.11-2.41,3.09-5.36-1.73-5.04-7.02-7.51-11.89-5.44-11.53,4.9-23.02,9.91-34.54,14.82-17.71,7.54-35.43,15.07-53.16,22.56-7.91,3.33-15.31,2.74-22.17-2.83-4-3.25-8.24-6.19-12.38-9.27-.58-.59-1.16-1.17-1.74-1.75-10.05-8.49-20.09-16.97-30.13-25.45t-.02-.01c-7.89-6.46-15.87-12.83-23.65-19.4-3.02-2.55-5.18-1.88-7.49.87,1.25,2.17,2.42,4.23,3.6,6.29-.26.37-.52.73-.78,1.1-1.34-.56-3.29-.73-3.93-1.73-4.26-6.61-8.27-13.39-12.28-20.16-.75-1.27-.75-3.23-1.76-4.07-9.42-7.86-18.95-15.59-28.57-23.2-.94-.74-2.95-.9-4.12-.45-10.26,3.92-20.45,8.01-30.64,12.11-4.56,1.83-9.13,3.62-13.57,5.72-3.75,1.78-3.99,4.56-.89,7.18,6.31,5.33,12.64,10.65,18.97,15.96,18.7,15.69,37.45,31.31,56.07,47.09,16.94,14.36,33.74,28.89,50.62,43.34,3.81,3.25,7.97,6.23,13.24,5.2,5.03-.98,10.1-2.3,14.78-4.34,36.6-15.94,73.1-32.09,109.63-48.18,7.92-3.5,15.82-7.03,23.71-10.6ZM1022.13,565.48c-.33-.34-.66-.67-.99-1.01-4.37,1.9-8.76,3.77-13.12,5.7-40.76,18.04-81.51,36.12-122.31,54.07-3.74,1.65-7.75,2.97-11.78,3.67-8.16,1.42-14.36-2.77-20.21-7.82-15.55-13.42-31.14-26.78-46.79-40.08-19-16.15-38.06-32.21-57.12-48.28-6.74-5.7-13.56-11.32-20.34-16.97-.34.25-.68.5-1.03.76,1.04,1.76,1.77,3.85,3.19,5.23,2.96,2.86,6.31,5.33,9.47,8,18.05,15.25,36.13,30.49,54.15,45.78,19.69,16.72,39.37,33.45,58.99,50.26,8.2,7.02,17.07,10.04,27.52,5.5,6.4-2.77,12.83-5.5,19.19-8.35,23.23-10.42,46.44-20.85,69.63-31.34,15.78-7.14,31.52-14.35,47.22-21.65,1.63-.75,2.89-2.29,4.33-3.47ZM818.28,516.87c1.94,2.42,1.57,8,7.58,5.89-2.85-2.21-5.22-4.05-7.58-5.89Z"/>
    <path class="cls-1" d="M1051.19,509.51c5.48,4.57,5.3,7.51-1.1,10.35-26.58,11.77-53.19,23.47-79.86,35.03-15.41,6.68-31,12.93-46.41,19.6-8.04,3.48-14.74,2.74-21.76-3.09-32.57-27.11-65.45-53.84-98.22-80.69-12.19-9.99-24.47-19.88-36.57-29.97-1.94-1.62-4.41-4.02-4.49-6.13-.13-3.38,3.54-4.26,6.39-5.22,36.82-12.52,73.64-25.04,110.45-37.58,7.22-2.46,14.4-5,21.62-7.44,1.21-.4,2.53-.47,3.8-.69.13-.24.26-.48.39-.71,3.46,1.57,7.34,2.58,10.32,4.81,29.85,22.22,59.55,44.64,89.29,67,14.66,11.03,29.32,22.06,43.99,33.09.72.54,1.46,1.06,2.16,1.64ZM966.48,528.54c9.82-5.49,14.57-16.22,10.35-25.87-1.93-4.41-5.44-8.49-9.12-11.7-8.34-7.24-18.72-9.98-29.48-10.29-11.72-.34-22.91,1.58-31.38,11.18-6.71,7.61-7.17,18.42-.64,26.17,9.52,11.29,22.27,15.27,33.76,16.21,11.02-.15,19.08-1.54,26.51-5.7ZM948.52,449.57c1.19-.75,3.02-2.52,2.78-3.15-.84-2.21-2.74-2.1-4.81-1.09-6.52,3.16-9.65,2.28-14.41-3.97,2.5-1.32,4.98-2.63,7.69-4.07-2.73-3.44-5.2-1.97-7.41-.88-3.49,1.7-6.09,1.08-8.38-2.59,1.47-.75,2.92-1.28,4.08-2.17.7-.53.95-1.63,1.4-2.47-.87-.36-1.86-1.18-2.6-.99-2.73.7-5.45,1.55-8.02,2.7-2.12.94-1.87,2.53-.28,3.96,4.59,4.14,9.4,8.06,13.73,12.46,4.98,5.06,10.24,6.02,16.23,2.26ZM936.18,454.22c-.76-.89-1.36-2.14-2.33-2.6-3.15-1.48-6.48-2.55-9.64-4.02-1-.47-2.25-1.6-2.36-2.55-1.02-8.46-13.18-13.19-21.45-8.02-.66.41-1.04,2.8-.58,3.21,6.97,6.33,14.06,12.52,21.27,18.58.63.53,2.27-.13,3.45-.24-.4-.95-.55-2.17-1.24-2.82-1.91-1.8-4.04-3.36-6.08-5.01.16-.31.31-.61.47-.92,1.67.45,3.38.79,4.99,1.38,3.27,1.2,6.44,2.71,9.76,3.73,1.07.33,2.48-.45,3.74-.72ZM917.63,462.12c.31-.47.62-.93.93-1.4-1.08-1.16-1.96-2.62-3.26-3.42-8.14-4.96-16.35-9.82-24.63-14.57-1.04-.6-2.59-.32-3.9-.45.13,1.31-.19,2.95.47,3.88,4.55,6.4,9.22,12.71,14.09,18.86.81,1.02,2.79,1.12,4.23,1.64.23-.39.46-.78.68-1.18-.66-1.03-1.44-2.02-1.95-3.12-.57-1.25-.9-2.61-1.33-3.92,1.82-.38,3.71-1.26,5.42-1,1.66.26,3.1,1.75,4.7,2.59,1.48.78,3.03,1.4,4.55,2.09ZM897.51,469.77l1.23-2.19c-2.94-2.64-5.92-5.24-8.83-7.91-4.18-3.83-8.22-7.8-12.54-11.46-.87-.73-2.71-.32-4.11-.43.43,1.08.56,2.46,1.31,3.2,6,5.83,12.05,11.62,18.27,17.21,1.12,1.01,3.09,1.08,4.67,1.58ZM886.48,473.57c1-1.7-.06-5.13-1.11-7.37-.93-1.98-3.07-3.39-4.7-5.02-2.75-2.73-5.62-2.05-8.35-.07-.75.54-1.04,1.72-1.54,2.6,1.01.4,1.99.94,3.03,1.14.55.11,1.2-.4,1.82-.58,3.28-.91,4.71,1.5,6.03,3.66.54.89.23,2.31.3,3.5-2.05.03-4.62.87-6.05-.05-4.31-2.78-8.35-6.04-12.08-9.56-1.23-1.15-1.19-3.66-1.72-5.56,1.66-.07,3.33-.06,4.99-.24.87-.09,1.71-.51,2.57-.79-.52-.89-.83-2.24-1.59-2.58-1.61-.73-3.46-.94-4.45-1.18-5.47-.16-8.21,3.64-5.99,8.2,4.45,9.1,12.19,14.58,21.91,16.78,2.1.47,5.88-1.1,6.93-2.88ZM873.77,480.45c-.36-.96-.5-2.13-1.15-2.84-.84-.92-2.1-1.47-3.16-2.19-7.48-5.07-14.9-10.23-22.48-15.15-1.29-.83-3.24-.64-4.89-.92.27,1.54.18,3.27.88,4.57,2.01,3.75,4.23,7.4,6.59,10.95,2.21,3.32,4.57,6.58,7.16,9.61.63.74,2.42.49,3.67.69-.13-1.03-.02-2.17-.44-3.05-.75-1.59-1.83-3.02-2.81-4.58,2.7-2.41,5.13-2.71,7.89-.71,1.87,1.36,3.88,2.58,5.95,3.61.74.37,1.85.03,2.79,0ZM847.9,487.51c.74.4,1.86.12,2.81.15-.1-.82.05-1.78-.34-2.41-.79-1.31-1.76-2.56-2.85-3.63-4.47-4.42-9-8.76-13.65-13.26.76-.85.91-1.06,1.1-1.22,1.16-1,4.31-.46,3.04-3.3-1.07-2.41-3.3-1.95-5.37-1.17-2.9,1.09-5.89,1.96-8.66,3.31-1.25.62-2.06,2.16-3.07,3.28,1.5.28,3.21,1.16,4.47.73,2.47-.84,4.15-.32,5.88,1.42,4.55,4.55,9.18,9.03,13.79,13.53.92.9,1.76,1.97,2.85,2.57ZM840.11,490.65c1.16-3.65-1.69-5.97-4.53-7.15-3.59-1.5-7.53-2.19-11.34-3.13-2.34-.58-4.88-.65-7.04-1.59-1.4-.61-2.29-2.39-3.41-3.64,1.71-.25,3.42-.51,5.13-.74.24-.03.53.24.74.18.98-.29,1.95-.64,2.92-.98-.61-.84-1.04-2.05-1.87-2.45-1.34-.67-2.93-.98-4.45-1.15-3.08-.35-5.76.57-6.98,3.61-1.19,2.95.12,5.59,2.63,6.96,2.76,1.5,5.9,2.42,8.97,3.2,3.97,1,8.08,1.47,12.05,2.5.9.23,1.45,1.81,2.17,2.76-1.06.63-2.14,1.79-3.18,1.75-1.73-.06-3.41-1.02-5.16-1.34-1.07-.2-2.24.1-3.36.18.57,1.01.91,2.49,1.78,2.95,2.11,1.11,4.47,1.74,6.73,2.57,3.53-.5,7.05-.85,8.2-4.49Z"/>
    <path class="cls-2" d="M1040.65,595.65c.19.49.38.97.57,1.45-40.71,17.71-81.43,35.42-122.14,53.13l-.75-1.74c40.67-17.84,80.85-36.81,122.32-52.84Z"/>
    <path class="cls-2" d="M1027.11,39.34c.41-1.13,1.03-2.17,2.06-3.05-7.65,27.31-15.44,54.54-28.52,79.92l-2.22-.85c7.09-18.54,14.26-37.05,21.32-55.59,2.57-6.77,4.88-13.63,7.36-20.43Z"/>
    <path class="cls-2" d="M1015.13,623.65c-25.72,13.26-52.24,24.82-78.95,35.96,1.39-2.7,72.25-35.16,78.95-35.96Z"/>
    <path class="cls-2" d="M976.83,502.67c4.22,9.65-.53,20.38-10.35,25.87-7.43,4.16-15.49,5.55-26.51,5.7-11.49-.94-24.24-4.92-33.76-16.21-6.53-7.75-6.07-18.56.64-26.17,8.47-9.6,19.66-11.52,31.38-11.18,10.76.31,21.14,3.05,29.48,10.29,3.68,3.21,7.19,7.29,9.12,11.7ZM965.73,523.32c10.17-6.93,10.75-18.99,1.34-26.87-9.34-7.81-20.42-10.98-32.36-10.93-6.44.03-12.81.95-18.61,4.46-12.4,7.52-13.39,20.05-2.26,29.26,8.8,7.29,19,10.14,27.53,10.09,10.5.11,17.87-1.58,24.36-6.01Z"/>
    <path class="cls-2" d="M952.29,245.66c.08.41.16.81.25,1.22-30.16,8.16-60.47,15.67-90.94,22.59-.16-.45-.32-.89-.47-1.34,2.34-.83,4.63-1.88,7.04-2.46,13.8-3.38,27.63-6.63,41.44-9.97,13.31-3.21,26.6-6.49,39.9-9.71.9-.22,1.85-.23,2.78-.33Z"/>
    <path class="cls-2" d="M951.3,446.42c.24.63-1.59,2.4-2.78,3.15-5.99,3.76-11.25,2.8-16.23-2.26-4.33-4.4-9.14-8.32-13.73-12.46-1.59-1.43-1.84-3.02.28-3.96,2.57-1.15,5.29-2,8.02-2.7.74-.19,1.73.63,2.6.99-.45.84-.7,1.94-1.4,2.47-1.16.89-2.61,1.42-4.08,2.17,2.29,3.67,4.89,4.29,8.38,2.59,2.21-1.09,4.68-2.56,7.41.88-2.71,1.44-5.19,2.75-7.69,4.07,4.76,6.25,7.89,7.13,14.41,3.97,2.07-1.01,3.97-1.12,4.81,1.09Z"/>
    <path class="cls-2" d="M948.85,98.54c.76-3.07,1.56-6.14,2.96-9.05-4.49,24.29-7.03,49.03-18.03,72.06l-1.36-.47c1.58-4.65,3.21-9.3,4.43-14.05,4.1-16.13,8.01-32.32,12-48.49Z"/>
    <path class="cls-2" d="M933.85,451.62c.97.46,1.57,1.71,2.33,2.6-1.26.27-2.67,1.05-3.74.72-3.32-1.02-6.49-2.53-9.76-3.73-1.61-.59-3.32-.93-4.99-1.38-.16.31-.31.61-.47.92,2.04,1.65,4.17,3.21,6.08,5.01.69.65.84,1.87,1.24,2.82-1.18.11-2.82.77-3.45.24-7.21-6.06-14.3-12.25-21.27-18.58-.46-.41-.08-2.8.58-3.21,8.27-5.17,20.43-.44,21.45,8.02.11.95,1.36,2.08,2.36,2.55,3.16,1.47,6.49,2.54,9.64,4.02ZM905.11,439.84c6.6,6.89,7.44,7.12,11.42,3.31-2.62-4.06-6.34-5.21-11.42-3.31Z"/>
    <path class="cls-2" d="M928.92,239.02c.11.5.23,1,.34,1.5-26.78,6.91-53.56,13.86-80.8,18.86-.12-.55-.25-1.09-.37-1.63,26.94-6.24,53.88-12.49,80.83-18.73Z"/>
    <path class="cls-2" d="M918.56,460.72c-.31.47-.62.93-.93,1.4-1.52-.69-3.07-1.31-4.55-2.09-1.6-.84-3.04-2.33-4.7-2.59-1.71-.26-3.6.62-5.42,1,.43,1.31.76,2.67,1.33,3.92.51,1.1,1.29,2.09,1.95,3.12-.22.4-.45.79-.68,1.18-1.44-.52-3.42-.62-4.23-1.64-4.87-6.15-9.54-12.46-14.09-18.86-.66-.93-.34-2.57-.47-3.88,1.31.13,2.86-.15,3.9.45,8.28,4.75,16.49,9.61,24.63,14.57,1.3.8,2.18,2.26,3.26,3.42ZM893.35,448.23q4.83,6.91,8.33,5.04c-2.61-1.58-5.05-3.05-8.33-5.04Z"/>
    <path class="cls-1" d="M916.53,443.15c-3.98,3.81-4.82,3.58-11.42-3.31,5.08-1.9,8.8-.75,11.42,3.31Z"/>
    <path class="cls-1" d="M904.45,97.75c.99,2.52.83,4.52-.64,6.87-8.88,14.23-16.85,29.06-27.99,41.76-1.73,1.98-4.01,3.48-6.03,5.2-.31-.33-.61-.66-.92-.99,8.41-12.94,18.77-24.71,24.05-39.52-1.78,2-2.89,4.41-4.37,6.57-7.72,11.31-15.48,22.59-23.38,33.77-.82,1.16-2.61,1.62-4.43,2.7,6.6-12.93,14.83-24.08,19.23-37.24-.79.38-1.27.94-1.64,1.56-6.8,11.59-13.4,23.29-20.5,34.69-1.89,3.04-5.28,5.14-7.98,7.67-.19-.23-.37-.45-.56-.67,4.86-9.33,9.73-18.65,14.59-27.97-.39-.21-.79-.42-1.18-.63-.29.38-.64.74-.87,1.15-5.14,8.96-10.11,18.02-15.48,26.84-1.67,2.76-4.41,4.87-6.66,7.27-.31-.28-.62-.55-.93-.83,4.11-9.37,10.26-17.85,12.52-28.02-3.45,5.89-6.17,12.18-9.73,17.95-3.53,5.72-5.04,12.84-10.49,17.3-.39-.2-.78-.41-1.17-.61,3.64-9.46,7.28-18.93,10.93-28.39-.35-.15-.69-.3-1.03-.45-.75,1.42-1.54,2.82-2.23,4.27-4.83,10.13-9.39,20.39-14.59,30.33-1.78,3.39-5.14,5.96-7.77,8.9-.26-.25-.51-.5-.77-.75,5.5-13,14.46-24.58,15.95-39.2-1.42,2.95-2.03,6.24-3.43,9.15-3.69,7.68-7.66,15.23-11.65,22.76-1.69,3.2-3.49,6.38-5.63,9.27-1.82,2.47-3.95,4.98-8.84,4.97,8.59-12.24,15.75-24.19,19.15-37.98-.91.7-1.6,1.56-1.98,2.53-5.81,15.12-14.33,28.59-24.48,41.14-2.74,3.38-6.21,5.04-11.15,6.62,11.18-12.56,19.72-25.43,23.32-41.16-6.79,16.87-16.57,31.6-30.11,43.68,7.2-11.31,15.31-22.08,18.22-35.55-.9.75-1.5,1.68-1.9,2.69-4.73,11.74-11.76,22.08-19.56,31.95-2.54,3.23-4.08,3.88-8.5,3.74,7.67-9.48,13.64-19.87,17.85-31.28-.85.29-1.4.77-1.78,1.36-6.52,10.2-13.01,20.43-19.59,30.6-.49.77-1.49,1.43-2.38,1.67-2.84.78-5.74,1.33-8.61,1.97,10.25-6.86,16.01-16.73,19.58-28.13-.85.41-1.55.98-1.88,1.72-4.41,10.06-10.84,18.51-20.11,24.53-2.43,1.58-5.42,2.31-8.16,3.43-.21-.41-.41-.82-.62-1.24,7.98-7.48,16-14.92,19.97-26.63-1.13.91-1.54,1.14-1.83,1.49-6.47,7.84-13,15.65-19.36,23.58-2.82,3.52-6.56,3.73-10.6,4.01,7.78-9.77,15.35-19.28,22.93-28.79-.4-.31-.79-.63-1.18-.94-.82.95-1.64,1.89-2.47,2.83-6.55,7.48-12.91,15.15-19.73,22.37-3.17,3.36-7,6.54-13.1,4.75,3.52-3.16,6.77-5.84,9.75-8.79,3.01-3,6.04-6.07,8.52-9.5,2.37-3.27,4.06-7.04,6.04-10.59-.36-.19-.73-.39-1.09-.58-1.21,1.93-2.16,4.12-3.69,5.76-6.6,7.05-13.47,13.84-20.02,20.94-2.6,2.83-5.09,2.74-8.59,1.12,9.91-7.95,18.88-16.16,22.8-28.44-5.04,4.97-6.92,13.74-15.99,13.32,2.3-4.12,4.76-8.54,7.23-12.97-.32-.22-.63-.44-.95-.66-6.51,8.63-11.1,19.15-22.39,23.98,4.63-8.23,8.93-15.86,13.23-23.5-.43-.3-.87-.59-1.31-.89-7.5,11.07-11.98,24.77-25.87,30.59,2.65-3.97,5.3-7.62,7.6-11.47,2.3-3.86,4.25-7.92,6.36-11.89-.3-.17-.6-.35-.9-.52-.49.56-1.05,1.06-1.45,1.67-5.23,7.85-10.26,15.83-15.74,23.5-1.81,2.54-4.76,4.27-7.18,6.37-.11-.2-.21-.4-.31-.59,4.43-8.55,8.87-17.09,13.31-25.63-.36-.2-.71-.39-1.07-.58-.49.71-1,1.41-1.46,2.14-5.56,8.85-10.93,17.82-16.77,26.49-1.67,2.48-4.66,4.08-7.04,6.09-.3-.28-.6-.55-.9-.83,5.1-7.47,10.38-14.84,12.5-23.87-7.25,11.31-12.74,23.93-24.37,31.81,4.53-8.56,11.08-16,13.26-25.76-.64.28-1.13.68-1.43,1.19-4.95,8.02-10.17,15.9-14.66,24.17-2.29,4.22-5.76,6.2-9.67,8.12,5.34-7.42,10.11-15.06,12.55-23.94-4.28,6.43-7.97,13.23-12.36,19.54-7.19,10.33-10.87,13.38-16.43,15.1,8.05-7.89,13.58-17.3,16.87-28.06-1.13,1.03-2.08,2.21-2.66,3.54-7.48,17.24-20.6,29.21-36.36,38.55-10.9,6.46-22.03,12.51-33.16,18.55-4.4,2.38-8.93,3.6-13.55,3.81l-.09-1.71c10.1-2.02,20.2-7.19,26.42-17.98,1.29-2.24,1.55-6.09.54-8.45-3.35-7.88-7.99-15.07-15.14-20.17-4.73-3.38-9.86-4.74-15.15-1.3-5.71,3.72-11.69,7.2-16.7,11.73-2.81,2.53-5,6.83-5.52,10.6-.04.3-.07.6-.09.91l-1.73-.1c.31-4.93,2.01-9.7,5.33-13.4,10.59-11.79,22.13-22.49,34.54-32.2,21.46-16.79,43.33-33.09,65-49.62,15.84-12.09,29.36-26.12,36.99-44.95,1.99-4.92,3.74-9.95,5.6-14.93-.55-.25-1.09-.5-1.63-.76-5.82,10.95-11.63,21.89-17.45,32.84-.49-13.8,1.13-27.13-1.14-40.47-4.3,14.31-1.34,29.43-4.81,44.01-3.48-17.48-6.89-34.63-10.3-51.78-.45.06-.9.11-1.35.17-3.01,5.09,1.11,10.61-.5,15.78-1.66,5.36-3.34,10.72-5.21,16.73-5.9-5.17-.92-11.49-3.42-16.6-.84,3.4-1.67,6.81-2.55,10.39-5.41-3.08-1.54-8.66-3.99-13.3-.65,2.93-1.11,4.98-1.69,7.59-1.2-1-2.01-1.57-2.69-2.26-7.56-7.77-9.87-17.59-10.99-27.91-.36-3.3-1.12-6.56-1.7-9.84-.53.04-1.06.07-1.6.11-.27,1.54-.67,3.07-.77,4.62-.2,2.84.42,5.88-.42,8.48-2.76,8.47-5.78,16.88-9.24,25.08-.91,2.13-3.8,3.42-5.78,5.09-.19-.28-.38-.57-.57-.86,2.72-9.98,5.43-19.96,8.15-29.94-.46-.14-.91-.28-1.37-.42-.28.65-.64,1.28-.85,1.96-2.65,8.5-5.53,16.95-7.83,25.55-1.55,5.79-6.14,6.44-11.49,8.4,5.63-12.16,9.11-23.89,11.05-36.07-.91.76-1.27,1.68-1.6,2.61-3.64,10.36-7.26,20.72-10.93,31.06-.38,1.08-.87,2.21-1.6,3.07-1.73,2.03-3.32,1.62-4.04-.99-.31-1.11-.36-2.29-.49-3.44-.77-6.4-1.47-12.81-2.35-19.2-.13-.96-1.08-1.8-1.65-2.7-.57.99-1.69,2.02-1.63,2.97.64,10.52-3.78,19.96-6.22,29.81-.92,3.71-3.47,6.38-7.22,8.54,2.27-9.9,7.33-18.74,5.27-28.88-.56.86-.88,1.79-1.12,2.74-2.14,8.35-4.22,16.72-6.41,25.06-.96,3.67-3.53,5.95-7.32,7.93,2.93-10.18,6.74-19.58,5.75-29.9-.64.8-1.11,1.65-1.33,2.57-2.15,8.89-4.21,17.81-6.39,26.7-.81,3.29-2.32,4.39-5.75,4.92,1.5-6.87,3.02-13.89,4.54-20.92-.46-.1-.92-.21-1.38-.32-.36,1.16-.75,2.32-1.09,3.5-1.6,5.44-3.32,10.85-4.75,16.34-1.05,4.03-3.85,4.96-7.72,5.23,1.65-5.37,3.2-10.4,4.75-15.43-.34-.12-.69-.24-1.04-.36-2.44,5.05-4.82,10.13-7.39,15.11-.5.96-1.75,1.53-2.66,2.28-.24-1.13-.88-2.34-.65-3.37.8-3.58,1.9-7.11,2.88-10.65-.3-.14-.61-.28-.91-.42-1.59,3.19-3.17,6.39-4.99,10.05-2.73-7.19-7.08-12.55-13.68-15.97.1,1.38.58,2.5,1.23,3.5,2.05,3.14,4.65,6.02,6.12,9.4,1.49,3.45,3.52,8.06,2.32,10.9-1.28,3.02-1.07,5.79-1.67,8.64-.84,3.99-1.91,7.93-2.88,11.89-.36-.09-.72-.18-1.07-.28.24-5.03,2.16-10.06-.01-15.12-.8,1.96-1.04,3.97-1.37,5.96-1.38,8.14-.24,16.99-6.65,23.73.52-6.03,1.43-12.07-.28-18.07-1.76,6.54-3.53,13.05-1.56,19.83-1.02,1.73-2.04,3.46-2.73,4.64-2.29-3.74-4.75-7.75-7.21-11.75-.67.33-1.35.67-2.02,1,2.06,5.13,4.13,10.27,6.31,15.68-3.76-.95-7.26-1.78-10.74-2.71-9.88-2.65-19.77-5.3-29.65-7.96l.27-1.01c1.09-.75,2.26-1.41,3.25-2.28.42-.38.49-1.18.68-1.79,6.33-20.77,12.6-41.55,19.02-62.28,1.89-6.13,5.69-10.56,11.43-13.97,16.09-9.57,32.61-18.69,47.55-29.86,20.36-15.22,39.5-32.09,59-48.44,7.27-6.1,15.16-7.96,24.49-6.5,24.5,3.84,49.05,7.31,73.6,10.82,28.84,4.12,57.81,6.16,86.91,4.36,10.66-.66,21.52-1.67,31.75-4.47,14.79-4.05,29.19-9.63,43.55-15.1,4.89-1.87,8.59-.96,12.69,1.45,10.93,6.42,20.36,14.49,28.56,24.16,11.46,13.52,20.89,28.21,27.4,44.74ZM612.01,242.88c1.41-9.32-14.32-29.09-19.78-28.15,2.78,3.41,6.32,7.2,9.21,11.43,2.98,4.34,5.31,9.13,7.99,13.68.58.98,1.49,1.77,2.58,3.04ZM603.39,244.6c.47-.43.94-.86,1.42-1.29-4.82-7.78-11.8-13.62-18.02-20.14-.59.52-1.18,1.04-1.76,1.56,6.12,6.63,12.24,13.25,18.36,19.87ZM594.95,250.5c-5.88-8.31-11.76-16.64-17.6-24.9-1.27,6.49,11.21,24.01,17.6,24.9Z"/>
    <path class="cls-2" d="M902.91,233.12c.09.42.18.83.26,1.25-25.52,5.78-51.05,11.56-76.58,17.33-.13-.16-.26-.31-.4-.47,1.78-.88,3.46-2.12,5.33-2.57,14.44-3.49,28.89-6.93,43.37-10.19,8.44-1.9,16.96-3.45,25.45-5.13.84-.16,1.71-.15,2.57-.22Z"/>
    <path class="cls-2" d="M898.74,467.58l-1.23,2.19c-1.58-.5-3.55-.57-4.67-1.58-6.22-5.59-12.27-11.38-18.27-17.21-.75-.74-.88-2.12-1.31-3.2,1.4.11,3.24-.3,4.11.43,4.32,3.66,8.36,7.63,12.54,11.46,2.91,2.67,5.89,5.27,8.83,7.91Z"/>
    <path class="cls-2" d="M888.62,575.19c1.14,1.67.45,2.33-1.32,2.37-12.69.23-23.24-4.42-31.22-14.26-2.82-3.47-4.19-7.85-2.69-12.38.4-1.2,2.17-1.95,3.31-2.9.93,14.35,9.88,23.22,24.83,24.66,1.79.17,3.57.5,5.35.76.58.58,1.16,1.16,1.74,1.75Z"/>
    <path class="cls-2" d="M885.37,466.2c1.05,2.24,2.11,5.67,1.11,7.37-1.05,1.78-4.83,3.35-6.93,2.88-9.72-2.2-17.46-7.68-21.91-16.78-2.22-4.56.52-8.36,5.99-8.2.99.24,2.84.45,4.45,1.18.76.34,1.07,1.69,1.59,2.58-.86.28-1.7.7-2.57.79-1.66.18-3.33.17-4.99.24.53,1.9.49,4.41,1.72,5.56,3.73,3.52,7.77,6.78,12.08,9.56,1.43.92,4,.08,6.05.05-.07-1.19.24-2.61-.3-3.5-1.32-2.16-2.75-4.57-6.03-3.66-.62.18-1.27.69-1.82.58-1.04-.2-2.02-.74-3.03-1.14.5-.88.79-2.06,1.54-2.6,2.73-1.98,5.6-2.66,8.35.07,1.63,1.63,3.77,3.04,4.7,5.02Z"/>
    <path class="cls-2" d="M872.62,477.61c.65.71.79,1.88,1.15,2.84-.94.02-2.05.36-2.79,0-2.07-1.03-4.08-2.25-5.95-3.61-2.76-2-5.19-1.7-7.89.71.98,1.56,2.06,2.99,2.81,4.58.42.88.31,2.02.44,3.05-1.25-.2-3.04.05-3.67-.69-2.59-3.03-4.95-6.29-7.16-9.61-2.36-3.55-4.58-7.2-6.59-10.95-.7-1.3-.61-3.03-.88-4.57,1.65.28,3.6.09,4.89.92,7.58,4.92,15,10.08,22.48,15.15,1.06.72,2.32,1.27,3.16,2.19ZM849.38,466.46c2.15,2.12,1.61,7.77,7.81,5.58-3.04-2.18-5.42-3.88-7.81-5.58Z"/>
    <path class="cls-2" d="M862.58,229.5c.12.63.24,1.27.36,1.9-15.7,3.38-30.93,8.78-46.85,11.2-.14-.58-.27-1.16-.41-1.73,15.64-3.79,31.27-7.58,46.9-11.37Z"/>
    <path class="cls-2" d="M853.78,333.11c.62,7.75-3.06,13.65-9.54,16.83-17.29,8.48-34.35,7.18-50.32-3.61-6.01-4.06-10.19-9.86-9.23-17.64,1.04-8.37,6.35-13.83,13.99-16.6,5.37-1.96,11.14-2.85,16.73-4.21.06.32.13.63.2.95,11.13-.14,21.23,2.94,29.93,9.91,4.56,3.65,7.76,8.29,8.24,14.37ZM842.26,345.99c9.21-6,9.93-15.9,1.34-22.87-8.11-6.58-17.74-9.17-28.3-10.26-5.59,1.32-11.47,1.94-16.73,4.09-10.61,4.33-12.56,15.2-4.72,23.43,10.55,11.1,35.54,14,48.41,5.61Z"/>
    <path class="cls-2" d="M850.71,487.66c-.95-.03-2.07.25-2.81-.15-1.09-.6-1.93-1.67-2.85-2.57-4.61-4.5-9.24-8.98-13.79-13.53-1.73-1.74-3.41-2.26-5.88-1.42-1.26.43-2.97-.45-4.47-.73,1.01-1.12,1.82-2.66,3.07-3.28,2.77-1.35,5.76-2.22,8.66-3.31,2.07-.78,4.3-1.24,5.37,1.17,1.27,2.84-1.88,2.3-3.04,3.3-.19.16-.34.37-1.1,1.22,4.65,4.5,9.18,8.84,13.65,13.26,1.09,1.07,2.06,2.32,2.85,3.63.39.63.24,1.59.34,2.41Z"/>
    <path class="cls-2" d="M835.58,483.5c2.84,1.18,5.69,3.5,4.53,7.15-1.15,3.64-4.67,3.99-8.2,4.49-2.26-.83-4.62-1.46-6.73-2.57-.87-.46-1.21-1.94-1.78-2.95,1.12-.08,2.29-.38,3.36-.18,1.75.32,3.43,1.28,5.16,1.34,1.04.04,2.12-1.12,3.18-1.75-.72-.95-1.27-2.53-2.17-2.76-3.97-1.03-8.08-1.5-12.05-2.5-3.07-.78-6.21-1.7-8.97-3.2-2.51-1.37-3.82-4.01-2.63-6.96,1.22-3.04,3.9-3.96,6.98-3.61,1.52.17,3.11.48,4.45,1.15.83.4,1.26,1.61,1.87,2.45-.97.34-1.94.69-2.92.98-.21.06-.5-.21-.74-.18-1.71.23-3.42.49-5.13.74,1.12,1.25,2.01,3.03,3.41,3.64,2.16.94,4.7,1.01,7.04,1.59,3.81.94,7.75,1.63,11.34,3.13Z"/>
    <path class="cls-2" d="M839.16,282.93c-.87,1-1.54,2.41-2.64,2.94-5.17,2.5-9.87,3.31-14.52-1.89-4.76-5.32-10.49-9.77-15.8-14.6.09-.59.18-1.19.27-1.79,3.3-.72,6.58-1.6,9.92-2.04.84-.11,1.86,1.19,2.8,1.84-.8.69-1.5,1.58-2.42,2.02-.89.42-1.99.37-3.04.53,2.5,5.16,4.32,5.85,9.48,4.13,2.1-.7,4.46-2.52,7.1.96-2.97,1.23-5.58,2.3-8.24,3.4,5.31,6.16,5.53,6.13,12.78,3.73,1.22-.4,2.86.48,4.31.77Z"/>
    <path class="cls-2" d="M825.41,289.82c-7.85,1.24-12.26-5.75-18.6-6.05-.29.38-.58.75-.88,1.12,1.61,1.36,3.35,2.6,4.78,4.12.67.71.75,1.95,1.1,2.95-1.14-.12-2.55.14-3.37-.44-2.3-1.63-4.43-3.53-6.5-5.46-3.68-3.43-7.37-6.86-10.87-10.48-2.49-2.58-2.08-3.78,1.22-4.94,8.39-2.95,16.34,1.06,19.12,9.32.46,1.39,2.33,2.48,3.77,3.32,2.79,1.61,5.75,2.92,8.61,4.41.39.21.6.77,1.62,2.13ZM796.96,274.58c2.86,5.81,5.44,6.73,9.2,3.51-2-3.34-5.05-4.57-9.2-3.51Z"/>
    <path class="cls-2" d="M817.88,535.73c.72.83.43,2.52.61,3.82-1.44-.38-3.35-.31-4.23-1.22-4.44-4.64-8.67-9.5-12.87-14.36-1.76-2.03-3.51-3.39-6.28-1.82-.63.36-1.55.5-2.25.35-1.04-.24-2-.83-3-1.27.65-.83,1.12-2.08,1.97-2.43,4.03-1.68,8.12-3.29,12.31-4.52,1.08-.31,2.58.84,3.89,1.32-.84.89-1.62,1.84-2.54,2.64-.63.56-1.44.92-2.21,1.39,5.01,5.47,9.91,10.69,14.6,16.1Z"/>
    <path class="cls-2" d="M803.58,536.07c2.59,1.36,4.76,3.54,4.11,6.8-.65,3.28-3.63,4.72-6.43,4.55-3.31-.2-6.57-1.55-9.78-2.61-.51-.17-.65-1.45-.96-2.22.88-.27,1.85-.92,2.62-.74,1.99.47,3.86,1.61,5.85,1.86,1.12.14,2.39-.97,3.6-1.52-.62-1.14-.98-2.94-1.89-3.29-2.84-1.08-5.89-1.61-8.86-2.36-3.71-.93-7.56-1.51-11.09-2.9-2.98-1.17-5.4-3.68-4.4-7.27,1.01-3.58,4.45-3.84,8.17-4.27,1.21.42,2.96.88,4.55,1.65.63.31.93,1.31,1.38,1.99-.84.41-1.65.98-2.54,1.17-.54.11-1.23-.61-1.81-.54-1.59.2-3.17.62-4.75.95.99,1.32,1.75,3.46,3.01,3.81,3.68,1.03,7.61,1.13,11.35,2,2.71.63,5.4,1.65,7.87,2.94Z"/>
    <path class="cls-2" d="M806.24,292.57c-2.33,2.43-4.12,1.92-5.79.28-5.39-5.33-10.79-10.64-16.05-16.1-.79-.83-.8-2.41-1.17-3.64,1.25.31,2.9.21,3.71.99,3.8,3.64,7.29,7.6,11.06,11.28,2.53,2.47,5.34,4.67,8.24,7.19Z"/>
    <path class="cls-2" d="M796.21,292.02c.91.67,1.21,2.17,1.79,3.28-1.27-.2-2.66-.12-3.77-.65-3.01-1.45-5.33-5.49-9.44-2.24-.19.15-.3.4-.68.92.73,1.25,1.54,2.62,2.97,5.07-1.98-.26-3.53.02-4.17-.61-6.14-6.06-9.82-13.61-12.97-21.44.29-.37.58-.74.86-1.11,1.47.55,3.13.83,4.38,1.7,7.08,4.93,14.09,9.95,21.03,15.08ZM777.28,282.64c1.31,2.29,1.21,6.25,6.44,4.98-2.66-2.06-4.55-3.52-6.44-4.98Z"/>
    <path class="cls-2" d="M778.52,300.53c-.25.39-.49.78-.73,1.18-1.44-.74-3.19-1.17-4.26-2.27-4.92-5.07-9.73-10.26-14.39-15.57-1.03-1.17-1.28-3.02-1.9-4.55,1.57.52,3.62.57,4.61,1.63,5.45,5.83,10.64,11.9,15.89,17.92.39.44.52,1.1.78,1.66Z"/>
    <path class="cls-2" d="M768.96,300.82c.32,3.64-4.51,6.39-8.73,4.9-2.52-.89-5.14-2.12-7.08-3.88-3.5-3.19-6.79-6.7-9.63-10.47-1.67-2.21-2.07-5.82.7-7.26,2.29-1.18,5.55-.7,8.35-.53.59.04,1.06,1.97,1.59,3.03-.9.14-1.79.3-2.68.43-1.2.18-2.98-.06-3.45.62-.53.75-.33,2.77.35,3.48,3.26,3.44,6.67,6.77,10.31,9.8.88.74,2.81.24,4.25.31-.02-1.35.47-3.12-.2-3.93-.86-1.04-2.8-2-4.02-1.75-2.47.5-4.27.46-5.67-2.48,2.95-1.8,5.62-3.69,8.81-1.86,3.71,2.12,6.71,5.09,7.1,9.59Z"/>
    <path class="cls-2" d="M753.49,305.29c.55.46.89,1.17,1.44,1.91-3.04,2.24-4.66-.13-6.28-1.68-2.45-2.36-4.87-3.16-8.1-.64.7,1.24,1.54,2.38,2,3.65.3.82.04,1.84.04,2.77-1.04-.2-2.1-.35-3.12-.64-.3-.09-.55-.53-.73-.87-3.4-6.22-6.85-12.4-10.08-18.7-.54-1.06-.09-2.63-.1-3.96,1.39.28,3.13.12,4.11.91,7.03,5.64,13.92,11.46,20.82,17.25Z"/>
    <path class="cls-2" d="M736.45,312.03c-2.77,2.38-4.08,1.12-5.42-.46-3.93-4.6-7.9-9.15-11.85-13.73-1.75-2.04-3.56-3.6-6.62-2.66-.8.24-1.96-.73-2.96-1.14.68-.81,1.21-2.06,2.06-2.36,2.66-.94,5.44-1.55,8.19-2.22,2.03-.49,4.5-1.14,5.08,1.59.19.92-1.99,2.34-2.92,3.35,4.66,5.69,9.5,11.6,14.44,17.63Z"/>
    <path class="cls-2" d="M724.9,311.83c1.88,2.03.7,4.34-1.82,5.64-3.42,1.75-9.66.44-12.05-2.68-.44-.58-.33-1.58-.47-2.39.81,0,1.74-.27,2.42.03,5.28,2.29,5.26,2.33,8.8.33-1.86-1.31-3.29-2.8-5.03-3.42-3.14-1.12-6.58-1.41-9.67-2.63-2.67-1.06-5.33-2.6-7.41-4.56-1.1-1.04-1.72-3.72-1.16-5.08.58-1.39,2.82-2.77,4.42-2.89,2.01-.14,4.16.88,6.15,1.67.58.23.78,1.39,1.16,2.12-.78.22-1.59.69-2.35.61-1.77-.17-3.51-.61-5.67-1.02.5,4.33,3.25,5.07,5.76,5.8,2.71.79,5.82.65,8.24,1.91,3.19,1.65,6.25,3.92,8.68,6.56Z"/>
    <path class="cls-2" d="M706.64,342c-.27.44-.54.88-.8,1.31-1.31-.49-2.69-.88-3.92-1.52-1.48-.77-2.77-2.27-4.29-2.51-1.59-.26-3.36.61-5.04.98.28,1.25.47,2.53.87,3.74.31.94.88,1.8,1.34,2.7-.17.38-.34.77-.51,1.15-1.36-.52-3.32-.63-3.99-1.62-4.4-6.51-8.63-13.15-12.66-19.9-1.34-2.23,0-3.74,2.66-3.23,1.35.26,2.74.86,3.87,1.65,6.56,4.6,13.07,9.27,19.52,14.01,1.15.85,1.98,2.15,2.95,3.24ZM683.82,329.66c4.31,7.42,4.46,7.51,7.1,4.88-2.1-1.44-4.18-2.88-7.1-4.88Z"/>
    <path class="cls-2" d="M684.51,350.25c-3.13,1.4-3.95-1.46-5.45-3-4.32-4.45-8.48-9.06-12.98-13.32-1.02-.97-3.17-.72-4.78-1.13-1.48-.37-2.93-.85-4.4-1.28.97-1,1.77-2.45,2.95-2.91,2.75-1.06,5.66-2,8.57-2.31,1.73-.18,3.6.93,5.41,1.46-1.18,1.11-2.36,2.21-4.03,3.77,3.9,4.23,8.19,8.67,12.19,13.35,1.24,1.45,1.7,3.56,2.52,5.37Z"/>
    <path class="cls-2" d="M668.75,344.91c2.88,1.05,5.54,3.19,4.67,7.05-.66,2.9-4.43,4.96-8.17,4.36-2.01-.32-4.04-1-5.82-1.97-1.03-.56-1.56-2.03-2.31-3.09,1.24-.07,2.5-.31,3.73-.17,2,.23,3.97.85,5.98,1,.68.05,1.44-.82,2.51-1.49-3.31-4.1-7.86-3.93-12.02-4.92-3.57-.85-7.23-1.94-10.34-3.79-1.55-.93-2.96-4.03-2.57-5.73s2.88-3.53,4.82-4.14c2.97-.93,6.01-.2,8.09,3.57-1.61,0-3.24-.17-4.82.06-1.14.15-2.2.83-3.29,1.27.59,1.07.92,2.54,1.83,3.11,1.34.85,3.07,1.12,4.67,1.53,4.35,1.1,8.85,1.81,13.04,3.35Z"/>
    <path class="cls-2" d="M636.92,494.41c8,7.77,4.94,21.39-5.51,25.21-32.29,11.8-64.54,23.71-96.83,35.5-12.99,4.75-26.09,9.2-39.08,13.95-11.83,4.33-22.92-2.96-28.17-10.65-22.54,8.35-45.17,16.74-68.99,25.58,3.18,2.86,6,4.85,8.08,7.43,2.48,3.08,4.87,6.45,6.31,10.09,3.57,9-.62,17.81-9.6,21.37-6.25,2.48-12.49,4.97-18.72,7.5-30.29,12.3-60.57,24.66-90.88,36.94-11.38,4.61-22.73,9.31-34.27,13.49-9.22,3.33-17.83,2.23-24.71-5.67-2.8-3.21-5.73-6.3-8.63-9.42-24.46-26.31-48.98-52.56-73.34-78.96-11.13-12.05-21.96-24.38-32.86-36.64-6.63-7.46-3.39-20.75,5.9-24.23,5.69-2.12,11.47-4,17.19-6.04,7.26-2.57,14.5-5.19,22.3-7.99-24.07-29.89-47.72-59.24-71.49-88.75l-3.21-3.49c-3.29-4.21-5-8.99-3.92-14.62,1.12-5.84,4.35-9.36,10.07-10.98,27.86-7.87,55.71-15.77,83.53-23.77,19.12-5.49,38.21-11.12,57.28-16.77,7.11-2.1,13.98-2.85,20.19,2.32,2.48,2.07,4.93,4.18,7.27,6.4,16.15,15.28,32.28,30.56,48.37,45.9,2.68,2.55,5.35,3.23,9.11,2.23,40.45-10.79,80.95-21.41,121.45-32.02,5.25-1.37,10.66-2.14,15.87-3.65,11.55-3.35,20.48.08,28.23,9.09,5.79,6.72,12.59,12.58,18.22,18.11,8.87-3.31,17.65-6.08,26.76-4.9,9.9,1.28,14.62,10.34,20.38,15.78l6.66,5.12c1.33,2.8,3.01,4.86,4.91,6.69,24.03,23.3,48.09,46.56,72.13,69.85ZM636.01,511.75c-.3-.41-.61-.83-.91-1.24-2.15.86-4.27,1.78-6.44,2.58-22.16,8.23-44.29,16.58-66.53,24.6-21.75,7.84-43.63,15.33-65.46,22.98-7.25,2.54-13.91,1.56-20.19-2.97-1.15-.82-3.07-.56-5.3-.91,8.46,10.32,17.87,11.33,28.63,6.83,7.39-3.08,15.02-5.58,22.54-8.34,35.9-13.17,71.8-26.32,107.67-39.59,2.18-.81,4-2.6,5.99-3.94ZM633.58,506.51c4.13-1.68,4.5-4.56,1.62-7.96-.83-.98-1.8-1.85-2.73-2.75-19.55-18.82-39.2-37.53-58.6-56.49-11.37-11.11-22.38-22.57-33.47-33.97-3.4-3.5-7.37-5.33-12.17-4.58-5.61.88-11.16,2.09-16.71,3.24-.78.16-1.46.74-2.87,1.5,4.24,4.01,8.08,7.64,11.94,11.27,3.85,3.63,7.71,7.25,11.58,10.87.91.87,1.82,1.73,2.73,2.59,3.21,4.74,7.12,6.83,12.5,3.26.32-.2.79-.45,1.09-.35,1.36.46,2.68,1.03,4.02,1.56-.13.43-.26.86-.38,1.29-2.61.99-5.22,1.98-7.79,2.95.12.55.1.85.25,1.02,5.56,6.74,5.9,6.86,13.7,3.02,2.52-1.24,3.79-.4,5.01,2.38-3.02,1.43-5.87,2.78-8.99,4.26.93,1,1.81,2.06,2.8,3.02,7.6,7.38,15.26,14.69,22.82,22.12,7.98,7.84,5.45,21.6-4.82,25.96-7.38,3.12-14.86,6-22.34,8.89-22.18,8.57-44.37,17.1-66.58,25.6-2.99,1.14-5.06,2.55-5.19,6.27-.12,3.44-1.29,6.85-1.63,10.3-.12,1.22.49,2.98,1.4,3.73,3.71,3.08,8.19,3.04,12.54,1.89,4.36-1.15,8.62-2.73,12.87-4.25,32.22-11.58,64.46-23.15,96.65-34.83,10.32-3.74,20.58-7.67,30.75-11.81ZM579.67,491.92c-.26-.33-.53-.66-.79-.98-1.73.81-3.42,1.75-5.21,2.43-28.73,10.96-57.46,21.91-86.21,32.81-16.43,6.23-32.91,12.32-49.33,18.58-9.06,3.45-16.65,1.8-23.23-4.99-.29-.3-.57-.61-.86-.93-6.9-7.69-14.12-15.09-21.17-22.64-24.56-26.35-49.11-52.72-73.69-79.05-1.79-1.92-3.84-3.58-5.77-5.36-.48.32-.96.65-1.44.97.84,1.58,1.38,3.43,2.55,4.71,5.47,6,11.15,11.83,16.69,17.77,12.96,13.88,25.86,27.8,38.82,41.68,6.6,7.08,13.21,14.16,19.91,21.15,7.59,7.94,15.24,15.81,22.89,23.7,1.25,1.3,2.51,2.59,3.76,3.89,5.24,5.42,11.5,6.57,18.5,4.3,3.81-1.24,7.59-2.57,11.33-4,19.92-7.58,39.84-15.16,59.73-22.83,22.42-8.64,44.83-17.3,67.17-26.17,2.4-.96,4.24-3.33,6.35-5.04ZM572.79,489.37c9.54-3.68,9.86-6.26,2.53-13.45-21.21-20.81-42.47-41.56-63.61-62.43-9.65-9.53-19-19.36-28.64-28.9-3.75-3.71-7.66-7.49-13.65-7.26-1.66.19-3.37.21-4.99.6-17.97,4.24-35.98,8.31-53.87,12.88-25.66,6.55-51.23,13.46-76.82,20.26-6.37,1.7-12.77,3.31-18.99,5.45-4.7,1.62-5.09,4.14-1.83,7.8,9.97,11.2,19.72,22.58,29.98,33.5,24.76,26.37,49.8,52.47,74.64,78.77,5.46,5.77,11.57,7.2,18.95,4.39,15.34-5.81,30.76-11.43,46.1-17.24,30.09-11.4,60.18-22.79,90.2-34.37ZM472.47,544.72c2.5-.9,4.58-2.21,4.08-5.92-1.86.62-3.43,1.09-4.96,1.66-11.98,4.46-23.95,8.99-35.95,13.41-8.47,3.12-15.76.92-21.96-5.33-4.46-4.49-8.78-9.12-13.16-13.69-10.09-10.55-20.18-21.1-30.27-31.64-7.5-7.84-15-15.67-22.51-23.5-2.11-2.13-4.23-4.25-6.35-6.37-3.05-3.55-6.1-7.1-9.14-10.65-1.12-1.35-2.23-2.7-3.34-4.04-6.98-7.25-14.21-14.28-20.83-21.84-2.5-2.86-4.47-3.43-7.86-2.29-15.56,5.24-31.19,10.24-46.76,15.42-8.09,2.7-16.19,5.39-24.13,8.48-5.85,2.28-6.32,4.94-2.08,9.52,14.85,16.01,29.76,31.96,44.65,47.93,8.63,9.26,17.23,18.55,25.94,27.74,12.88,13.6,25.79,27.17,38.79,40.65,3.15,3.27,7.21,4.56,11.73,3.46,4.89-1.18,9.84-2.27,14.57-3.93,26.69-9.4,53.33-18.96,79.99-28.47,9.85-3.52,19.71-7.05,29.55-10.6ZM475.54,549.19c-.24-.27-.47-.53-.71-.79-3.4,1.13-6.83,2.18-10.2,3.4-25.54,9.2-51.02,18.56-76.61,27.58-12.67,4.47-25.48,8.54-38.37,12.33-5.96,1.75-11.56-.19-16.03-4.56-4.63-4.51-9.17-9.12-13.59-13.83-15.63-16.69-31.21-33.42-46.78-50.16-10.12-10.87-20.19-21.79-30.29-32.68-6.21-6.68-12.45-13.33-18.67-20-.45.25-.9.51-1.35.76.88,1.76,1.44,3.8,2.71,5.22,3.25,3.67,6.88,7.01,10.24,10.59,16.69,17.82,33.36,35.66,50,53.52,13.13,14.09,26.16,28.25,39.35,42.28,3.78,4.02,7.51,8.32,12.04,11.34,6.49,4.32,13.7,2.54,20.55.08,18-6.46,36-12.94,53.96-19.51,19.42-7.1,38.82-14.26,58.17-21.56,2.07-.78,3.73-2.65,5.58-4.01ZM404.28,609.92c5.23-2.17,6.36-5.75,3.1-10.38-2.73-3.86-6.12-7.3-9.5-10.66-2.4-2.4-5.51-2.46-8.69-1.37-11.98,4.11-23.95,8.23-35.97,12.23-9.82,3.26-18.08.79-24.66-7.07-1.93-2.3-4.04-4.45-6.74-7.39l-10.82-10.28c.18-.33-5.78-6.2-5.6-6.53-9.42-12.49-21.08-22.97-31.39-34.67-.43.22-.87.44-1.3.65.33,1.15.84,2.29.96,3.46.12,1.24-.12,2.53-.21,3.79-1.17-.61-2.95-.94-3.41-1.9-3.72-7.74-10.89-13.7-11.84-22.87-.05-.52-.77-.99-1.21-1.46-6.13-6.47-12.35-12.86-18.35-19.45-1.91-2.1-3.72-2.79-6.43-1.89-6.38,2.1-12.85,3.91-19.22,6.03-21.7,7.23-43.39,14.51-65.05,21.85-7.22,2.44-14.41,5-21.52,7.75-4.46,1.73-5.47,5.25-2.6,8.48,14.81,16.73,29.59,33.5,44.57,50.07,9.27,10.25,18.87,20.21,28.35,30.27,14.6,15.53,29.19,31.07,43.86,46.54,4.6,4.85,10.17,6.4,16.61,4.07,1.7-.61,3.42-1.17,5.1-1.84,27.71-11.11,55.43-22.19,83.1-33.37,19.66-7.93,39.28-15.94,58.86-24.06ZM407.8,613.22c-.67.09-1.07.07-1.41.2-20.19,8.25-40.39,16.49-60.56,24.78-7.03,2.9-14,5.94-21,8.91-.12.05-.23.1-.35.15-1.47.47-2.98.84-4.41,1.41-19.56,7.75-39.16,15.41-58.64,23.34-9.79,3.99-17.95,2.5-25.24-5.34-16.86-18.15-34-36.04-50.87-54.19-11.67-12.57-23.04-25.43-34.6-38.11-6.17-6.76-12.46-13.41-18.69-20.11-3.48-4.19-6.96-8.38-10.44-12.56-.29.24-.59.48-.88.73,1.56,5.63,5.72,9.42,9.87,13.22,3.87,4.5,7.63,9.1,11.63,13.49,14.33,15.77,28.66,31.54,43.13,47.18,17.11,18.49,34.28,36.92,51.63,55.19,6.25,6.59,14,8.47,22.69,5,16.68-6.67,33.37-13.31,50.02-20.06,5.26-2.13,10.39-4.55,15.59-6.84.18-.06.37-.11.55-.17,1.3-.38,2.61-.72,3.86-1.23,14.83-6.01,29.65-12.05,44.48-18.08,9.33-3.79,18.68-7.53,27.97-11.41,2.44-1.02,5.34-1.86,5.67-5.5ZM306.16,422.3c.21-4.38,2.02-7.67,6.46-9.29-8.19-7.59-16.17-14.9-24.05-22.31-10.83-10.18-21.6-20.41-32.34-30.68-4.06-3.89-8.48-5.55-14.12-3.7-4.28,1.4-8.77,2.18-13.12,3.42-36.28,10.37-72.55,20.77-108.81,31.2-7.82,2.25-15.62,4.58-23.38,7.04-5.53,1.76-6.21,4.14-2.68,8.47,11.91,14.62,23.91,29.17,35.73,43.87,14.5,18.02,28.88,36.13,43.26,54.25,1.91,2.42,3.59,3.81,7.08,2.6,15.27-5.26,30.64-10.22,45.97-15.31,1.66-.55,3.25-1.28,5.62-2.22-3.32-3.75-6.13-7.03-9.07-10.2-3.24-3.48-4.54-7.41-3.27-12.09.37-1.37.72-2.77.83-4.18.26-3.45,2.05-5.81,5.06-7.24,2.21-1.05,4.5-1.98,6.82-2.75,22.06-7.38,44.09-14.88,66.26-21.92,4.89-1.56,7.53-3.95,7.75-8.96ZM171.08,510.3c-.13-1.85-.74-2.93-1.5-3.89-7.2-9.11-14.38-18.23-21.66-27.26-4.68-5.82-9.53-11.5-14.3-17.25-.37-.67-.66-1.41-1.14-2-11.01-13.65-22.04-27.29-33.09-40.91-2.55-3.14-5.2-6.18-7.8-9.27-.46.3-.93.6-1.39.91,1.39,2.42,2.5,5.06,4.22,7.23,5.75,7.28,11.72,14.39,17.61,21.57,7.2,8.76,14.41,17.51,21.62,26.27,11.58,14.51,23.14,29.03,34.78,43.48.53.66,1.75.76,2.65,1.12Z"/>
    <path class="cls-1" d="M635.2,498.55c2.88,3.4,2.51,6.28-1.62,7.96-10.17,4.14-20.43,8.07-30.75,11.81-32.19,11.68-64.43,23.25-96.65,34.83-4.25,1.52-8.51,3.1-12.87,4.25-4.35,1.15-8.83,1.19-12.54-1.89-.91-.75-1.52-2.51-1.4-3.73.34-3.45,1.51-6.86,1.63-10.3.13-3.72,2.2-5.13,5.19-6.27,22.21-8.5,44.4-17.03,66.58-25.6,7.48-2.89,14.96-5.77,22.34-8.89,10.27-4.36,12.8-18.12,4.82-25.96-7.56-7.43-15.22-14.74-22.82-22.12-.99-.96-1.87-2.02-2.8-3.02,3.12-1.48,5.97-2.83,8.99-4.26-1.22-2.78-2.49-3.62-5.01-2.38-7.8,3.84-8.14,3.72-13.7-3.02-.15-.17-.13-.47-.25-1.02,2.57-.97,5.18-1.96,7.79-2.95.12-.43.25-.86.38-1.29-1.34-.53-2.66-1.1-4.02-1.56-.3-.1-.77.15-1.09.35-5.38,3.57-9.29,1.48-12.5-3.26,2.52-.95,5.09-1.8,7.54-2.91.62-.28,1.36-1.51,1.19-2.03-.19-.62-1.49-1.47-2-1.3-3.21,1.07-6.32,2.41-9.46,3.65-3.87-3.62-7.73-7.24-11.58-10.87-3.86-3.63-7.7-7.26-11.94-11.27,1.41-.76,2.09-1.34,2.87-1.5,5.55-1.15,11.1-2.36,16.71-3.24,4.8-.75,8.77,1.08,12.17,4.58,11.09,11.4,22.1,22.86,33.47,33.97,19.4,18.96,39.05,37.67,58.6,56.49.93.9,1.9,1.77,2.73,2.75Z"/>
    <path class="cls-2" d="M592.23,214.73c5.46-.94,21.19,18.83,19.78,28.15-1.09-1.27-2-2.06-2.58-3.04-2.68-4.55-5.01-9.34-7.99-13.68-2.89-4.23-6.43-8.02-9.21-11.43Z"/>
    <path class="cls-2" d="M604.81,243.31c-.48.43-.95.86-1.42,1.29-6.12-6.62-12.24-13.24-18.36-19.87.58-.52,1.17-1.04,1.76-1.56,6.22,6.52,13.2,12.36,18.02,20.14Z"/>
    <path class="cls-2" d="M577.35,225.6c5.84,8.26,11.72,16.59,17.6,24.9-6.39-.89-18.87-18.41-17.6-24.9Z"/>
    <path class="cls-1" d="M575.32,475.92c7.33,7.19,7.01,9.77-2.53,13.45-30.02,11.58-60.11,22.97-90.2,34.37-15.34,5.81-30.76,11.43-46.1,17.24-7.38,2.81-13.49,1.38-18.95-4.39-24.84-26.3-49.88-52.4-74.64-78.77-10.26-10.92-20.01-22.3-29.98-33.5-3.26-3.66-2.87-6.18,1.83-7.8,6.22-2.14,12.62-3.75,18.99-5.45,25.59-6.8,51.16-13.71,76.82-20.26,17.89-4.57,35.9-8.64,53.87-12.88,1.62-.39,3.33-.41,4.99-.6,5.99-.23,9.9,3.55,13.65,7.26,9.64,9.54,18.99,19.37,28.64,28.9,21.14,20.87,42.4,41.62,63.61,62.43ZM505.25,423.89q-2.17-3.77-6.19-2.29c-7.94,2.91-9.25,2.51-13.71-4.2,2.88-1.49,5.75-2.98,8.78-4.56-2.94-4.66-5.83-1.82-8.39-.85-4.71,1.78-5.74,1.48-8.46-3.72,1.82-.66,3.68-1.15,5.35-2.01.99-.51,1.68-1.59,2.51-2.42-1.06-.56-2.27-1.76-3.17-1.57-3.38.74-6.73,1.74-9.91,3.08-.67.28-1.22,3.03-.7,3.59,5.69,6.14,11.55,12.13,17.53,17.98.98.96,2.99,1.8,4.16,1.46,4.12-1.19,8.08-2.92,12.2-4.49ZM486.44,428.9c-1.2-3.07-3.64-2.52-5.74-1.58-3.67,1.65-6.23.69-8.78-2.26-4.04-4.69-8.31-9.18-12.72-13.51-.89-.87-2.84-.65-4.3-.93.31,1.31.2,2.99.99,3.87,4.28,4.82,8.72,9.5,13.21,14.13,5.78,5.98,10.61,6.04,17.34.28ZM464.41,435.95c.97-1.49.88-4.91-.22-6.27-4.45-5.49-9.39-10.6-14.39-15.63-.73-.74-2.71-.26-4.11-.35.53,1.16.82,2.54,1.63,3.44,3.72,4.12,7.7,8,11.3,12.21.88,1.03,1.34,3.44.73,4.43-.55.88-3.19,1.39-4.3.84-2.58-1.28-4.99-3.09-7.11-5.06-4.06-3.78-7.77-7.92-11.84-11.67-.72-.67-2.49-.2-3.78-.25.39,1.11.48,2.48,1.2,3.28,4.08,4.49,8.29,8.86,12.5,13.23,3.18,3.31,7.07,5.13,13.25,5.49,1.08-.72,3.85-1.72,5.14-3.69ZM439.8,444.34c3.26-2.53,3.87-6.54,1.28-10.78-4.55-7.46-11.29-11.47-21.12-12.22-1.74.37-4.57.74-7.25,1.6-2.62.83-3.52,2.39-1.22,4.83,5.14,5.44,10.08,11.07,15.22,16.51,3.75,3.98,8.12,3.92,13.09.06ZM409.73,453.87c6.57,2.07,12.14-2.49,10.96-8.6-1.49-7.7-13.71-17.64-21.66-17.62-6.34.02-9.48,4.7-7,10.48.56,1.3,1.19,2.6,1.96,3.78,3.81,5.85,9.16,9.88,15.74,11.96ZM402.16,458.11c-.07-.58,0-.92-.14-1.07-6.92-7.3-13.81-14.64-20.87-21.81-.75-.75-2.69-.9-3.78-.51-.57.2-.9,2.31-.63,3.38,1,3.93,2.29,7.79,3.8,12.74-4.67-2.82-8.24-5.1-11.94-7.15-2.46-1.37-5.06-2.53-7.71-3.49-.71-.26-2.06.3-2.64.93-.36.38-.1,1.81.35,2.42,5.28,7.01,10.57,14.02,16.08,20.86.7.87,2.68.71,4.07,1.03-.25-1.24-.12-2.75-.8-3.68-3.4-4.65-7-9.15-10.87-14.14,5.13,3.02,9.74,5.8,14.42,8.43,1.01.57,2.3.64,3.46.93.27-1.33.96-2.75.72-3.99-.6-3.12-1.62-6.16-2.47-9.23,4.62,4.06,8.69,8.5,12.6,13.07,1.83,2.14,3.61,3.27,6.35,1.28Z"/>
    <path class="cls-2" d="M572.29,267.54c1.01,2.36.75,6.21-.54,8.45-6.22,10.79-16.32,15.96-26.42,17.98-13.06.14-26.4-13.45-25.64-24.66.02-.31.05-.61.09-.91.52-3.77,2.71-8.07,5.52-10.6,5.01-4.53,10.99-8.01,16.7-11.73,5.29-3.44,10.42-2.08,15.15,1.3,7.15,5.1,11.79,12.29,15.14,20.17ZM566.81,275.37c1.3-2.01.66-3.41-1.18-4.88-5.73-4.61-9.86-10.48-12.69-17.26-1.92-4.59-4-5.9-8.31-3.38-6.16,3.61-11.79,8.13-17.53,12.42-.93.69-1.46,2.11-1.88,3.3-3.68,10.4,6.7,24.01,19.32,23.9,8.4-1.82,16.77-5.58,22.27-14.1ZM566.84,266.54c-3.27-4.48-6.55-8.95-9.82-13.43-.5.38-1.01.76-1.51,1.14l10.02,13.26c.44-.32.87-.65,1.31-.97Z"/>
    <path class="cls-1" d="M565.63,270.49c1.84,1.47,2.48,2.87,1.18,4.88-5.5,8.52-13.87,12.28-22.27,14.1-12.62.11-23-13.5-19.32-23.9.42-1.19.95-2.61,1.88-3.3,5.74-4.29,11.37-8.81,17.53-12.42,4.31-2.52,6.39-1.21,8.31,3.38,2.83,6.78,6.96,12.65,12.69,17.26Z"/>
    <path class="cls-2" d="M543.63,425.29c.17.52-.57,1.75-1.19,2.03-2.45,1.11-5.02,1.96-7.54,2.91-.91-.86-1.82-1.72-2.73-2.59,3.14-1.24,6.25-2.58,9.46-3.65.51-.17,1.81.68,2,1.3Z"/>
    <path class="cls-2" d="M529.98,184.69c-4.54,11.37-9.07,22.74-13.61,34.11-.63-.25-1.25-.51-1.88-.76,4.52-11.37,9.04-22.74,13.56-34.11.64.25,1.28.51,1.93.76Z"/>
    <path class="cls-2" d="M521.41,180.03c.48.21.95.41,1.43.62-3.67,12.32-8.34,24.21-15.2,35.16-.36-.21-.73-.42-1.1-.62,4.96-11.72,9.92-23.44,14.87-35.16Z"/>
    <path class="cls-2" d="M499.06,421.6q4.02-1.48,6.19,2.29c-4.12,1.57-8.08,3.3-12.2,4.49-1.17.34-3.18-.5-4.16-1.46-5.98-5.85-11.84-11.84-17.53-17.98-.52-.56.03-3.31.7-3.59,3.18-1.34,6.53-2.34,9.91-3.08.9-.19,2.11,1.01,3.17,1.57-.83.83-1.52,1.91-2.51,2.42-1.67.86-3.53,1.35-5.35,2.01,2.72,5.2,3.75,5.5,8.46,3.72,2.56-.97,5.45-3.81,8.39.85-3.03,1.58-5.9,3.07-8.78,4.56,4.46,6.71,5.77,7.11,13.71,4.2Z"/>
    <path class="cls-2" d="M500.43,271.98c.92.38,1.41,1.78,2.1,2.71-1.09.45-2.16,1-3.29,1.29-.56.14-1.25-.22-1.88-.36q-7.04-1.62-9.27,5.9c3.64,1.34,7.05,2.6,10.46,3.86.01.51.02,1.02.04,1.53-1.25.44-2.47,1.13-3.74,1.24-1.1.09-2.26-.43-3.37-.77-5.38-1.62-8.11.21-8.47,5.95-.05.75.96,2.01,1.74,2.3,2.05.74,4.3.91,6.37,1.62.91.31,1.56,1.37,2.32,2.09-.88.83-1.93,2.49-2.61,2.35-4.25-.87-8.46-2-12.56-3.42-.61-.21-1.08-2.64-.68-3.67,3.01-7.69,6.25-15.29,9.42-22.92,1.03-2.48,2.77-3.15,5.31-2.28,2.69.92,5.5,1.51,8.11,2.58Z"/>
    <path class="cls-2" d="M486.47,323.59c3.71,4.12,5.47,8.88,3.06,14.21-2.95,6.56-8.39,9.46-15.48,9.47-8.09-.03-14.98-6.02-15.37-13.35-.38-7.28,5.99-13.98,14.02-14.78,5.24-.52,10.07.34,13.77,4.45ZM485.8,334.76c.56-5.59-3.26-10.25-9.46-11.03-4.56-.57-8.79.72-11.82,4.32-2.18,2.6-1.99,5.81-.68,8.78,2.02,4.55,5.92,6.17,9.49,6.28,7.05.05,11.99-3.6,12.47-8.35Z"/>
    <path class="cls-2" d="M480.7,427.32c2.1-.94,4.54-1.49,5.74,1.58-6.73,5.76-11.56,5.7-17.34-.28-4.49-4.63-8.93-9.31-13.21-14.13-.79-.88-.68-2.56-.99-3.87,1.46.28,3.41.06,4.3.93,4.41,4.33,8.68,8.82,12.72,13.51,2.55,2.95,5.11,3.91,8.78,2.26Z"/>
    <path class="cls-2" d="M481.9,179.19c1.71,6,.8,12.04.28,18.07-.61.58-1.23,1.17-1.84,1.76-1.97-6.78-.2-13.29,1.56-19.83Z"/>
    <path class="cls-2" d="M472.31,292.03c.9.36,1.46,1.61,2.17,2.46-1,.58-2.12,1.81-2.98,1.64-3.66-.69-7.29-1.63-10.79-2.87-.78-.27-1.68-2.36-1.38-3.19,3.06-8.34,6.27-16.63,9.7-24.82.48-1.13,2.42-1.65,3.69-2.45.14,1.45.79,3.08.34,4.32-2.42,6.65-5.13,13.19-7.69,19.8-.31.79-.32,1.71-.53,2.9,2.61.74,5.11,1.28,7.47,2.21Z"/>
    <path class="cls-2" d="M464.19,429.68c1.1,1.36,1.19,4.78.22,6.27-1.29,1.97-4.06,2.97-5.14,3.69-6.18-.36-10.07-2.18-13.25-5.49-4.21-4.37-8.42-8.74-12.5-13.23-.72-.8-.81-2.17-1.2-3.28,1.29.05,3.06-.42,3.78.25,4.07,3.75,7.78,7.89,11.84,11.67,2.12,1.97,4.53,3.78,7.11,5.06,1.11.55,3.75.04,4.3-.84.61-.99.15-3.4-.73-4.43-3.6-4.21-7.58-8.09-11.3-12.21-.81-.9-1.1-2.28-1.63-3.44,1.4.09,3.38-.39,4.11.35,5,5.03,9.94,10.14,14.39,15.63Z"/>
    <path class="cls-2" d="M461.91,259.52c.43,1.31,1.53,2.85,1.17,3.88-2.26,6.45-4.55,12.91-7.4,19.11-2.12,4.62-6.06,6.06-10.63,4.89-4.17-1.06-6-3.49-6.25-7.89.68-2.61,1.23-5.26,2.08-7.81,1.47-4.41,2.96-8.83,4.82-13.08.63-1.44,2.4-2.4,3.64-3.57.2,1.7.94,3.58.49,5.09-1.38,4.56-3.35,8.94-4.83,13.49-.62,1.91-.93,4.07-.76,6.06.29,3.39,3.36,4.65,5.82,2.28,1.7-1.62,3.01-3.88,3.87-6.09,1.75-4.44,2.91-9.11,4.66-13.55.47-1.19,2.18-1.89,3.32-2.81Z"/>
    <path class="cls-2" d="M441.08,433.56c2.59,4.24,1.98,8.25-1.28,10.78-4.97,3.86-9.34,3.92-13.09-.06-5.14-5.44-10.08-11.07-15.22-16.51-2.3-2.44-1.4-4,1.22-4.83,2.68-.86,5.51-1.23,7.25-1.6,9.83.75,16.57,4.76,21.12,12.22ZM435.4,440.65c1.07-.75,2.09-2.92,1.77-4.08-1.89-6.8-13.96-13.42-20-9.59,4.48,5.16,8.62,10.23,13.19,14.88.66.67,3.66-.25,5.04-1.21Z"/>
    <path class="cls-2" d="M426.43,247.61c7.51-.21,13.09,5.36,13.06,14.18-.2,4.43-2.06,9.67-5.53,14.4-4.26,5.79-13.82,5.9-19.19,3.45-.89-.41-1.77-2.72-1.41-3.7,3.24-8.84,6.7-17.61,10.26-26.32.38-.93,1.83-1.98,2.81-2.01ZM435.65,261.56c-1.7-2.83-3.03-5.66-4.96-7.98-1.16-1.4-3.11-1.28-3.98.93-2.48,6.24-5,12.46-7.3,18.77-.26.71.57,2.48,1.29,2.77,2.69,1.08,8.62-.78,10.03-3.35,1.82-3.32,3.1-6.94,4.92-11.14Z"/>
    <path class="cls-2" d="M420.69,445.27c1.18,6.11-4.39,10.67-10.96,8.6-6.58-2.08-11.93-6.11-15.74-11.96-.77-1.18-1.4-2.48-1.96-3.78-2.48-5.78.66-10.46,7-10.48,7.95-.02,20.17,9.92,21.66,17.62ZM411.56,449.78c2.68.34,4.2-.83,4.26-2.9-.05-6.14-11.22-15.79-16.55-14.99-2.39.35-3.33,1.86-2.89,4.14.99,5.14,9.75,13.07,15.18,13.75Z"/>
    <path class="cls-2" d="M411.34,242.55c3.66,1.65,5.7,4.77,5.49,8.61-.49,8.82-3.7,16.6-10.66,22.34-3.37,2.78-7.34,1.91-11,.27-3.03-1.36-4.33-3.92-4.18-7.3,1.16-8.48,4.19-16.11,10.72-22.02,2.8-2.55,6.03-3.51,9.63-1.9ZM404.92,268.24c4.94-4.39,7.1-10.35,7-16.93-.03-1.53-1.13-3.81-2.36-4.35-1.22-.54-3.58.21-4.82,1.18-5.5,4.29-7.53,10.49-9.06,17.88.67.98,1.48,3.35,2.55,3.48,2.19.26,5.19.07,6.69-1.26Z"/>
    <path class="cls-1" d="M407.38,599.54c3.26,4.63,2.13,8.21-3.1,10.38-19.58,8.12-39.2,16.13-58.86,24.06-27.67,11.18-55.39,22.26-83.1,33.37-1.68.67-3.4,1.23-5.1,1.84-6.44,2.33-12.01.78-16.61-4.07-14.67-15.47-29.26-31.01-43.86-46.54-9.48-10.06-19.08-20.02-28.35-30.27-14.98-16.57-29.76-33.34-44.57-50.07-2.87-3.23-1.86-6.75,2.6-8.48,7.11-2.75,14.3-5.31,21.52-7.75,21.66-7.34,43.35-14.62,65.05-21.85,6.37-2.12,12.84-3.93,19.22-6.03,2.71-.9,4.52-.21,6.43,1.89,6,6.59,12.22,12.98,18.35,19.45.44.47,1.16.94,1.21,1.46.95,9.17,8.12,15.13,11.84,22.87.46.96,2.24,1.29,3.41,1.9.09-1.26.33-2.55.21-3.79-.12-1.17-.63-2.31-.96-3.46.43-.21.87-.43,1.3-.65,10.31,11.7,21.97,22.18,31.39,34.67-.18.33,5.78,6.2,5.6,6.53l10.82,10.28c2.7,2.94,4.81,5.09,6.74,7.39,6.58,7.86,14.84,10.33,24.66,7.07,12.02-4,23.99-8.12,35.97-12.23,3.18-1.09,6.29-1.03,8.69,1.37,3.38,3.36,6.77,6.8,9.5,10.66ZM265.55,543.72c-.49-1.57-.56-3.5-1.54-4.64-5.12-5.93-10.45-11.68-15.78-17.42-.83-.9-2.03-1.47-3.14-2.25-.82.49-2.01.95-1.96,1.22.18,1.15.45,2.5,1.19,3.33,5.38,6.04,10.8,12.06,16.43,17.86,1.09,1.13,3.17,1.29,4.8,1.9ZM253.68,547.53c2-3.39,1.12-7.65-2.32-11.23-3.97-4.15-5.27-4.5-9.65-1.97-1.1.64-1.73,2.1-2.57,3.18,1.47.3,3.16,1.2,4.38.77,2.53-.87,4.29-.05,5.15,1.96.67,1.56,1.06,4.15.22,5.18-.87,1.08-3.98,1.73-5.05,1-4.42-2.99-8.73-6.29-12.47-10.08-1.37-1.39-1.06-4.44-1.52-6.73,2.19-.22,4.37-.45,6.56-.66.12-.01.27.13.37.09.95-.4,1.9-.82,2.84-1.24-.53-.77-.91-1.95-1.64-2.23-1.64-.65-3.46-.86-4.21-1.03-7.73.07-10.9,5-7.8,11.18,3.76,7.49,10.06,12.39,17.85,15.19,3.95,1.42,8.02-.26,9.86-3.38ZM238.39,554.72c-.33-.86-.41-2.05-1.04-2.53-8.55-6.46-17.12-12.9-25.84-19.12-1.21-.86-3.26-.52-4.93-.74,0,1.69-.62,3.67.06,5.01,3.62,7.12,7.45,14.14,11.49,21.04.76,1.29,2.78,1.85,4.21,2.75.39-.37.78-.75,1.16-1.12-1.04-2.51-2.08-5.02-3.11-7.49,5.58-3.53,5.91-3.48,10.89.25,1.33,1,2.79,1.94,4.33,2.51.76.28,1.85-.35,2.78-.56ZM210.63,563.71c-.21-1.42-.05-3.06-.72-4.22-1.09-1.86-2.71-3.42-4.12-5.09-3.35-3.98-6.7-7.95-10.24-12.16,2.38-.97,4.24-1.73,6.43-2.63-2.38-3.68-2.69-3.89-5.86-2.9-4.19,1.3-8.37,2.62-12.45,4.22-1.15.45-1.94,1.86-2.89,2.83,1.45.49,3.41,1.82,4.27,1.31,5.24-3.1,7.72.33,10.41,3.79,3.49,4.47,6.96,8.96,10.71,13.2.93,1.04,2.94,1.13,4.46,1.65ZM196.98,566.05c1.05-2.91-1.06-5.75-3.87-6.79-4.28-1.59-8.82-2.53-13.28-3.64-2.09-.53-4.44-.44-6.31-1.36-1.21-.59-1.76-2.52-2.6-3.84,1.57-.61,3.11-1.51,4.74-1.74,1.17-.17,2.46.7,3.73.82.62.06,1.63-.38,1.87-.88.2-.43-.25-1.61-.73-1.86-1.9-1-3.92-1.77-5.61-2.5-2.03.49-3.57.72-5.01,1.23-5.02,1.79-6.06,6.17-2.22,9.9,1.34,1.3,3.14,2.41,4.93,2.87,3.09.8,6.36.91,9.51,1.53,2.62.51,5.28,1.1,7.72,2.13,1.02.43,2.26,2.25,2.07,3.16-.21,1.01-1.94,2.39-3.01,2.39-2.33.01-4.66-.83-7.01-1.16-.89-.12-1.85.23-2.78.36.3.89.33,2.09.94,2.62,3.39,2.95,7.47,3.94,11.52,2.05,2.2-1.02,4.61-3.12,5.4-5.29Z"/>
    <path class="cls-2" d="M402.02,457.04c.14.15.07.49.14,1.07-2.74,1.99-4.52.86-6.35-1.28-3.91-4.57-7.98-9.01-12.6-13.07.85,3.07,1.87,6.11,2.47,9.23.24,1.24-.45,2.66-.72,3.99-1.16-.29-2.45-.36-3.46-.93-4.68-2.63-9.29-5.41-14.42-8.43,3.87,4.99,7.47,9.49,10.87,14.14.68.93.55,2.44.8,3.68-1.39-.32-3.37-.16-4.07-1.03-5.51-6.84-10.8-13.85-16.08-20.86-.45-.61-.71-2.04-.35-2.42.58-.63,1.93-1.19,2.64-.93,2.65.96,5.25,2.12,7.71,3.49,3.7,2.05,7.27,4.33,11.94,7.15-1.51-4.95-2.8-8.81-3.8-12.74-.27-1.07.06-3.18.63-3.38,1.09-.39,3.03-.24,3.78.51,7.06,7.17,13.95,14.51,20.87,21.81Z"/>
    <path class="cls-2" d="M394.23,237.35c.51.25.68,2.13.35,3.04-3.29,9.1-6.6,18.2-10.22,27.17-.47,1.18-2.7,1.65-4.11,2.45-.02-1.39-.43-2.92.03-4.13,2.41-6.37,5.05-12.65,7.6-18.96-.28-.21-.56-.42-.85-.64-3.31,2.92-6.55,5.91-9.94,8.73-4.08,3.4-5.46,2.85-6.33-2.46-.29-1.77-.4-3.59-.48-5.39-.08-1.79-.02-3.59-.53-5.49l-6.45,16.86c-.37.96-.52,2.17-1.19,2.81-.81.77-2.08,1.04-3.14,1.53-.41-1.08-1.44-2.38-1.14-3.18,3.68-9.65,7.51-19.24,11.47-28.78.38-.92,1.98-2.03,2.81-1.89.87.16,2.02,1.64,2.15,2.66.75,5.74,1.22,11.51,1.89,18.37,4.05-3.72,7.41-6.86,10.83-9.93,1.15-1.03,2.33-2.16,3.71-2.76,1.03-.45,2.57-.49,3.54-.01Z"/>
    <path class="cls-2" d="M341.39,473.34c2.12,2.12,4.24,4.24,6.35,6.37-1.21.05-2.87.63-3.58.06-5.05-4.13-10.22-8.2-14.67-12.94-1.73-1.84-3.86-5.23-.58-8.18,1.11,1.34,2.22,2.69,3.34,4.04,1.49,4.88,5.25,7.82,9.14,10.65Z"/>
    <path class="cls-2" d="M340.39,481.56c.7.48.76,1.87,1.12,2.83-1.08.18-2.29.76-3.2.44-1.41-.49-2.66-1.54-3.92-2.44-4.27-3.06-6.03-3.03-10.9.4,1.06,2.43,2.01,4.61,2.95,6.79-.31.38-.63.77-.94,1.16-1.6-.88-3.86-1.35-4.69-2.69-4.05-6.59-7.81-13.35-11.41-20.18-.66-1.24-.11-3.11-.12-4.69,1.57.23,3.45-.03,4.66.75,8.91,5.74,17.7,11.65,26.45,17.63ZM315.59,469.62c4.14,9.36,5.44,9.44,8.97,6.71-3.03-2.26-5.79-4.33-8.97-6.71Z"/>
    <path class="cls-2" d="M317.19,283.75c.18.47.36.93.53,1.4-7.41,2.74-14.83,5.49-22.25,8.23-.18-.5-.37-.99-.56-1.49,7.43-2.72,14.86-5.43,22.28-8.14Z"/>
    <path class="cls-2" d="M314.74,492.22c-2.64,2.58-4.27,1.89-6.08-.26-4.4-5.21-9-10.26-13.42-15.45-1.52-1.79-2.95-2.75-5.21-1.27-.72.46-1.77.8-2.57.65-1-.19-1.9-.93-2.84-1.43.53-.79.9-1.99,1.64-2.3,4.39-1.85,8.81-3.66,13.35-5.09,1.11-.35,2.68.76,4.03,1.2-.91,1.01-1.72,2.15-2.77,2.99-.75.6-1.84.79-2.77,1.16-.36.55-.73,1.09-1.09,1.63,3.21,2.76,6.64,5.32,9.58,8.34,2.94,3,5.4,6.47,8.15,9.83Z"/>
    <path class="cls-2" d="M310.72,298.39l.39,1.35c-16.68,5.87-33.35,11.73-50.03,17.6-.19-.33-.39-.66-.59-.99,1.23-.85,2.35-2.04,3.71-2.51,15-5.17,30.04-10.23,45.08-15.31.44-.15.96-.1,1.44-.14Z"/>
    <path class="cls-1" d="M312.62,413.01c-4.44,1.62-6.25,4.91-6.46,9.29-.22,5.01-2.86,7.4-7.75,8.96-22.17,7.04-44.2,14.54-66.26,21.92-2.32.77-4.61,1.7-6.82,2.75-3.01,1.43-4.8,3.79-5.06,7.24-.11,1.41-.46,2.81-.83,4.18-1.27,4.68.03,8.61,3.27,12.09,2.94,3.17,5.75,6.45,9.07,10.2-2.37.94-3.96,1.67-5.62,2.22-15.33,5.09-30.7,10.05-45.97,15.31-3.49,1.21-5.17-.18-7.08-2.6-14.38-18.12-28.76-36.23-43.26-54.25-11.82-14.7-23.82-29.25-35.73-43.87-3.53-4.33-2.85-6.71,2.68-8.47,7.76-2.46,15.56-4.79,23.38-7.04,36.26-10.43,72.53-20.83,108.81-31.2,4.35-1.24,8.84-2.02,13.12-3.42,5.64-1.85,10.06-.19,14.12,3.7,10.74,10.27,21.51,20.5,32.34,30.68,7.88,7.41,15.86,14.72,24.05,22.31ZM279.62,402.52c.78-.46,1.1-1.68,1.64-2.55-.97-.47-1.92-1.23-2.91-1.31-.95-.08-1.97.52-2.94.88-6.96,2.61-8.9,1.86-13.16-5.37,2.41-.94,4.84-1.72,7.1-2.85.82-.41,1.24-1.62,1.85-2.47-.98-.46-2-1.37-2.94-1.29-1.63.14-3.24.83-4.82,1.38-5.04,1.77-5.41,1.64-8.77-3.65,2.24-.82,4.26-1.33,6.04-2.3,1.02-.55,1.63-1.84,2.43-2.79-1.26-.39-2.62-1.29-3.76-1.06-2.77.55-5.45,1.58-8.13,2.51-3.89,1.34-4.34,2.71-1.64,5.76,3.84,4.35,7.75,8.65,11.79,12.82,5.98,6.17,10.76,6.75,18.22,2.29ZM261.55,408.06c.86-.34,1.43-1.45,2.13-2.21-1.15-.57-2.25-1.37-3.47-1.63-.76-.17-1.71.43-2.55.77-3.59,1.45-6.21.61-8.7-2.58-3.87-4.97-8.2-9.6-12.53-14.19-.7-.74-2.4-.52-3.64-.75.21,1.14.03,2.61.68,3.38,4.99,5.91,10.07,11.73,15.27,17.45,1.06,1.17,2.71,1.81,4,2.64,3.2-1.02,6.06-1.81,8.81-2.88ZM241.75,413.01c1.96-3.47.09-6.33-1.99-8.8-3.73-4.43-7.64-8.73-11.73-12.83-1.02-1.03-3.01-1.09-4.55-1.59-.24.46-.48.92-.72,1.37.92,1.16,1.77,2.36,2.75,3.46,3.44,3.84,7.04,7.54,10.28,11.54.87,1.08,1.35,4.03.83,4.38-1.4.94-3.6,1.59-5.17,1.17-1.85-.49-3.57-2.02-4.99-3.45-4.09-4.12-7.9-8.51-12.05-12.55-.83-.81-2.7-.54-4.08-.77.39,1.18.46,2.66,1.22,3.51,4.31,4.8,8.65,9.58,13.26,14.08,1.77,1.72,4.16,3.1,6.52,3.86,3.76,1.22,8.88-.66,10.42-3.38ZM218.77,419.07c2.12-2.84,1.42-6.03-.36-8.73-4.75-7.2-11.26-11.63-21.31-11.95-1.27.28-3.69.7-6.03,1.39-3.58,1.06-3.99,2.38-1.62,5.16,4.44,5.2,8.9,10.39,13.51,15.45,1.45,1.58,3.3,3.71,5.11,3.87,4.3.36,8.09-1.68,10.7-5.19ZM185.77,431.06c8.52-.12,12.89-5.34,11.12-10.93-2.27-7.19-11.51-14.81-18.95-15.34-3.44-.25-6.75.43-8.78,3.74-2,3.25-1.53,6.62.47,9.49,2.2,3.15,4.63,6.35,7.63,8.67,2.93,2.28,6.7,3.48,8.51,4.37ZM176.67,435.26c0-.41.11-.76-.01-.9-6.13-7.13-12.22-14.29-18.51-21.27-.71-.79-2.84-1.12-3.78-.64-.82.43-1.45,2.41-1.22,3.51.88,4.27,2.14,8.47,3.46,13.48-6.28-3.96-11.89-7.62-17.67-11-1.08-.63-2.83-.14-4.27-.17.19,1.3-.02,2.85.62,3.85,4.31,6.74,8.72,13.42,13.35,19.94.7.98,2.74,1.02,4.16,1.5-.17-1.34.05-2.92-.58-3.99-2.5-4.21-5.26-8.25-7.92-12.36,4.56,2.13,8.4,4.95,12.44,7.44,1.08.67,3.24.95,4.07.31.87-.66,1.18-2.73.93-4.03-.69-3.51-1.81-6.94-2.76-10.39,4.42,4.42,8.38,9.1,12.28,13.84,1.64,1.99,3.31,2.81,5.41.88Z"/>
    <path class="cls-2" d="M294.38,487.91c5.14,1.48,7.47,4.63,6.89,8.05-.57,3.37-5.01,6.19-9.94,6.65-2.22-.94-4.55-1.69-6.61-2.9-.85-.51-1.12-2.01-1.65-3.05,1.15-.09,2.36-.44,3.44-.22,1.49.31,2.98,1.66,4.31,1.47,1.82-.28,3.49-1.58,5.23-2.44-1.09-1.41-1.94-3.68-3.31-4.05-3.43-.94-7.18-.67-10.64-1.54-3.77-.94-7.86-1.93-10.9-4.15-4.27-3.12-3.07-8.35,2.07-9.7,2.8-.74,6.01-.19,8.98.19.82.1,1.46,1.67,2.18,2.57-1.1.35-2.19.94-3.3.99-1.25.05-2.58-.73-3.76-.51-1.09.19-2.61,1.06-2.86,1.94-.24.86.64,2.71,1.47,3.06,2.2.94,4.62,1.43,7,1.85,3.79.67,7.73.74,11.4,1.79Z"/>
    <path class="cls-2" d="M286.81,200.04c-.66.96-1.1,2.44-2,2.8-2.98,1.19-6.08,2.14-9.21,2.82-1.05.22-2.74-.31-3.44-1.11-5.16-5.91-10.2-11.91-15.05-18.06-.51-.64.18-3.35.89-3.63,2.97-1.16,6.12-1.93,9.28-2.44.87-.14,1.98,1.15,2.98,1.78-.8.74-1.47,1.74-2.41,2.16-1.48.66-3.13.94-5.2,1.51,1.48,3.44,3.3,4.95,6.56,3.95.98-.31,2.02-.75,3-.69,1.83.11,3.64.53,5.46.83-1.43.99-2.79,2.13-4.32,2.94-1.43.75-3.04,1.14-4.63,1.71,4.21,7.19,5.09,7.54,12.34,5.15.74-.24,1.49-.8,2.18-.72,1.21.13,2.38.64,3.57,1Z"/>
    <path class="cls-2" d="M281.26,399.97c-.54.87-.86,2.09-1.64,2.55-7.46,4.46-12.24,3.88-18.22-2.29-4.04-4.17-7.95-8.47-11.79-12.82-2.7-3.05-2.25-4.42,1.64-5.76,2.68-.93,5.36-1.96,8.13-2.51,1.14-.23,2.5.67,3.76,1.06-.8.95-1.41,2.24-2.43,2.79-1.78.97-3.8,1.48-6.04,2.3,3.36,5.29,3.73,5.42,8.77,3.65,1.58-.55,3.19-1.24,4.82-1.38.94-.08,1.96.83,2.94,1.29-.61.85-1.03,2.06-1.85,2.47-2.26,1.13-4.69,1.91-7.1,2.85,4.26,7.23,6.2,7.98,13.16,5.37.97-.36,1.99-.96,2.94-.88.99.08,1.94.84,2.91,1.31Z"/>
    <path class="cls-2" d="M263.79,204.67c2.25-1.02,4.99-1.83,6.91,2.24-3.62,1.06-6.75,2.52-9.97,2.74-1.95.13-4.61-1.15-5.94-2.67-4.55-5.25-8.71-10.84-12.87-16.42-.68-.91-.57-2.41-.83-3.64,1.41.44,3.3.45,4.12,1.39,3.99,4.55,7.84,9.24,11.45,14.1,1.98,2.65,3.84,3.74,7.13,2.26Z"/>
    <path class="cls-2" d="M264.01,539.08c.98,1.14,1.05,3.07,1.54,4.64-1.63-.61-3.71-.77-4.8-1.9-5.63-5.8-11.05-11.82-16.43-17.86-.74-.83-1.01-2.18-1.19-3.33-.05-.27,1.14-.73,1.96-1.22,1.11.78,2.31,1.35,3.14,2.25,5.33,5.74,10.66,11.49,15.78,17.42Z"/>
    <path class="cls-2" d="M263.68,405.85c-.7.76-1.27,1.87-2.13,2.21-2.75,1.07-5.61,1.86-8.81,2.88-1.29-.83-2.94-1.47-4-2.64-5.2-5.72-10.28-11.54-15.27-17.45-.65-.77-.47-2.24-.68-3.38,1.24.23,2.94.01,3.64.75,4.33,4.59,8.66,9.22,12.53,14.19,2.49,3.19,5.11,4.03,8.7,2.58.84-.34,1.79-.94,2.55-.77,1.22.26,2.32,1.06,3.47,1.63Z"/>
    <path class="cls-2" d="M251.36,536.3c3.44,3.58,4.32,7.84,2.32,11.23-1.84,3.12-5.91,4.8-9.86,3.38-7.79-2.8-14.09-7.7-17.85-15.19-3.1-6.18.07-11.11,7.8-11.18.75.17,2.57.38,4.21,1.03.73.28,1.11,1.46,1.64,2.23-.94.42-1.89.84-2.84,1.24-.1.04-.25-.1-.37-.09-2.19.21-4.37.44-6.56.66.46,2.29.15,5.34,1.52,6.73,3.74,3.79,8.05,7.09,12.47,10.08,1.07.73,4.18.08,5.05-1,.84-1.03.45-3.62-.22-5.18-.86-2.01-2.62-2.83-5.15-1.96-1.22.43-2.91-.47-4.38-.77.84-1.08,1.47-2.54,2.57-3.18,4.38-2.53,5.68-2.18,9.65,1.97Z"/>
    <path class="cls-2" d="M249.38,207.89c.02,4.01-3.58,7.46-7.83,6.41-3.57-.88-7.4-2.59-10.03-5.08-4.07-3.87-7.29-8.65-10.69-13.18-.66-.89-.49-2.39-.71-3.61,1.29.3,3.04.17,3.78.97,2.53,2.73,4.64,5.85,7.05,8.69,1.91,2.25,3.88,4.51,6.15,6.38,1.18.98,3.05,1.54,4.63,1.56,2.93.05,3.99-2.36,2.1-4.77-2.94-3.75-6.13-7.3-9.19-10.96-.82-.99-1.73-1.97-2.21-3.12-.26-.62.1-1.79.59-2.34.35-.39,1.8-.48,2.06-.15,4.8,5.96,9.5,12.01,14.19,18.06.2.25.08.75.11,1.14Z"/>
    <path class="cls-2" d="M239.76,404.21c2.08,2.47,3.95,5.33,1.99,8.8-1.54,2.72-6.66,4.6-10.42,3.38-2.36-.76-4.75-2.14-6.52-3.86-4.61-4.5-8.95-9.28-13.26-14.08-.76-.85-.83-2.33-1.22-3.51,1.38.23,3.25-.04,4.08.77,4.15,4.04,7.96,8.43,12.05,12.55,1.42,1.43,3.14,2.96,4.99,3.45,1.57.42,3.77-.23,5.17-1.17.52-.35.04-3.3-.83-4.38-3.24-4-6.84-7.7-10.28-11.54-.98-1.1-1.83-2.3-2.75-3.46.24-.45.48-.91.72-1.37,1.54.5,3.53.56,4.55,1.59,4.09,4.1,8,8.4,11.73,12.83Z"/>
    <path class="cls-2" d="M237.35,552.19c.63.48.71,1.67,1.04,2.53-.93.21-2.02.84-2.78.56-1.54-.57-3-1.51-4.33-2.51-4.98-3.73-5.31-3.78-10.89-.25,1.03,2.47,2.07,4.98,3.11,7.49-.38.37-.77.75-1.16,1.12-1.43-.9-3.45-1.46-4.21-2.75-4.04-6.9-7.87-13.92-11.49-21.04-.68-1.34-.07-3.32-.06-5.01,1.67.22,3.72-.12,4.93.74,8.72,6.22,17.29,12.66,25.84,19.12ZM213.27,539.5c1.99,7.81,3.89,9.15,8.54,6.49-2.67-2.03-5.27-4-8.54-6.49Z"/>
    <path class="cls-2" d="M225.99,208.51c1.52,4.18.12,7.76-3.96,10.1-4.56,2.62-8.04,2.19-10.92-1.44-3.93-4.95-7.81-9.93-11.7-14.91-3.19-4.11-2.68-5.52,2.44-6.67,1.5-.34,3.03-.54,3.63-.64,8.88-.06,17.79,6.13,20.51,13.56ZM218.52,215.02c2.37-1.21,3.06-2.97,2.59-5.4-1.19-6.28-10.64-11.75-17.87-9.51,3.6,4.63,6.94,8.83,10.18,13.1,1.35,1.79,2.59,3.1,5.1,1.81Z"/>
    <path class="cls-2" d="M218.41,410.34c1.78,2.7,2.48,5.89.36,8.73-2.61,3.51-6.4,5.55-10.7,5.19-1.81-.16-3.66-2.29-5.11-3.87-4.61-5.06-9.07-10.25-13.51-15.45-2.37-2.78-1.96-4.1,1.62-5.16,2.34-.69,4.76-1.11,6.03-1.39,10.05.32,16.56,4.75,21.31,11.95ZM212.93,417.67c2.57-1.84,2.18-4.03.69-6.4-4.04-6.4-11.37-9.42-19.59-7.63,3.67,4.24,7.02,8.12,10.38,11.99.5.59,1.06,1.13,1.52,1.75,2.22,3.02,4.63,2,7,.29Z"/>
    <path class="cls-2" d="M209.91,559.49c.67,1.16.51,2.8.72,4.22-1.52-.52-3.53-.61-4.46-1.65-3.75-4.24-7.22-8.73-10.71-13.2-2.69-3.46-5.17-6.89-10.41-3.79-.86.51-2.82-.82-4.27-1.31.95-.97,1.74-2.38,2.89-2.83,4.08-1.6,8.26-2.92,12.45-4.22,3.17-.99,3.48-.78,5.86,2.9-2.19.9-4.05,1.66-6.43,2.63,3.54,4.21,6.89,8.18,10.24,12.16,1.41,1.67,3.03,3.23,4.12,5.09Z"/>
    <path class="cls-2" d="M204.38,218.05c.18,4.3-3.2,7.44-9.58,7.44-1.46-.71-4.71-1.5-6.8-3.51-3.74-3.57-7.36-7.54-9.96-11.98-2.9-4.95.88-10.27,6.66-10.38,8.32-.16,19.33,10.14,19.68,18.43ZM193.79,220.91c3.28,1.41,5.75-.49,5.71-3.89-.07-5.03-8.86-13.43-13.91-13.27-2.51.08-4.31,1.44-3.38,3.88,2.19,5.77,5.7,10.73,11.58,13.28Z"/>
    <path class="cls-2" d="M193.11,559.26c2.81,1.04,4.92,3.88,3.87,6.79-.79,2.17-3.2,4.27-5.4,5.29-4.05,1.89-8.13.9-11.52-2.05-.61-.53-.64-1.73-.94-2.62.93-.13,1.89-.48,2.78-.36,2.35.33,4.68,1.17,7.01,1.16,1.07,0,2.8-1.38,3.01-2.39.19-.91-1.05-2.73-2.07-3.16-2.44-1.03-5.1-1.62-7.72-2.13-3.15-.62-6.42-.73-9.51-1.53-1.79-.46-3.59-1.57-4.93-2.87-3.84-3.73-2.8-8.11,2.22-9.9,1.44-.51,2.98-.74,5.01-1.23,1.69.73,3.71,1.5,5.61,2.5.48.25.93,1.43.73,1.86-.24.5-1.25.94-1.87.88-1.27-.12-2.56-.99-3.73-.82-1.63.23-3.17,1.13-4.74,1.74.84,1.32,1.39,3.25,2.6,3.84,1.87.92,4.22.83,6.31,1.36,4.46,1.11,9,2.05,13.28,3.64Z"/>
    <path class="cls-2" d="M196.89,420.13c1.77,5.59-2.6,10.81-11.12,10.93-1.81-.89-5.58-2.09-8.51-4.37-3-2.32-5.43-5.52-7.63-8.67-2-2.87-2.47-6.24-.47-9.49,2.03-3.31,5.34-3.99,8.78-3.74,7.44.53,16.68,8.15,18.95,15.34ZM186.39,426.39c3.49,1.33,6.48-1.59,5.77-5.27-1.06-5.48-9.43-12.35-14.97-12.28-3.53.05-5.37,2.52-3.89,5.62,2.74,5.7,7.22,9.7,13.09,11.93Z"/>
    <path class="cls-2" d="M183.93,225.73c.69.87.36,2.56.5,3.86-1.42-.46-3.33-.49-4.18-1.45-3.59-4.05-6.87-8.38-10.27-12.59-.15-.2-.38-.34-1.21-1.05.71,3.13,1.49,5.6,1.76,8.12.15,1.36-.14,3.38-1.02,4.06-.76.57-2.88.03-4-.67-3.71-2.29-7.23-4.88-11.34-7.7,3.73,5.73,7.02,10.8,10.41,16.01-2.47,2.08-4.32,1.69-5.72-.56-4.38-7.01-8.7-14.05-12.94-21.15-.43-.73-.51-2.51-.12-2.74.83-.5,2.3-.72,3.1-.29,2.15,1.14,4.11,2.66,6.1,4.09,3.45,2.47,6.87,4.98,10.73,7.79-.87-4.32-1.79-8.17-2.37-12.07-.2-1.34.43-2.81.68-4.22,1.47.57,3.41.72,4.32,1.77,5.35,6.13,10.52,12.41,15.57,18.79Z"/>
    <path class="cls-2" d="M176.66,434.36c.12.14.01.49.01.9-2.1,1.93-3.77,1.11-5.41-.88-3.9-4.74-7.86-9.42-12.28-13.84.95,3.45,2.07,6.88,2.76,10.39.25,1.3-.06,3.37-.93,4.03-.83.64-2.99.36-4.07-.31-4.04-2.49-7.88-5.31-12.44-7.44,2.66,4.11,5.42,8.15,7.92,12.36.63,1.07.41,2.65.58,3.99-1.42-.48-3.46-.52-4.16-1.5-4.63-6.52-9.04-13.2-13.35-19.94-.64-1-.43-2.55-.62-3.85,1.44.03,3.19-.46,4.27.17,5.78,3.38,11.39,7.04,17.67,11-1.32-5.01-2.58-9.21-3.46-13.48-.23-1.1.4-3.08,1.22-3.51.94-.48,3.07-.15,3.78.64,6.29,6.98,12.38,14.14,18.51,21.27Z"/>
    <path class="cls-2" d="M113.56,236.93c8.22-1.07,20.32,9.62,20.23,17.87-.05,4.69-3.69,7.77-8.53,7.22-6.91-.79-16.5-10.21-17.35-17.05-.59-4.75,1.33-7.48,5.65-8.04ZM124.69,257.65c2.96.49,4.93-1.18,4.73-4-.37-4.97-8.8-12.62-14.45-12.53-1.71.09-3.04,1.15-2.71,3.63.56,4.32,8.19,12.19,12.43,12.9Z"/>
    <path class="cls-2" d="M113.82,262.53c.71.87.57,2.41.83,3.65-1.43-.38-3.39-.29-4.21-1.22-3.71-4.21-7.11-8.71-11.04-12.8.77,2.96,1.66,5.9,2.24,8.9.19,1-.06,2.69-.72,3.1-.86.55-2.57.6-3.48.08-3.92-2.21-7.67-4.7-12.28-7.6,2.77,4.37,5.24,7.98,7.38,11.78.67,1.21.45,2.91.64,4.39-1.45-.71-3.45-1.03-4.25-2.18-4.24-6.16-8.23-12.49-12.16-18.86-.65-1.05-.56-2.57-.81-3.87,1.43.09,3.15-.31,4.24.35,5.14,3.13,10.11,6.54,15.14,9.85.28-.18.57-.37.85-.55-.91-3.45-1.97-6.88-2.65-10.37-.25-1.28.41-2.74.65-4.11,1.48.47,3.46.49,4.35,1.49,5.25,5.84,10.31,11.87,15.28,17.97Z"/>
    <path class="cls-2" d="M91.93,326.99c.22.5.43,1,.65,1.5-11.5,4.95-23,9.89-34.5,14.84-.26-.59-.51-1.18-.77-1.77,11.12-5.84,23.22-9.38,34.62-14.57Z"/>
    <path class="cls-2" d="M83.65,316.38c.24.56.48,1.12.72,1.69-13.17,5.56-26.34,11.12-39.51,16.68-.23-.35-.47-.7-.71-1.04,1.18-.88,2.23-2.05,3.55-2.59,7.27-2.97,14.63-5.74,21.91-8.69,4.72-1.92,9.36-4.03,14.04-6.05Z"/>
    <path class="cls-2" d="M75.19,347.41c8.93-4.03,17.85-8.06,26.9-12.14-1.66,4.05-21.82,13.68-26.9,12.14Z"/>
    <path class="cls-2" d="M76.49,305.89c.2.54.4,1.09.61,1.64-15.15,5.73-30.3,11.45-45.45,17.18-.25-.66-.5-1.31-.74-1.97,15.19-5.62,30.39-11.23,45.58-16.85Z"/>
    <path class="cls-2" d="M67.57,295.37c.2.51.4,1.02.6,1.54-13.74,5.35-27.48,10.71-41.22,16.07-.21-.55-.42-1.1-.64-1.64,13.76-5.33,27.51-10.65,41.26-15.97Z"/>
    <path class="cls-2" d="M59.97,283.6c.18.39.37.79.55,1.19-13.94,7.88-29.27,12.71-43.62,19.69-.27-.59-.54-1.19-.8-1.79,14.62-6.36,29.24-12.73,43.87-19.09Z"/>
    <path class="cls-2" d="M51.81,274.77c.24.63.48,1.27.72,1.91-13.07,5.73-26.14,11.46-39.21,17.2-.23-.55-.47-1.09-.71-1.63,13.07-5.83,26.13-11.66,39.2-17.48Z"/>
    <path class="cls-2" d="M46.21,265.87c.25.61.51,1.22.76,1.84-10.16,4.16-20.32,8.32-30.48,12.48-.25-.6-.49-1.19-.74-1.79,10.16-4.18,20.31-8.35,30.46-12.53Z"/>
    <path class="cls-2" d="M11.68,269.63c9.26-3.83,18.51-7.66,28.35-11.73-1.92,3.55-23.53,12.6-28.35,11.73Z"/>
  </g>
</svg>