<?xml version="1.0" encoding="UTF-8"?>
<svg id="Calque_2" xmlns="http://www.w3.org/2000/svg" xmlns:xlink="http://www.w3.org/1999/xlink" viewBox="0 0 230 195">
  <defs>
    <style>
      .cls-1 {
        fill: #e94d2a;
        stroke: #e94d2a;
        stroke-miterlimit: 10;
      }

      .cls-2 {
        fill: none;
      }

      .cls-3 {
        fill: #036;
      }

      .cls-4 {
        clip-path: url(#clippath);
      }
    </style>
    <clipPath id="clippath">
      <path class="cls-2" d="M48.08,183.57c.78.26,1.33.64,1.85.6,10.46-.7,20.44-3.03,28.42-10.26,4.04-3.66,7.48-8.04,10.93-12.31,2.53-3.12,5.45-4.5,9.5-4.41,9.15.21,18.35.68,27.45-.02,10.19-.78,20.37-2.36,30.42-4.29,8.99-1.73,17.15-5.71,23.89-12.12,10.77-10.23,15.97-23.24,17.73-37.61,2.04-16.65.44-33.02-4.65-49.15-5.42-17.18-16.98-27.8-33.61-33.42-12.65-4.28-25.88-5.25-39.07-6.08-11.45-.72-22.87-1.63-34.42-.25-13.66,1.64-26.45,5.44-38.42,12.13-13.85,7.74-23.24,19.14-27.3,34.49-4.54,17.14-4.3,34.51-.47,51.71,2.54,11.4,8.2,21.25,17.96,28.23,6,4.29,12.61,7.35,19.64,9.65,4.84,1.58,5.81,3.39,5.59,8.48-.47,11-5.83,18.99-15.45,24.61Z"/>
    </clipPath>
  </defs>
  <g class="cls-4">
    <g>
      <path class="cls-1" d="M97.21,89.33c.01-3.33.25-6.64,1.39-9.8,1.43-3.98,4.33-6.82,7.56-9.38,1.76-1.39,3.61-2.68,5.36-4.09,4.99-3.99,6.58-10.33,3.89-15.72-1.84-3.7-4.96-5.64-8.98-6.33-7.1-1.21-12.36,3.29-14.73,8.12-.49.99-.9,2.02-1.32,3.04-1.16,2.87-1.72,3.27-4.76,2.71-1.99-.36-3.96-.91-5.9-1.49-1.65-.5-2.16-1.39-1.82-3.09,1.17-5.78,4.04-10.61,8.31-14.64,4.82-4.54,10.61-6.7,17.14-7.02,6.76-.33,13.06,1.14,18.5,5.34,4.9,3.79,8.17,8.7,9.04,14.9,1.17,8.32-1.38,15.38-7.88,20.81-2.63,2.19-5.42,4.19-8.14,6.27-3.29,2.52-5.28,5.73-5.37,9.99-.02,1.13-.16,2.28-.4,3.39-.36,1.62-1.16,2.4-2.81,2.44-2.31.05-4.63-.07-6.93-.27-1.35-.12-2.07-1.1-2.13-2.54-.04-.89,0-1.78,0-2.68ZM103.51,93.09s0-.08,0-.12c.93,0,1.86.03,2.78-.01.72-.04,1.19-.36,1.2-1.2.01-.71.14-1.42.21-2.13.54-5.05,2.57-9.31,6.65-12.47,1.78-1.38,3.58-2.71,5.36-4.09,2.52-1.95,5-3.95,6.6-6.78,2.33-4.12,3.26-8.53,2.84-13.26-.5-5.65-2.85-10.28-7.33-13.72-6.12-4.7-13.13-6.65-20.72-5.52-10.17,1.5-17.27,7.17-20.98,16.85-.35.91-.47,1.93-.57,2.91-.03.32.3.92.57.99,2.3.59,4.61,1.14,6.94,1.57.89.17,1.54-.39,1.85-1.29.24-.71.54-1.4.83-2.09,2.62-6.33,6.97-10.33,14.14-10.59,4.78-.17,8.79,1.45,11.68,5.31,4.09,5.46,3.57,13.33-1.34,18.23-2.38,2.38-5.14,4.4-7.82,6.47-6.4,4.95-8.33,11.62-7.61,19.35.07.76.45,1.18,1.19,1.26,1.17.12,2.34.22,3.5.32Z"/>
      <path class="cls-1" d="M96.11,107.93c-.19-4.43,3.66-7.8,7.55-7.8,4.23,0,7.8,3.71,7.79,7.93,0,4.27-3.56,7.75-7.9,7.75-4.19,0-7.47-3.46-7.44-7.87Z"/>
    </g>
    <g>
      <path class="cls-1" d="M44.37,107.04c0-1.96.15-3.92.82-5.78.84-2.35,2.56-4.03,4.46-5.53,1.04-.82,2.13-1.58,3.16-2.41,2.95-2.35,3.88-6.09,2.29-9.27-1.09-2.18-2.93-3.33-5.3-3.73-4.19-.71-7.29,1.94-8.69,4.79-.29.58-.53,1.19-.78,1.79-.69,1.7-1.02,1.93-2.81,1.6-1.17-.21-2.33-.53-3.48-.88-.97-.29-1.27-.82-1.07-1.82.69-3.41,2.38-6.26,4.9-8.64,2.84-2.68,6.26-3.95,10.11-4.14,3.99-.19,7.7.67,10.91,3.15,2.89,2.24,4.82,5.13,5.33,8.79.69,4.91-.81,9.07-4.65,12.28-1.55,1.29-3.2,2.47-4.8,3.7-1.94,1.49-3.11,3.38-3.17,5.89-.01.67-.09,1.35-.24,2-.21.96-.68,1.42-1.66,1.44-1.36.03-2.73-.04-4.08-.16-.8-.07-1.22-.65-1.26-1.5-.02-.53,0-1.05,0-1.58ZM48.09,109.26s0-.05,0-.07c.55,0,1.1.02,1.64,0,.42-.02.7-.21.71-.71,0-.42.08-.84.12-1.25.32-2.98,1.52-5.49,3.92-7.36,1.05-.81,2.11-1.6,3.16-2.41,1.49-1.15,2.95-2.33,3.89-4,1.38-2.43,1.92-5.03,1.68-7.82-.29-3.33-1.68-6.06-4.33-8.09-3.61-2.77-7.75-3.92-12.22-3.26-6,.89-10.18,4.23-12.37,9.94-.21.54-.28,1.14-.34,1.72-.02.19.18.54.34.59,1.36.35,2.72.67,4.09.93.52.1.91-.23,1.09-.76.14-.42.32-.82.49-1.23,1.54-3.73,4.11-6.1,8.34-6.25,2.82-.1,5.18.86,6.89,3.13,2.41,3.22,2.11,7.86-.79,10.75-1.41,1.4-3.03,2.59-4.61,3.82-3.78,2.92-4.91,6.85-4.49,11.42.04.45.26.7.7.74.69.07,1.38.13,2.07.19Z"/>
      <path class="cls-1" d="M43.73,118.02c-.11-2.61,2.16-4.6,4.46-4.6,2.49,0,4.6,2.19,4.59,4.67,0,2.52-2.1,4.57-4.66,4.57-2.47,0-4.4-2.04-4.39-4.64Z"/>
    </g>
    <g>
      <path class="cls-1" d="M155.21,137.44c0-2.79.21-5.57,1.17-8.22,1.2-3.34,3.64-5.73,6.34-7.87,1.48-1.17,3.03-2.25,4.5-3.43,4.19-3.35,5.52-8.67,3.26-13.19-1.55-3.1-4.16-4.74-7.54-5.31-5.96-1.01-10.38,2.77-12.37,6.82-.41.83-.76,1.69-1.1,2.55-.98,2.41-1.44,2.74-3.99,2.28-1.67-.3-3.32-.76-4.95-1.25-1.39-.42-1.81-1.17-1.53-2.6.98-4.85,3.39-8.9,6.98-12.29,4.04-3.81,8.91-5.63,14.38-5.89,5.68-.28,10.96.96,15.53,4.49,4.12,3.18,6.86,7.3,7.59,12.51.98,6.98-1.15,12.9-6.62,17.47-2.2,1.84-4.55,3.51-6.83,5.26-2.76,2.12-4.43,4.81-4.51,8.39-.02.95-.13,1.92-.34,2.84-.3,1.36-.97,2.02-2.36,2.05-1.94.04-3.88-.06-5.81-.22-1.13-.1-1.73-.92-1.79-2.13-.04-.75,0-1.5,0-2.25ZM160.51,140.6s0-.07,0-.1c.78,0,1.56.03,2.34,0,.6-.03,1-.3,1.01-1,.01-.6.11-1.19.18-1.79.45-4.24,2.16-7.82,5.58-10.47,1.49-1.16,3.01-2.28,4.5-3.43,2.11-1.63,4.19-3.31,5.54-5.69,1.96-3.46,2.74-7.16,2.39-11.13-.42-4.74-2.39-8.62-6.16-11.52-5.14-3.95-11.02-5.58-17.39-4.64-8.53,1.26-14.49,6.01-17.61,14.14-.29.77-.4,1.62-.48,2.45-.03.27.26.77.48.83,1.93.49,3.87.96,5.83,1.32.75.14,1.29-.33,1.55-1.09.2-.59.45-1.17.69-1.75,2.2-5.31,5.85-8.67,11.87-8.89,4.01-.14,7.38,1.22,9.8,4.46,3.43,4.58,3,11.19-1.13,15.3-2,2-4.32,3.69-6.56,5.43-5.37,4.16-6.99,9.75-6.38,16.24.06.64.38.99,1,1.06.98.1,1.96.18,2.94.27Z"/>
      <path class="cls-1" d="M154.3,153.05c-.16-3.72,3.07-6.54,6.34-6.55,3.55,0,6.54,3.11,6.54,6.65,0,3.58-2.98,6.5-6.63,6.5-3.52,0-6.27-2.91-6.24-6.6Z"/>
    </g>
    <g>
      <path class="cls-1" d="M150.76,52.25c0-1.69.13-3.36.7-4.96.72-2.02,2.2-3.46,3.83-4.75.89-.71,1.83-1.36,2.72-2.07,2.53-2.02,3.33-5.23,1.97-7.97-.93-1.87-2.51-2.86-4.55-3.21-3.6-.61-6.26,1.67-7.47,4.12-.25.5-.46,1.02-.67,1.54-.59,1.46-.87,1.65-2.41,1.37-1.01-.18-2.01-.46-2.99-.75-.84-.25-1.09-.71-.92-1.57.59-2.93,2.05-5.38,4.21-7.42,2.44-2.3,5.38-3.4,8.68-3.56,3.43-.17,6.62.58,9.37,2.71,2.49,1.92,4.14,4.41,4.58,7.55.59,4.22-.7,7.79-3.99,10.55-1.33,1.11-2.75,2.12-4.12,3.18-1.67,1.28-2.67,2.9-2.72,5.06-.01.57-.08,1.16-.21,1.72-.18.82-.59,1.22-1.42,1.24-1.17.03-2.34-.03-3.51-.14-.68-.06-1.05-.56-1.08-1.28-.02-.45,0-.9,0-1.36ZM153.95,54.15s0-.04,0-.06c.47,0,.94.02,1.41,0,.36-.02.6-.18.61-.61,0-.36.07-.72.11-1.08.27-2.56,1.3-4.72,3.37-6.32.9-.7,1.82-1.38,2.72-2.07,1.28-.99,2.53-2,3.35-3.43,1.18-2.09,1.65-4.32,1.44-6.72-.25-2.86-1.44-5.21-3.72-6.95-3.1-2.38-6.65-3.37-10.5-2.8-5.15.76-8.75,3.63-10.63,8.54-.18.46-.24.98-.29,1.48-.02.16.15.47.29.5,1.16.3,2.34.58,3.52.8.45.08.78-.2.94-.66.12-.36.27-.71.42-1.06,1.33-3.21,3.53-5.24,7.16-5.36,2.42-.09,4.45.74,5.92,2.69,2.07,2.76,1.81,6.75-.68,9.24-1.21,1.21-2.61,2.23-3.96,3.28-3.24,2.51-4.22,5.89-3.85,9.81.04.39.23.6.61.64.59.06,1.18.11,1.78.16Z"/>
      <path class="cls-1" d="M150.2,61.67c-.1-2.24,1.86-3.95,3.83-3.95,2.14,0,3.95,1.88,3.95,4.02,0,2.16-1.8,3.93-4.01,3.92-2.13,0-3.78-1.75-3.77-3.99Z"/>
    </g>
    <g>
      <path class="cls-1" d="M41.33,34.19c.01-3.33.25-6.64,1.39-9.8,1.43-3.98,4.33-6.82,7.56-9.38,1.76-1.39,3.61-2.68,5.36-4.09,4.99-3.99,6.58-10.33,3.89-15.72-1.84-3.7-4.96-5.64-8.98-6.33-7.1-1.21-12.36,3.29-14.73,8.12-.49.99-.9,2.02-1.32,3.04-1.16,2.87-1.72,3.27-4.76,2.71-1.99-.36-3.96-.91-5.9-1.49-1.65-.5-2.16-1.39-1.82-3.09,1.17-5.78,4.04-10.61,8.31-14.64,4.82-4.54,10.61-6.7,17.14-7.02,6.76-.33,13.06,1.14,18.5,5.34,4.9,3.79,8.17,8.7,9.04,14.9,1.17,8.32-1.38,15.38-7.88,20.81-2.63,2.19-5.42,4.19-8.14,6.27-3.29,2.52-5.28,5.73-5.37,9.99-.02,1.13-.16,2.28-.4,3.39-.36,1.62-1.16,2.4-2.81,2.44-2.31.05-4.63-.07-6.93-.27-1.35-.12-2.07-1.1-2.13-2.54-.04-.89,0-1.78,0-2.68ZM47.64,37.95s0-.08,0-.12c.93,0,1.86.03,2.78-.01.72-.04,1.19-.36,1.2-1.2.01-.71.14-1.42.21-2.13.54-5.05,2.57-9.31,6.65-12.47,1.78-1.38,3.58-2.71,5.36-4.09,2.52-1.95,5-3.95,6.6-6.78,2.33-4.12,3.26-8.53,2.84-13.26-.5-5.65-2.85-10.28-7.33-13.72-6.12-4.7-13.13-6.65-20.72-5.52-10.17,1.5-17.27,7.17-20.98,16.85-.35.91-.47,1.93-.57,2.91-.03.32.3.92.57.99C26.57-.01,28.89.54,31.22.97c.89.17,1.54-.39,1.85-1.29.24-.71.54-1.4.83-2.09,2.62-6.33,6.97-10.33,14.14-10.59,4.78-.17,8.79,1.45,11.68,5.31,4.09,5.46,3.57,13.33-1.34,18.23-2.38,2.38-5.14,4.4-7.82,6.47-6.4,4.95-8.33,11.62-7.61,19.35.07.76.45,1.18,1.19,1.26,1.17.12,2.34.22,3.5.32Z"/>
      <path class="cls-1" d="M40.24,52.79c-.19-4.43,3.66-7.8,7.55-7.8,4.23,0,7.8,3.71,7.79,7.93,0,4.27-3.56,7.75-7.9,7.75-4.19,0-7.47-3.46-7.44-7.87Z"/>
    </g>
    <g>
      <path class="cls-1" d="M83.33,182.19c.01-3.33.25-6.64,1.39-9.8,1.43-3.98,4.33-6.82,7.56-9.38,1.76-1.39,3.61-2.68,5.36-4.09,4.99-3.99,6.58-10.33,3.89-15.72-1.84-3.7-4.96-5.64-8.98-6.33-7.1-1.21-12.36,3.29-14.73,8.12-.49.99-.9,2.02-1.32,3.04-1.16,2.87-1.72,3.27-4.76,2.71-1.99-.36-3.96-.91-5.9-1.49-1.65-.5-2.16-1.39-1.82-3.09,1.17-5.78,4.04-10.61,8.31-14.64,4.82-4.54,10.61-6.7,17.14-7.02,6.76-.33,13.06,1.14,18.5,5.34,4.9,3.79,8.17,8.7,9.04,14.9,1.17,8.32-1.38,15.38-7.88,20.81-2.63,2.19-5.42,4.19-8.14,6.27-3.29,2.52-5.28,5.73-5.37,9.99-.02,1.13-.16,2.28-.4,3.39-.36,1.62-1.16,2.4-2.81,2.44-2.31.05-4.63-.07-6.93-.27-1.35-.12-2.07-1.1-2.13-2.54-.04-.89,0-1.78,0-2.68ZM89.64,185.95s0-.08,0-.12c.93,0,1.86.03,2.78-.01.72-.04,1.19-.36,1.2-1.2.01-.71.14-1.42.21-2.13.54-5.05,2.57-9.31,6.65-12.47,1.78-1.38,3.58-2.71,5.36-4.09,2.52-1.95,5-3.95,6.6-6.78,2.33-4.12,3.26-8.53,2.84-13.26-.5-5.65-2.85-10.28-7.33-13.72-6.12-4.7-13.13-6.65-20.72-5.52-10.17,1.5-17.27,7.17-20.98,16.85-.35.91-.47,1.93-.57,2.91-.03.32.3.92.57.99,2.3.59,4.61,1.14,6.94,1.57.89.17,1.54-.39,1.85-1.29.24-.71.54-1.4.83-2.09,2.62-6.33,6.97-10.33,14.14-10.59,4.78-.17,8.79,1.45,11.68,5.31,4.09,5.46,3.57,13.33-1.34,18.23-2.38,2.38-5.14,4.4-7.82,6.47-6.4,4.95-8.33,11.62-7.61,19.35.07.76.45,1.18,1.19,1.26,1.17.12,2.34.22,3.5.32Z"/>
      <path class="cls-1" d="M82.24,200.79c-.19-4.43,3.66-7.8,7.55-7.8,4.23,0,7.8,3.71,7.79,7.93,0,4.27-3.56,7.75-7.9,7.75-4.19,0-7.47-3.46-7.44-7.87Z"/>
    </g>
  </g>
  <path class="cls-3" d="M113.96,162.38c-4.03-.22-8.82-.31-13.57-.79-3.95-.4-6.44,1.1-8.63,4.35-6.01,8.93-13.93,15.63-24.16,19.34-6.22,2.25-12.68,3.17-19.24,2.49-1.54-.16-3.61-1.36-4.18-2.64-.45-1,.73-3.16,1.76-4.29,2.33-2.55,5.05-4.74,7.52-7.17,3.99-3.92,5.45-8.95,6.08-14.32.36-3.1-1.2-4.44-4.06-5.28-9-2.64-17.31-6.8-24.05-13.39-9.43-9.23-14.3-20.85-16.39-33.72-1.71-10.49-2.1-21.05-1.21-31.64,1.24-14.88,5.93-28.45,15.84-39.82,8.3-9.53,19.06-15.41,30.79-19.68,14.53-5.29,29.54-7.4,44.96-6.79,16.38.64,32.77,1.51,48.84,4.98,11.4,2.46,21.85,7.36,30.3,15.52,7.28,7.03,12.16,15.69,14.88,25.54,2.5,9.06,3.67,18.27,4.38,27.64,1.05,13.92-.12,27.47-5.42,40.43-6.1,14.92-16.36,25.8-31.71,31.58-12.14,4.58-24.82,5.98-37.62,6.81-4.78.31-9.56.54-15.11.86ZM48.57,183.57c.78.26,1.33.64,1.85.6,10.46-.7,20.44-3.03,28.42-10.26,4.04-3.66,7.48-8.04,10.93-12.31,2.53-3.12,5.45-4.5,9.5-4.41,9.15.21,18.35.68,27.45-.02,10.19-.78,20.37-2.36,30.42-4.29,8.99-1.73,17.15-5.71,23.89-12.12,10.77-10.23,15.97-23.24,17.73-37.61,2.04-16.65.44-33.02-4.65-49.15-5.42-17.18-16.98-27.8-33.61-33.42-12.65-4.28-25.88-5.25-39.07-6.08-11.45-.72-22.87-1.63-34.42-.25-13.66,1.64-26.45,5.44-38.42,12.13-13.85,7.74-23.24,19.14-27.3,34.49-4.54,17.14-4.3,34.51-.47,51.71,2.54,11.4,8.2,21.25,17.96,28.23,6,4.29,12.61,7.35,19.64,9.65,4.84,1.58,5.81,3.39,5.59,8.48-.47,11-5.83,18.99-15.45,24.61Z"/>
</svg>