<?xml version="1.0" encoding="UTF-8"?>
<svg id="Calque_1" xmlns="http://www.w3.org/2000/svg" viewBox="0 0 230 195">
  <defs>
    <style>
      .cls-1 {
        fill: #e94d2a;
        stroke: #e94d2a;
      }

      .cls-1, .cls-2 {
        stroke-miterlimit: 10;
        stroke-width: 3px;
      }

      .cls-2 {
        fill: #036;
        stroke: #036;
      }
    </style>
  </defs>
  <path class="cls-2" d="M72.23,153.83c-1.05.12-1.37-.49-1.64-1.13-2.46-5.88-4.91-11.77-7.38-17.65-6.08-14.49-12.17-28.97-18.24-43.46-4.22-10.08-8.43-20.16-12.61-30.25-1.1-2.66-1.44-5.43-.39-8.19.99-2.6,2.82-4.53,5.35-5.61,13.27-5.64,26.55-11.27,39.85-16.82,9.33-3.9,18.7-7.71,28.08-11.5,2.22-.9,4.39-2,6.89-2.03,4.16-.05,7.29,1.58,9.11,5.42,1.05,2.23,2.06,4.47,3.11,6.76,3.27-.33,6.57-.69,9.86-1,4.62-.44,9.24-.93,13.87-1.25,3.9-.26,7.2,1.08,9.16,4.6.78,1.4,1.09,3.11,1.39,4.72.5,2.69.85,5.41,1.21,8.13.1.79.02,1.61.02,2.54,1.81.46,3.72.97,5.64,1.44,5.82,1.4,11.66,2.75,17.48,4.17,4.21,1.03,6.98,3.59,7.83,7.92.42,2.13.02,4.25-.49,6.35-3.08,12.6-6.12,25.21-9.21,37.8-2.03,8.3-4.14,16.58-6.19,24.88-3.43,13.85-6.84,27.7-10.27,41.54-.7,2.83-1.8,5.44-4.29,7.22-2.55,1.83-5.3,2.37-8.39,1.6-8.7-2.17-17.43-4.22-26.13-6.39-10.71-2.68-21.41-5.43-32.11-8.17-4.37-1.12-8.74-2.27-13.1-3.44-2.59-.69-4.83-1.91-6.12-4.4-.95-1.83-1.24-3.8-1.22-5.86.03-3.1,1.2-5.95,1.91-8.89,2.05-8.42,4.23-16.81,6.26-25.23,3.22-13.34,6.4-26.69,9.54-40.05,2.51-10.69,4.94-21.41,7.4-32.11.59-2.56,1.72-4.84,3.64-6.64,2.66-2.51,5.81-3.36,9.42-2.59,10.77,2.3,21.56,4.53,32.33,6.88,4.9,1.07,9.75,2.38,14.73,3.61-.34-2.51-.65-4.95-1.01-7.38-.22-1.52-.57-3.02-.79-4.54-.54-3.76-4.01-6.19-7.51-6.15-2.55.02-5.11.32-7.66.56-4.08.37-8.16.8-12.24,1.19-4.11.4-8.22.81-12.33,1.17-4.23.37-8.47.67-12.71,1.02-4.72.39-9.43.77-14.15,1.22-3.42.32-6.84.67-10.24,1.14-4.26.58-7.36,4.5-7.41,7.56-.04,2.53-.01,5.07.08,7.6.16,4.04.39,8.07.61,12.1.27,4.94.56,9.87.84,14.81.21,3.76.42,7.53.61,11.29.3,5.72.6,11.44.88,17.16.28,5.81.54,11.63.78,17.44.14,3.4.27,6.81.34,10.22.02.92-.16,1.85-.31,2.77-.03.21-.32.38-.49.56-.14-.23-.38-.46-.4-.7-.27-5.42-.5-10.84-.77-16.27-.26-5.21-.56-10.42-.83-15.63-.21-4.07-.4-8.13-.61-12.2-.22-4.39-.46-8.78-.69-13.14-1,.47-1.94.92-2.88,1.35-4.44,2.03-8.87,4.06-13.32,6.06-.27.12-.64.01-.96,0,.11-.32.12-.79.34-.94.88-.57,1.8-1.09,2.75-1.53,3.99-1.84,7.99-3.67,12-5.46.58-.26,1.27-.28,2.02-.43-.13-2.45-.28-5.13-.42-7.8-.4-7.89-.82-15.78-1.19-23.67-.07-1.43-.06-2.91.18-4.32.71-4.12,3.27-6.76,7.18-7.89,2.26-.66,4.67-.87,7.03-1.12,6.18-.64,12.36-1.23,18.54-1.77,5.02-.44,10.04-.77,15.06-1.16,1.28-.1,2.56-.23,3.79-.34-.86-1.97-1.69-3.87-2.53-5.75-1.5-3.34-4-5.26-7.75-5.12-1.18.05-2.4.33-3.5.78-11.13,4.5-22.26,9-33.35,13.61-11.76,4.89-23.46,9.9-35.19,14.85-.78.33-1.57.62-2.34.96-4.22,1.86-6.19,6.07-4.66,10.44,1.31,3.72,2.86,7.35,4.37,10.98,5.34,12.84,10.72,25.66,16.07,38.49,5.39,12.94,10.76,25.9,16.14,38.85.62,1.5,1.25,3,1.84,4.52.2.51.29,1.07.44,1.66ZM74.81,151.11c0,5,1.48,8.07,5.78,9.24,2.96.8,5.91,1.66,8.88,2.42,12.8,3.28,25.6,6.56,38.41,9.79,7.85,1.98,15.72,3.85,23.57,5.82,1.76.44,3.46.71,5.25.22,3.53-.98,5.36-3.51,6.21-6.87,2.97-11.79,5.93-23.58,8.86-35.38,2.77-11.13,5.5-22.27,8.24-33.4,1.83-7.42,3.66-14.84,5.46-22.27,1.28-5.29,2.57-10.59,3.77-15.9,1.16-5.14-1.5-9.31-6.45-10.47-7-1.63-14-3.3-20.99-5.01-7.1-1.74-14.16-3.68-21.29-5.29-9.3-2.11-18.66-3.98-28-5.95-1.8-.38-3.61-.79-5.45-.27-3.6,1.01-5.77,3.59-6.63,7.01-2.34,9.25-4.44,18.56-6.65,27.84-3.44,14.46-6.86,28.93-10.35,43.37-2.37,9.8-4.85,19.57-7.27,29.36-.56,2.27-1.06,4.55-1.34,5.74Z"/>
  <path class="cls-2" d="M44.99,64.38c.23-.35.39-.84.72-1.02,1.28-.73,2.58-1.42,3.92-2.03,5.84-2.63,11.69-5.23,17.55-7.82.57-.25,1.18-.46,1.8-.57.32-.05.68.18,1.02.28-.22.25-.41.54-.67.74-.26.2-.58.31-.89.44-7.02,3.15-14.05,6.31-21.07,9.46-.67.3-1.35.58-2.03.87-.12-.12-.23-.23-.35-.35Z"/>
  <path class="cls-2" d="M84.34,169.97c-3.54-.07-6.15-1.38-7.85-4.1-.9-1.43-1.5-3.06-2.14-4.64-.13-.31.17-.79.27-1.19.33.26.77.45.97.78.46.77.86,1.59,1.2,2.42,1.77,4.4,5.93,6.27,10.68,4.54,1.47-.53,2.96-1.02,4.47-1.42.46-.12,1.43.03,1.47.22.18.75-.59.83-1.1,1-2.1.73-4.2,1.45-6.32,2.13-.62.2-1.3.21-1.63.26Z"/>
  <path class="cls-2" d="M69.46,62.59c-.31.2-.61.45-.94.6-1.89.85-3.8,1.67-5.69,2.51-4.15,1.85-8.28,3.72-12.43,5.57-.41.18-.83.37-1.26.48-.22.05-.48-.07-.72-.11.06-.25.04-.57.18-.74.25-.28.58-.54.93-.69,5.82-2.59,11.65-5.17,17.48-7.73.49-.22,1.02-.38,1.55-.45.28-.04.59.18.89.28,0,.09,0,.18,0,.27Z"/>
  <path class="cls-2" d="M94.97,54.65c.19.06.57.14.89.31.1.06.16.47.08.55-.27.24-.59.53-.92.57-1.93.28-3.88.5-5.82.73-2.03.23-4.06.47-6.1.64-.37.03-.77-.25-1.15-.39.33-.32.63-.86,1.01-.93,1.68-.3,3.39-.48,5.09-.68,2.24-.27,4.48-.52,6.91-.81Z"/>
  <path class="cls-2" d="M94.21,107.49c.5-2.32.93-4.65,1.5-6.96,2.92-11.83,5.88-23.65,8.83-35.48.07-.26.08-.56.23-.77.19-.27.48-.46.73-.68.11.31.34.64.29.91-.24,1.33-.52,2.66-.84,3.97-2.83,11.39-5.68,22.77-8.49,34.17-.37,1.51-.65,3.07-.79,4.62-.18,2.04.57,3.3,2.52,3.99,2.04.71,4.16,1.19,6.26,1.71,7.33,1.83,14.66,3.66,21.99,5.46,11.84,2.9,23.68,5.78,35.52,8.67.29.07.64.07.86.23.3.21.5.55.74.83-.37.16-.76.5-1.1.45-1.04-.15-2.06-.43-3.08-.68-13.01-3.17-26.02-6.33-39.03-9.53-6.93-1.7-13.84-3.47-20.74-5.25-1.01-.26-2.02-.65-2.92-1.17-1.7-.97-2.46-2.51-2.49-4.51Z"/>
  <path class="cls-1" d="M142.81,109.98c-.39,1.91-.63,3.86-1.2,5.71-.79,2.57-2.42,3.43-5.32,2.86-11.52-2.25-22.94-4.94-34.11-8.59-2.97-.97-3.71-2.7-2.59-5.66,2.49-6.57,7.17-10.37,14.14-11.4,3.56-.53,3.56-.58,5.49,2.46,1.25,1.97,2.73,3.59,5.2,3.98,1.47.23,2.82-.09,4.09-.78,1.06-.58,2.04-1.29,3.11-1.83.43-.22,1.13-.38,1.5-.19,2.83,1.51,5.52,3.24,7.39,5.95,1.55,2.24,2.11,4.76,2.08,7.45.08.02.15.03.23.05ZM141.38,110.06c-.14-3.42-1.15-6.42-3.71-8.7-1.43-1.28-3.07-2.33-4.65-3.43-.23-.16-.75-.13-1.02.02-.79.44-1.5,1.01-2.27,1.47-4.05,2.43-7.91,1.66-10.71-2.12-.55-.75-1.08-1.53-1.55-2.33-.52-.88-1.22-1.17-2.2-.95-.85.19-1.71.37-2.57.52-6.18,1.1-9.91,4.97-12,10.66-.7,1.92-.27,2.77,1.66,3.32,5.43,1.56,10.85,3.21,16.33,4.58,6.13,1.53,12.31,2.82,18.49,4.15,1.74.38,2.8-.3,3.23-2.06.42-1.69.66-3.42.98-5.13Z"/>
  <path class="cls-1" d="M140.51,79.48c-.38,5.85-2.66,10.77-8.04,13.93-5.77,3.39-12.7.56-14.61-4.96-1.85-5.33-1.78-10.6,1.41-15.42,4.36-6.58,13.78-7.11,18.97-1.18,1.86,2.12,2.11,4.78,2.27,7.62ZM139.02,78.8c-.01-1.91-.25-4.13-1.76-5.88-5.81-6.75-15.02-3.68-17.79,2.63-1.63,3.72-1.74,7.6-.58,11.48,1.58,5.31,6.82,7.75,11.91,5.59,4.87-2.07,8.36-7.79,8.22-13.82Z"/>
  <path class="cls-1" d="M168.75,101.01c-1.72-.35-3.99-.8-6.26-1.29-4.12-.89-8.24-1.8-12.35-2.71-.35-.08-.7-.17-1.04-.3-1.02-.38-1.33-.8-1.08-1.85,1.12-4.62,2.25-9.24,3.46-13.83.4-1.53.88-1.66,2.39-1.29,6.27,1.51,12.54,2.98,18.81,4.47,1.93.46,2.39,1.06,1.95,3-.9,3.99-1.84,7.98-2.81,11.95-.33,1.36-1.16,1.91-3.07,1.85ZM169.56,99.74c.24-.26.71-.53.82-.91.49-1.64.87-3.31,1.29-4.98.55-2.22,1.11-4.44,1.64-6.66.28-1.18.12-1.42-.84-1.65-6.15-1.45-12.3-2.88-18.44-4.38-.87-.21-1.24-.08-1.46.81-.99,4.12-2.01,8.24-3.05,12.35-.21.83.02,1.17.88,1.35,4.22.86,8.42,1.78,12.63,2.68,2.09.45,4.18.89,6.54,1.39Z"/>
  <path class="cls-2" d="M107,55.36c.2-.28.36-.61.62-.82,1.36-1.11,2.93-1.38,4.6-1,8.92,2.03,17.85,4.02,26.75,6.14,12.56,3,25.08,6.11,37.62,9.18.52.13,1.08.22,1.55.47.34.18.55.6.82.91-.39.11-.81.39-1.16.31-2.23-.5-4.45-1.07-6.67-1.62-9.86-2.4-19.7-4.83-29.57-7.18-9.28-2.21-18.58-4.35-27.87-6.51-.56-.13-1.11-.27-1.66-.42-1.09-.29-2.14-.2-3.17.3-.5.24-1.05.36-1.59.54-.09-.1-.18-.2-.28-.3Z"/>
  <path class="cls-2" d="M93.22,121.76c.72.14,1.26.21,1.78.34,10.9,2.81,21.79,5.64,32.69,8.44,9.85,2.53,19.72,5.03,29.57,7.53.52.13,1.07.21,1.58.37.39.12.88.22.75.82-.13.61-.62.62-1.07.53-.94-.18-1.88-.4-2.81-.64-13.97-3.55-27.94-7.08-41.91-10.65-6.62-1.69-13.22-3.45-19.83-5.18-.26-.07-.57-.08-.77-.23-.3-.22-.52-.55-.77-.83.29-.18.58-.37.78-.49Z"/>
  <path class="cls-2" d="M136.33,145.71c-2.12-.51-4.11-.95-6.09-1.47-13.04-3.39-26.07-6.79-39.11-10.19-.29-.08-.64-.07-.86-.24-.26-.2-.42-.55-.62-.84.29-.16.6-.48.86-.44,1.04.16,2.07.4,3.08.66,12.08,3.13,24.16,6.27,36.24,9.4,2.04.53,4.08,1.03,6.12,1.55.17.04.38.05.51.16.29.24.55.53.82.8-.33.21-.66.42-.97.61Z"/>
  <path class="cls-2" d="M87.25,143.64c2.25.57,4.3,1.04,6.33,1.6,7.31,2,14.62,4.03,21.93,6.05.46.13,1.09.27.83.89-.12.28-.8.56-1.14.48-2.86-.7-5.71-1.49-8.55-2.26-6.16-1.67-12.31-3.34-18.47-5.01-.35-.09-.72-.17-1.02-.35-.3-.17-.54-.46-.81-.7.32-.25.64-.49.9-.7Z"/>
  <path class="cls-2" d="M166.21,117.16c-1.73-.4-3.34-.76-4.95-1.15-3.92-.94-7.83-1.89-11.75-2.84-.09-.02-.18-.02-.27-.05-.46-.19-1.11-.26-.91-.98.19-.67.78-.45,1.22-.34,5.06,1.21,10.12,2.43,15.17,3.65.55.13,1.13.24,1.64.48.22.1.44.5.42.75-.01.18-.4.34-.57.48Z"/>
</svg>